<svg width="378" height="75" viewBox="0 0 378 75" fill="none" xmlns="http://www.w3.org/2000/svg">
<path d="M258.762 33.8304V33.6058C258.762 32.8441 258.872 32.1377 259.094 31.4867C259.315 30.8291 259.634 30.2595 260.051 29.7777C260.474 29.2894 260.988 28.9118 261.594 28.6449C262.206 28.3715 262.896 28.2347 263.664 28.2347C264.439 28.2347 265.129 28.3715 265.734 28.6449C266.346 28.9118 266.864 29.2894 267.287 29.7777C267.71 30.2595 268.033 30.8291 268.254 31.4867C268.475 32.1377 268.586 32.8441 268.586 33.6058V33.8304C268.586 34.5922 268.475 35.2985 268.254 35.9496C268.033 36.6006 267.71 37.1703 267.287 37.6586C266.864 38.1403 266.35 38.5179 265.744 38.7914C265.139 39.0583 264.452 39.1918 263.684 39.1918C262.909 39.1918 262.215 39.0583 261.604 38.7914C260.998 38.5179 260.484 38.1403 260.061 37.6586C259.637 37.1703 259.315 36.6006 259.094 35.9496C258.872 35.2985 258.762 34.5922 258.762 33.8304ZM261.115 33.6058V33.8304C261.115 34.3057 261.164 34.7549 261.262 35.1781C261.359 35.6013 261.512 35.9724 261.721 36.2914C261.929 36.6104 262.196 36.861 262.521 37.0433C262.847 37.2256 263.234 37.3168 263.684 37.3168C264.12 37.3168 264.497 37.2256 264.816 37.0433C265.142 36.861 265.409 36.6104 265.617 36.2914C265.826 35.9724 265.979 35.6013 266.076 35.1781C266.18 34.7549 266.232 34.3057 266.232 33.8304V33.6058C266.232 33.1371 266.18 32.6944 266.076 32.2777C265.979 31.8545 265.822 31.4802 265.607 31.1547C265.399 30.8291 265.132 30.5752 264.807 30.3929C264.488 30.2041 264.107 30.1097 263.664 30.1097C263.221 30.1097 262.837 30.2041 262.512 30.3929C262.193 30.5752 261.929 30.8291 261.721 31.1547C261.512 31.4802 261.359 31.8545 261.262 32.2777C261.164 32.6944 261.115 33.1371 261.115 33.6058ZM273.742 38.9965H271.389V27.4144C271.389 26.6267 271.535 25.9659 271.828 25.432C272.128 24.8916 272.554 24.4847 273.107 24.2113C273.661 23.9314 274.315 23.7914 275.07 23.7914C275.305 23.7914 275.536 23.8077 275.764 23.8402C275.992 23.8663 276.213 23.9086 276.428 23.9672L276.369 25.7836C276.239 25.751 276.096 25.7282 275.939 25.7152C275.79 25.7022 275.627 25.6957 275.451 25.6957C275.093 25.6957 274.784 25.764 274.523 25.9008C274.27 26.031 274.074 26.223 273.938 26.4769C273.807 26.7308 273.742 27.0433 273.742 27.4144V38.9965ZM275.92 28.4301V30.1488H269.768V28.4301H275.92ZM287.453 28.4301V30.1488H281.496V28.4301H287.453ZM283.215 25.8422H285.568V36.0765C285.568 36.4021 285.614 36.6527 285.705 36.8285C285.803 36.9978 285.936 37.1117 286.105 37.1703C286.275 37.2289 286.473 37.2582 286.701 37.2582C286.864 37.2582 287.02 37.2484 287.17 37.2289C287.32 37.2094 287.44 37.1898 287.531 37.1703L287.541 38.9672C287.346 39.0258 287.118 39.0778 286.857 39.1234C286.604 39.169 286.311 39.1918 285.979 39.1918C285.438 39.1918 284.96 39.0974 284.543 38.9086C284.126 38.7133 283.801 38.3975 283.566 37.9613C283.332 37.5251 283.215 36.9457 283.215 36.223V25.8422ZM291.633 30.4418V38.9965H289.279V28.4301H291.525L291.633 30.4418ZM294.865 28.3617L294.846 30.5492C294.702 30.5232 294.546 30.5036 294.377 30.4906C294.214 30.4776 294.051 30.4711 293.889 30.4711C293.485 30.4711 293.13 30.5297 292.824 30.6469C292.518 30.7575 292.261 30.9203 292.053 31.1351C291.851 31.3435 291.695 31.5974 291.584 31.8969C291.473 32.1963 291.408 32.5316 291.389 32.9027L290.852 32.9418C290.852 32.2777 290.917 31.6625 291.047 31.0961C291.177 30.5297 291.372 30.0316 291.633 29.6019C291.9 29.1722 292.232 28.837 292.629 28.5961C293.033 28.3552 293.498 28.2347 294.025 28.2347C294.169 28.2347 294.322 28.2478 294.484 28.2738C294.654 28.2998 294.781 28.3291 294.865 28.3617ZM302.697 36.5062V28.4301H305.061V38.9965H302.834L302.697 36.5062ZM303.029 34.309L303.82 34.2894C303.82 34.9991 303.742 35.6534 303.586 36.2523C303.43 36.8448 303.189 37.3623 302.863 37.8051C302.538 38.2413 302.121 38.583 301.613 38.8304C301.105 39.0713 300.497 39.1918 299.787 39.1918C299.273 39.1918 298.801 39.1169 298.371 38.9672C297.941 38.8174 297.57 38.5863 297.258 38.2738C296.952 37.9613 296.714 37.5544 296.545 37.0531C296.376 36.5518 296.291 35.9528 296.291 35.2562V28.4301H298.645V35.2758C298.645 35.6599 298.69 35.9821 298.781 36.2426C298.872 36.4965 298.996 36.7015 299.152 36.8578C299.309 37.014 299.491 37.1247 299.699 37.1898C299.908 37.2549 300.129 37.2875 300.363 37.2875C301.034 37.2875 301.561 37.1573 301.945 36.8969C302.336 36.6299 302.613 36.2719 302.775 35.8226C302.945 35.3734 303.029 34.8689 303.029 34.309ZM313.4 36.1351C313.4 35.9008 313.342 35.6892 313.225 35.5004C313.107 35.3051 312.883 35.1293 312.551 34.973C312.225 34.8168 311.743 34.6735 311.105 34.5433C310.546 34.4196 310.031 34.2732 309.562 34.1039C309.1 33.9281 308.703 33.7165 308.371 33.4691C308.039 33.2217 307.782 32.9288 307.6 32.5902C307.417 32.2517 307.326 31.861 307.326 31.4183C307.326 30.9886 307.421 30.5817 307.609 30.1976C307.798 29.8135 308.068 29.475 308.42 29.182C308.771 28.889 309.198 28.6579 309.699 28.4886C310.207 28.3194 310.773 28.2347 311.398 28.2347C312.284 28.2347 313.042 28.3845 313.674 28.684C314.312 28.9769 314.8 29.3773 315.139 29.8851C315.477 30.3864 315.646 30.9528 315.646 31.5844H313.293C313.293 31.3044 313.221 31.044 313.078 30.8031C312.941 30.5557 312.733 30.3571 312.453 30.2074C312.173 30.0511 311.822 29.973 311.398 29.973C310.995 29.973 310.66 30.0381 310.393 30.1683C310.132 30.292 309.937 30.4548 309.807 30.6566C309.683 30.8584 309.621 31.0798 309.621 31.3207C309.621 31.4965 309.654 31.656 309.719 31.7992C309.79 31.9359 309.908 32.0629 310.07 32.1801C310.233 32.2907 310.454 32.3949 310.734 32.4926C311.021 32.5902 311.379 32.6846 311.809 32.7758C312.616 32.945 313.309 33.1631 313.889 33.4301C314.475 33.6905 314.924 34.029 315.236 34.4457C315.549 34.8558 315.705 35.3767 315.705 36.0082C315.705 36.4769 315.604 36.9066 315.402 37.2972C315.207 37.6814 314.921 38.0166 314.543 38.3031C314.165 38.583 313.713 38.8011 313.186 38.9574C312.665 39.1136 312.079 39.1918 311.428 39.1918C310.471 39.1918 309.66 39.0225 308.996 38.684C308.332 38.3389 307.827 37.8995 307.482 37.3656C307.144 36.8252 306.975 36.2653 306.975 35.6859H309.25C309.276 36.1221 309.396 36.4704 309.611 36.7308C309.833 36.9847 310.106 37.1703 310.432 37.2875C310.764 37.3982 311.105 37.4535 311.457 37.4535C311.88 37.4535 312.235 37.3982 312.521 37.2875C312.808 37.1703 313.026 37.014 313.176 36.8187C313.326 36.6169 313.4 36.389 313.4 36.1351ZM322.609 28.4301V30.1488H316.652V28.4301H322.609ZM318.371 25.8422H320.725V36.0765C320.725 36.4021 320.77 36.6527 320.861 36.8285C320.959 36.9978 321.092 37.1117 321.262 37.1703C321.431 37.2289 321.63 37.2582 321.857 37.2582C322.02 37.2582 322.176 37.2484 322.326 37.2289C322.476 37.2094 322.596 37.1898 322.688 37.1703L322.697 38.9672C322.502 39.0258 322.274 39.0778 322.014 39.1234C321.76 39.169 321.467 39.1918 321.135 39.1918C320.594 39.1918 320.116 39.0974 319.699 38.9086C319.283 38.7133 318.957 38.3975 318.723 37.9613C318.488 37.5251 318.371 36.9457 318.371 36.223V25.8422Z" fill="#444444"/>
<path d="M265.168 59.8773V54.8383C265.168 54.4607 265.1 54.1351 264.963 53.8617C264.826 53.5883 264.618 53.3767 264.338 53.2269C264.064 53.0772 263.719 53.0023 263.303 53.0023C262.919 53.0023 262.587 53.0674 262.307 53.1976C262.027 53.3278 261.809 53.5036 261.652 53.725C261.496 53.9463 261.418 54.197 261.418 54.4769H259.074C259.074 54.0603 259.175 53.6566 259.377 53.266C259.579 52.8754 259.872 52.5271 260.256 52.2211C260.64 51.9151 261.099 51.6742 261.633 51.4984C262.167 51.3226 262.766 51.2347 263.43 51.2347C264.224 51.2347 264.927 51.3682 265.539 51.6351C266.158 51.9021 266.643 52.3057 266.994 52.8461C267.352 53.3799 267.531 54.0505 267.531 54.8578V59.5551C267.531 60.0368 267.564 60.4698 267.629 60.8539C267.701 61.2315 267.801 61.5603 267.932 61.8402V61.9965H265.52C265.409 61.7426 265.321 61.4203 265.256 61.0297C265.197 60.6325 265.168 60.2484 265.168 59.8773ZM265.51 55.5707L265.529 57.0258H263.84C263.404 57.0258 263.02 57.0681 262.688 57.1527C262.355 57.2308 262.079 57.348 261.857 57.5043C261.636 57.6605 261.47 57.8493 261.359 58.0707C261.249 58.292 261.193 58.5427 261.193 58.8226C261.193 59.1026 261.258 59.3597 261.389 59.5941C261.519 59.822 261.708 60.001 261.955 60.1312C262.209 60.2614 262.515 60.3265 262.873 60.3265C263.355 60.3265 263.775 60.2289 264.133 60.0336C264.497 59.8317 264.784 59.5876 264.992 59.3011C265.201 59.0082 265.311 58.7315 265.324 58.4711L266.086 59.516C266.008 59.7829 265.874 60.0694 265.686 60.3754C265.497 60.6814 265.249 60.9743 264.943 61.2543C264.644 61.5277 264.283 61.7523 263.859 61.9281C263.443 62.1039 262.961 62.1918 262.414 62.1918C261.724 62.1918 261.109 62.0551 260.568 61.7816C260.028 61.5017 259.605 61.1273 259.299 60.6586C258.993 60.1833 258.84 59.6462 258.84 59.0472C258.84 58.4873 258.944 57.9926 259.152 57.5629C259.367 57.1267 259.68 56.7621 260.09 56.4691C260.507 56.1761 261.014 55.9548 261.613 55.8051C262.212 55.6488 262.896 55.5707 263.664 55.5707H265.51ZM272.326 53.6859V61.9965H269.973V51.4301H272.189L272.326 53.6859ZM271.906 56.3226L271.145 56.3129C271.151 55.5642 271.255 54.8773 271.457 54.2523C271.665 53.6273 271.952 53.0902 272.316 52.641C272.688 52.1918 273.13 51.8467 273.645 51.6058C274.159 51.3584 274.732 51.2347 275.363 51.2347C275.871 51.2347 276.33 51.3064 276.74 51.4496C277.157 51.5863 277.512 51.8109 277.805 52.1234C278.104 52.4359 278.332 52.8428 278.488 53.3441C278.645 53.8389 278.723 54.4476 278.723 55.1703V61.9965H276.359V55.1605C276.359 54.6527 276.285 54.2523 276.135 53.9594C275.992 53.6599 275.78 53.4483 275.5 53.3246C275.227 53.1944 274.885 53.1293 274.475 53.1293C274.071 53.1293 273.71 53.2139 273.391 53.3832C273.072 53.5524 272.801 53.7836 272.58 54.0765C272.365 54.3695 272.199 54.708 272.082 55.0922C271.965 55.4763 271.906 55.8864 271.906 56.3226ZM287.57 59.809V46.9965H289.934V61.9965H287.795L287.57 59.809ZM280.695 56.8304V56.6254C280.695 55.8246 280.79 55.0954 280.979 54.4379C281.167 53.7738 281.441 53.2041 281.799 52.7289C282.157 52.2471 282.593 51.8793 283.107 51.6254C283.622 51.3649 284.201 51.2347 284.846 51.2347C285.484 51.2347 286.044 51.3584 286.525 51.6058C287.007 51.8532 287.417 52.208 287.756 52.6703C288.094 53.126 288.365 53.6729 288.566 54.3109C288.768 54.9424 288.911 55.6455 288.996 56.4203V57.0746C288.911 57.8298 288.768 58.5199 288.566 59.1449C288.365 59.7699 288.094 60.3103 287.756 60.766C287.417 61.2217 287.004 61.5733 286.516 61.8207C286.034 62.0681 285.471 62.1918 284.826 62.1918C284.188 62.1918 283.612 62.0583 283.098 61.7914C282.59 61.5245 282.157 61.1501 281.799 60.6683C281.441 60.1866 281.167 59.6202 280.979 58.9691C280.79 58.3116 280.695 57.5987 280.695 56.8304ZM283.049 56.6254V56.8304C283.049 57.3122 283.091 57.7614 283.176 58.1781C283.267 58.5948 283.407 58.9626 283.596 59.2816C283.785 59.5941 284.029 59.8415 284.328 60.0238C284.634 60.1996 284.999 60.2875 285.422 60.2875C285.956 60.2875 286.395 60.1703 286.74 59.9359C287.085 59.7015 287.355 59.3858 287.551 58.9886C287.753 58.585 287.889 58.1358 287.961 57.641V55.8734C287.922 55.4893 287.84 55.1312 287.717 54.7992C287.6 54.4672 287.44 54.1774 287.238 53.9301C287.036 53.6761 286.786 53.4808 286.486 53.3441C286.193 53.2009 285.845 53.1293 285.441 53.1293C285.012 53.1293 284.647 53.2204 284.348 53.4027C284.048 53.585 283.801 53.8357 283.605 54.1547C283.417 54.4737 283.277 54.8448 283.186 55.2679C283.094 55.6911 283.049 56.1436 283.049 56.6254ZM299.738 53.4418V61.9965H297.385V51.4301H299.631L299.738 53.4418ZM302.971 51.3617L302.951 53.5492C302.808 53.5232 302.652 53.5036 302.482 53.4906C302.32 53.4776 302.157 53.4711 301.994 53.4711C301.59 53.4711 301.236 53.5297 300.93 53.6469C300.624 53.7575 300.367 53.9203 300.158 54.1351C299.956 54.3435 299.8 54.5974 299.689 54.8969C299.579 55.1963 299.514 55.5316 299.494 55.9027L298.957 55.9418C298.957 55.2777 299.022 54.6625 299.152 54.0961C299.283 53.5297 299.478 53.0316 299.738 52.6019C300.005 52.1722 300.337 51.837 300.734 51.5961C301.138 51.3552 301.604 51.2347 302.131 51.2347C302.274 51.2347 302.427 51.2478 302.59 51.2738C302.759 51.2998 302.886 51.3291 302.971 51.3617ZM308.908 62.1918C308.127 62.1918 307.421 62.0648 306.789 61.8109C306.164 61.5505 305.63 61.1892 305.188 60.7269C304.751 60.2647 304.416 59.7211 304.182 59.0961C303.947 58.4711 303.83 57.7972 303.83 57.0746V56.684C303.83 55.8571 303.951 55.1084 304.191 54.4379C304.432 53.7673 304.768 53.1944 305.197 52.7191C305.627 52.2373 306.135 51.8695 306.721 51.6156C307.307 51.3617 307.941 51.2347 308.625 51.2347C309.38 51.2347 310.041 51.3617 310.607 51.6156C311.174 51.8695 311.643 52.2276 312.014 52.6898C312.391 53.1455 312.671 53.6892 312.854 54.3207C313.042 54.9522 313.137 55.6488 313.137 56.4105V57.4164H304.973V55.7269H310.812V55.5414C310.799 55.1182 310.715 54.7211 310.559 54.35C310.409 53.9789 310.178 53.6794 309.865 53.4515C309.553 53.2237 309.136 53.1097 308.615 53.1097C308.225 53.1097 307.876 53.1944 307.57 53.3636C307.271 53.5264 307.02 53.764 306.818 54.0765C306.617 54.389 306.46 54.7666 306.35 55.2094C306.245 55.6455 306.193 56.1371 306.193 56.684V57.0746C306.193 57.5368 306.255 57.9665 306.379 58.3636C306.509 58.7543 306.698 59.0961 306.945 59.389C307.193 59.682 307.492 59.9131 307.844 60.0824C308.195 60.2452 308.596 60.3265 309.045 60.3265C309.611 60.3265 310.116 60.2126 310.559 59.9847C311.001 59.7569 311.385 59.4346 311.711 59.0179L312.951 60.2191C312.723 60.5511 312.427 60.8702 312.062 61.1761C311.698 61.4756 311.252 61.7198 310.725 61.9086C310.204 62.0974 309.598 62.1918 308.908 62.1918ZM317.492 46.9965V61.9965H315.129V46.9965H317.492ZM322.59 51.4301V61.9965H320.227V51.4301H322.59ZM320.07 48.6566C320.07 48.2985 320.188 48.0023 320.422 47.7679C320.663 47.5271 320.995 47.4066 321.418 47.4066C321.835 47.4066 322.163 47.5271 322.404 47.7679C322.645 48.0023 322.766 48.2985 322.766 48.6566C322.766 49.0082 322.645 49.3011 322.404 49.5355C322.163 49.7699 321.835 49.8871 321.418 49.8871C320.995 49.8871 320.663 49.7699 320.422 49.5355C320.188 49.3011 320.07 49.0082 320.07 48.6566ZM331.125 59.8773V54.8383C331.125 54.4607 331.057 54.1351 330.92 53.8617C330.783 53.5883 330.575 53.3767 330.295 53.2269C330.021 53.0772 329.676 53.0023 329.26 53.0023C328.876 53.0023 328.544 53.0674 328.264 53.1976C327.984 53.3278 327.766 53.5036 327.609 53.725C327.453 53.9463 327.375 54.197 327.375 54.4769H325.031C325.031 54.0603 325.132 53.6566 325.334 53.266C325.536 52.8754 325.829 52.5271 326.213 52.2211C326.597 51.9151 327.056 51.6742 327.59 51.4984C328.124 51.3226 328.723 51.2347 329.387 51.2347C330.181 51.2347 330.884 51.3682 331.496 51.6351C332.115 51.9021 332.6 52.3057 332.951 52.8461C333.309 53.3799 333.488 54.0505 333.488 54.8578V59.5551C333.488 60.0368 333.521 60.4698 333.586 60.8539C333.658 61.2315 333.758 61.5603 333.889 61.8402V61.9965H331.477C331.366 61.7426 331.278 61.4203 331.213 61.0297C331.154 60.6325 331.125 60.2484 331.125 59.8773ZM331.467 55.5707L331.486 57.0258H329.797C329.361 57.0258 328.977 57.0681 328.645 57.1527C328.312 57.2308 328.036 57.348 327.814 57.5043C327.593 57.6605 327.427 57.8493 327.316 58.0707C327.206 58.292 327.15 58.5427 327.15 58.8226C327.15 59.1026 327.215 59.3597 327.346 59.5941C327.476 59.822 327.665 60.001 327.912 60.1312C328.166 60.2614 328.472 60.3265 328.83 60.3265C329.312 60.3265 329.732 60.2289 330.09 60.0336C330.454 59.8317 330.741 59.5876 330.949 59.3011C331.158 59.0082 331.268 58.7315 331.281 58.4711L332.043 59.516C331.965 59.7829 331.831 60.0694 331.643 60.3754C331.454 60.6814 331.206 60.9743 330.9 61.2543C330.601 61.5277 330.24 61.7523 329.816 61.9281C329.4 62.1039 328.918 62.1918 328.371 62.1918C327.681 62.1918 327.066 62.0551 326.525 61.7816C325.985 61.5017 325.562 61.1273 325.256 60.6586C324.95 60.1833 324.797 59.6462 324.797 59.0472C324.797 58.4873 324.901 57.9926 325.109 57.5629C325.324 57.1267 325.637 56.7621 326.047 56.4691C326.464 56.1761 326.971 55.9548 327.57 55.8051C328.169 55.6488 328.853 55.5707 329.621 55.5707H331.467ZM335.959 46.9965H338.312V59.7406L338.088 61.9965H335.959V46.9965ZM345.207 56.6156V56.8207C345.207 57.6019 345.119 58.3213 344.943 58.9789C344.774 59.6299 344.514 60.1963 344.162 60.6781C343.817 61.1599 343.387 61.5342 342.873 61.8011C342.365 62.0616 341.776 62.1918 341.105 62.1918C340.448 62.1918 339.875 62.0681 339.387 61.8207C338.898 61.5733 338.488 61.2217 338.156 60.766C337.831 60.3103 337.567 59.7666 337.365 59.1351C337.163 58.5036 337.02 57.807 336.936 57.0453V56.391C337.02 55.6228 337.163 54.9261 337.365 54.3011C337.567 53.6696 337.831 53.126 338.156 52.6703C338.488 52.208 338.895 51.8532 339.377 51.6058C339.865 51.3584 340.435 51.2347 341.086 51.2347C341.763 51.2347 342.359 51.3649 342.873 51.6254C343.394 51.8858 343.827 52.2569 344.172 52.7386C344.517 53.2139 344.774 53.7803 344.943 54.4379C345.119 55.0954 345.207 55.8213 345.207 56.6156ZM342.854 56.8207V56.6156C342.854 56.1403 342.814 55.6944 342.736 55.2777C342.658 54.8545 342.528 54.4834 342.346 54.1644C342.17 53.8454 341.929 53.5948 341.623 53.4125C341.324 53.2237 340.949 53.1293 340.5 53.1293C340.083 53.1293 339.725 53.2009 339.426 53.3441C339.126 53.4873 338.876 53.6827 338.674 53.9301C338.472 54.1774 338.312 54.4639 338.195 54.7894C338.085 55.1149 338.01 55.4665 337.971 55.8441V57.6117C338.029 58.1 338.153 58.5492 338.342 58.9594C338.537 59.363 338.811 59.6885 339.162 59.9359C339.514 60.1768 339.966 60.2972 340.52 60.2972C340.956 60.2972 341.324 60.2094 341.623 60.0336C341.923 59.8578 342.16 59.6136 342.336 59.3011C342.518 58.9821 342.648 58.611 342.727 58.1879C342.811 57.7647 342.854 57.309 342.854 56.8207ZM349.719 51.4301V61.9965H347.355V51.4301H349.719ZM347.199 48.6566C347.199 48.2985 347.316 48.0023 347.551 47.7679C347.792 47.5271 348.124 47.4066 348.547 47.4066C348.964 47.4066 349.292 47.5271 349.533 47.7679C349.774 48.0023 349.895 48.2985 349.895 48.6566C349.895 49.0082 349.774 49.3011 349.533 49.5355C349.292 49.7699 348.964 49.8871 348.547 49.8871C348.124 49.8871 347.792 49.7699 347.551 49.5355C347.316 49.3011 347.199 49.0082 347.199 48.6566ZM354.816 46.9965V61.9965H352.453V46.9965H354.816ZM359.914 51.4301V61.9965H357.551V51.4301H359.914ZM357.395 48.6566C357.395 48.2985 357.512 48.0023 357.746 47.7679C357.987 47.5271 358.319 47.4066 358.742 47.4066C359.159 47.4066 359.488 47.5271 359.729 47.7679C359.969 48.0023 360.09 48.2985 360.09 48.6566C360.09 49.0082 359.969 49.3011 359.729 49.5355C359.488 49.7699 359.159 49.8871 358.742 49.8871C358.319 49.8871 357.987 49.7699 357.746 49.5355C357.512 49.3011 357.395 49.0082 357.395 48.6566ZM367.336 51.4301V53.1488H361.379V51.4301H367.336ZM363.098 48.8422H365.451V59.0765C365.451 59.4021 365.497 59.6527 365.588 59.8285C365.686 59.9978 365.819 60.1117 365.988 60.1703C366.158 60.2289 366.356 60.2582 366.584 60.2582C366.747 60.2582 366.903 60.2484 367.053 60.2289C367.202 60.2094 367.323 60.1898 367.414 60.1703L367.424 61.9672C367.229 62.0258 367.001 62.0778 366.74 62.1234C366.486 62.169 366.193 62.1918 365.861 62.1918C365.321 62.1918 364.842 62.0974 364.426 61.9086C364.009 61.7133 363.684 61.3975 363.449 60.9613C363.215 60.5251 363.098 59.9457 363.098 59.223V48.8422ZM372.219 60.8441L375.09 51.4301H377.609L373.371 63.6078C373.273 63.8682 373.146 64.1514 372.99 64.4574C372.834 64.7634 372.629 65.0531 372.375 65.3265C372.128 65.6065 371.818 65.8311 371.447 66.0004C371.076 66.1761 370.627 66.264 370.1 66.264C369.891 66.264 369.689 66.2445 369.494 66.2054C369.305 66.1729 369.126 66.1371 368.957 66.098L368.947 64.3011C369.012 64.3077 369.09 64.3142 369.182 64.3207C369.279 64.3272 369.357 64.3304 369.416 64.3304C369.807 64.3304 370.132 64.2816 370.393 64.184C370.653 64.0928 370.865 63.9431 371.027 63.7347C371.197 63.5264 371.34 63.2465 371.457 62.8949L372.219 60.8441ZM370.598 51.4301L373.107 59.3402L373.527 61.8207L371.896 62.2406L368.059 51.4301H370.598Z" fill="#444444"/>
<path d="M126.776 60.9965V58.6445H128.6C129.176 58.6445 129.704 58.5805 130.184 58.4525C130.664 58.3245 131.048 58.0525 131.336 57.6365C131.656 57.1885 131.816 56.5165 131.816 55.6205V48.0365L122.936 31.6205C122.616 30.9805 122.296 30.4845 121.976 30.1325C121.688 29.7485 121.352 29.4765 120.968 29.3165C120.616 29.1565 120.136 29.0765 119.528 29.0765H118.904V26.7245H133.88V29.0765H132.728C131.8 29.0765 131.128 29.2685 130.712 29.6525C130.328 30.0045 130.136 30.4525 130.136 30.9965C130.136 31.4125 130.216 31.8605 130.376 32.3405C130.536 32.7885 130.712 33.2045 130.904 33.5885L134.456 40.4045C134.712 40.9165 134.952 41.4125 135.176 41.8925C135.4 42.3405 135.592 42.7725 135.752 43.1885C135.944 43.6045 136.104 44.0205 136.232 44.4365C136.392 44.8205 136.536 45.2045 136.664 45.5885C136.984 44.8205 137.384 43.9405 137.864 42.9485C138.344 41.9565 138.856 40.9325 139.4 39.8765L142.28 34.2125C142.6 33.5725 142.808 33.0125 142.904 32.5325C143.032 32.0205 143.096 31.6205 143.096 31.3325C143.096 30.5325 142.84 29.9565 142.328 29.6045C141.816 29.2525 141.048 29.0765 140.024 29.0765H138.824V26.7245H151.064V29.0765H150.296C149.784 29.0765 149.336 29.1885 148.952 29.4125C148.6 29.6045 148.232 29.9725 147.848 30.5165C147.496 31.0605 147.048 31.8285 146.504 32.8205L138.392 48.0845V55.4765C138.392 56.4365 138.536 57.1405 138.824 57.5885C139.112 58.0365 139.496 58.3245 139.976 58.4525C140.456 58.5805 140.984 58.6445 141.56 58.6445H143.432V60.9965H126.776ZM161.993 61.4765C158.153 61.4765 155.193 60.3245 153.113 58.0205C151.065 55.6845 150.041 52.4365 150.041 48.2765C150.041 43.7965 151.033 40.4205 153.017 38.1485C155.033 35.8445 157.849 34.6925 161.465 34.6925C164.825 34.6925 167.449 35.6685 169.337 37.6205C171.257 39.5405 172.217 42.4045 172.217 46.2125V48.5645H156.377C156.441 50.8045 156.729 52.6285 157.241 54.0365C157.785 55.4125 158.537 56.4365 159.497 57.1085C160.489 57.7805 161.689 58.1165 163.097 58.1165C164.217 58.1165 165.209 57.9565 166.073 57.6365C166.969 57.2845 167.737 56.8365 168.377 56.2925C169.017 55.7165 169.529 55.0925 169.913 54.4205C170.265 54.5805 170.537 54.8525 170.729 55.2365C170.953 55.5885 171.065 56.0045 171.065 56.4845C171.065 57.2845 170.729 58.0685 170.057 58.8365C169.417 59.6045 168.425 60.2445 167.081 60.7565C165.769 61.2365 164.073 61.4765 161.993 61.4765ZM165.833 45.6845C165.833 44.0525 165.689 42.6285 165.401 41.4125C165.113 40.1965 164.649 39.2685 164.009 38.6285C163.401 37.9565 162.569 37.6205 161.513 37.6205C160.489 37.6205 159.609 37.9245 158.873 38.5325C158.169 39.1405 157.609 40.0525 157.193 41.2685C156.809 42.4525 156.569 43.9245 156.473 45.6845H165.833ZM184.103 61.4765C182.695 61.4765 181.415 61.2045 180.263 60.6605C179.143 60.0845 178.247 59.2205 177.575 58.0685C176.935 56.9165 176.615 55.4605 176.615 53.7005C176.615 51.1405 177.511 49.2365 179.303 47.9885C181.095 46.7405 183.799 46.0525 187.415 45.9245L191.399 45.7805V43.0445C191.399 41.9565 191.319 40.9965 191.159 40.1645C190.999 39.3005 190.663 38.6285 190.151 38.1485C189.671 37.6685 188.903 37.4285 187.847 37.4285C186.887 37.4285 186.135 37.6525 185.591 38.1005C185.047 38.5485 184.679 39.1725 184.487 39.9725C184.295 40.7405 184.199 41.6205 184.199 42.6125C182.343 42.6125 180.951 42.3885 180.023 41.9405C179.095 41.4605 178.631 40.6445 178.631 39.4925C178.631 38.3405 179.047 37.4125 179.879 36.7085C180.743 36.0045 181.895 35.4925 183.335 35.1725C184.775 34.8525 186.343 34.6925 188.039 34.6925C191.239 34.6925 193.639 35.3165 195.239 36.5645C196.839 37.7805 197.639 39.8925 197.639 42.9005V55.2365C197.639 56.1005 197.719 56.7885 197.879 57.3005C198.071 57.7805 198.391 58.1325 198.839 58.3565C199.287 58.5485 199.863 58.6445 200.567 58.6445H200.711V60.9965H192.743L191.783 57.3965H191.399C190.695 58.2605 190.023 58.9965 189.383 59.6045C188.775 60.2125 188.055 60.6765 187.223 60.9965C186.423 61.3165 185.383 61.4765 184.103 61.4765ZM186.167 58.1645C187.255 58.1645 188.183 57.9085 188.951 57.3965C189.719 56.8845 190.311 56.1485 190.727 55.1885C191.175 54.2285 191.399 53.1085 191.399 51.8285V48.1325L188.903 48.2765C187.399 48.3405 186.215 48.5965 185.351 49.0445C184.519 49.4925 183.911 50.1165 183.527 50.9165C183.175 51.7165 182.999 52.7085 182.999 53.8925C182.999 54.8525 183.111 55.6525 183.335 56.2925C183.559 56.9005 183.911 57.3645 184.391 57.6845C184.871 58.0045 185.463 58.1645 186.167 58.1645ZM203.638 60.9965V58.6445H203.782C204.518 58.6445 205.158 58.5645 205.702 58.4045C206.278 58.2445 206.726 57.9245 207.046 57.4445C207.398 56.9325 207.574 56.1805 207.574 55.1885V40.8845C207.574 39.9245 207.414 39.2205 207.094 38.7725C206.774 38.2925 206.342 37.9885 205.798 37.8605C205.254 37.7005 204.63 37.6205 203.926 37.6205H203.782V35.2685H212.614L213.526 39.3965H213.766C214.182 38.4365 214.646 37.6045 215.158 36.9005C215.702 36.1965 216.39 35.6685 217.222 35.3165C218.054 34.9325 219.142 34.7405 220.486 34.7405C222.31 34.7405 223.654 35.0605 224.518 35.7005C225.414 36.3405 225.862 37.2685 225.862 38.4845C225.862 39.7645 225.398 40.7885 224.47 41.5565C223.542 42.2925 222.182 42.6605 220.39 42.6605C220.39 41.7645 220.31 41.0445 220.15 40.5005C220.022 39.9245 219.782 39.4925 219.43 39.2045C219.078 38.9165 218.598 38.7725 217.99 38.7725C217.126 38.7725 216.422 39.0925 215.878 39.7325C215.334 40.3405 214.902 41.1085 214.582 42.0365C214.294 42.9645 214.086 43.9245 213.958 44.9165C213.862 45.9085 213.814 46.7405 213.814 47.4125V55.4285C213.814 56.3565 213.974 57.0605 214.294 57.5405C214.614 57.9885 215.046 58.2925 215.59 58.4525C216.134 58.5805 216.726 58.6445 217.366 58.6445H218.854V60.9965H203.638ZM237.282 61.4765C235.234 61.4765 233.538 61.2525 232.194 60.8045C230.882 60.3565 229.906 59.7325 229.266 58.9325C228.626 58.1005 228.306 57.1405 228.306 56.0525C228.306 55.0605 228.53 54.3245 228.978 53.8445C229.426 53.3325 229.954 52.9965 230.562 52.8365C231.17 52.6445 231.714 52.5485 232.194 52.5485C232.194 53.7965 232.386 54.9005 232.77 55.8605C233.186 56.7885 233.778 57.5245 234.546 58.0685C235.314 58.5805 236.258 58.8365 237.378 58.8365C239.074 58.8365 240.322 58.4845 241.122 57.7805C241.922 57.0765 242.322 56.1965 242.322 55.1405C242.322 54.4045 242.146 53.7805 241.794 53.2685C241.474 52.7565 240.882 52.2605 240.018 51.7805C239.154 51.3005 237.954 50.7725 236.418 50.1965C234.754 49.5565 233.346 48.8845 232.194 48.1805C231.042 47.4445 230.178 46.5965 229.602 45.6365C229.026 44.6765 228.738 43.4765 228.738 42.0365C228.738 39.6365 229.634 37.8285 231.426 36.6125C233.218 35.3645 235.586 34.7405 238.53 34.7405C240.386 34.7405 241.89 34.9485 243.042 35.3645C244.194 35.7805 245.042 36.3405 245.586 37.0445C246.13 37.7165 246.402 38.4365 246.402 39.2045C246.402 40.1965 246.05 40.9645 245.346 41.5085C244.674 42.0525 243.586 42.3245 242.082 42.3245C242.082 40.7245 241.73 39.4925 241.026 38.6285C240.322 37.7325 239.266 37.2845 237.858 37.2845C237.058 37.2845 236.338 37.4125 235.698 37.6685C235.09 37.9245 234.61 38.3085 234.258 38.8205C233.906 39.3005 233.73 39.8925 233.73 40.5965C233.73 41.3005 233.922 41.9245 234.306 42.4685C234.69 42.9805 235.346 43.4765 236.274 43.9565C237.202 44.4365 238.466 44.9645 240.066 45.5405C241.602 46.1165 242.898 46.7565 243.954 47.4605C245.042 48.1325 245.874 48.9485 246.45 49.9085C247.026 50.8685 247.314 52.0205 247.314 53.3645C247.314 55.9565 246.418 57.9565 244.626 59.3645C242.866 60.7725 240.418 61.4765 237.282 61.4765Z" fill="#444444"/>
<path d="M125.054 16V9.32401H118V6.67599H125.054V0H127.907V6.67599H135V9.32401H127.907V16H125.054Z" fill="#444444"/>
<path d="M15.4365 61.1279V56.9329H17.833C19.1453 56.9329 20.315 56.7902 21.342 56.5048C22.4261 56.2194 23.282 55.6487 23.9096 54.7925C24.5372 53.8793 24.8511 52.5381 24.8511 50.7687V44.8614H0.202148V40.3239L25.279 0H35.7206V39.5534H45.3062V44.8614H35.7206V50.7687C35.7206 52.5381 36.0344 53.8793 36.662 54.7925C37.2896 55.6487 38.1455 56.2194 39.2296 56.5048C40.3137 56.7902 41.4834 56.9329 42.7387 56.9329H43.8513V61.1279H15.4365ZM6.1932 39.5534H24.8511V24.2286C24.8511 22.9729 24.8511 21.6602 24.8511 20.2904C24.9081 18.8635 24.9367 17.408 24.9367 15.9241C24.9937 14.4401 25.0508 12.9847 25.1078 11.5578C25.2219 10.0738 25.3361 8.67549 25.4502 7.36275C25.1649 7.99058 24.7084 8.87525 24.0808 10.0168C23.5102 11.1583 22.854 12.3854 22.1123 13.6981C21.3706 15.0109 20.6573 16.238 19.9726 17.3795C19.2879 18.4639 18.7459 19.3201 18.3465 19.9479L6.1932 39.5534Z" fill="#444444"/>
<path fill-rule="evenodd" clip-rule="evenodd" d="M88.599 31.7765C85.3513 34.7414 81.0287 36.5503 76.2829 36.5503C66.1946 36.5503 58.0166 28.378 58.0166 18.2969C58.0166 9.23223 64.629 1.71223 73.2964 0.28772C67.0696 2.97535 62.7113 9.16625 62.7113 16.3753C62.7113 26.0497 70.5594 33.8923 80.2407 33.8923C83.2672 33.8923 86.1146 33.1259 88.599 31.7765Z" fill="#E9C29F"/>
<path fill-rule="evenodd" clip-rule="evenodd" d="M95.6042 27.7429C95.5364 40.4188 85.2339 50.6737 72.5328 50.6737C59.7899 50.6737 49.46 40.3511 49.46 27.6171C49.46 22.0731 51.4184 16.9867 54.681 13.0098C53.5895 15.6026 52.986 18.4509 52.986 21.4402C52.986 33.4572 62.7341 43.1984 74.7595 43.1984C84.5915 43.1984 92.9 36.6861 95.6042 27.7429Z" fill="#D0A379"/>
<path fill-rule="evenodd" clip-rule="evenodd" d="M84.8527 0.266968C99.4503 2.66092 110.588 15.3237 110.588 30.5889C110.588 47.5614 96.82 61.3199 79.8354 61.3199C71.1416 61.3199 63.2915 57.7139 57.6982 51.9183C61.9046 54.2652 66.7506 55.6044 71.9106 55.6044C88.0367 55.6044 101.109 42.5415 101.109 26.4269C101.109 14.9568 94.4852 5.03483 84.8527 0.266968Z" fill="#9E7E60"/>
</svg>
