<svg width="26" height="26" viewBox="0 0 26 26" fill="none" xmlns="http://www.w3.org/2000/svg">
<path d="M21.8871 15.4987C21.3197 14.9104 20.6352 14.5959 19.9097 14.5959C19.1901 14.5959 18.4997 14.9046 17.9088 15.4928L16.0601 17.3275C15.908 17.246 15.7559 17.1703 15.6096 17.0945C15.399 16.9897 15.2001 16.8907 15.0304 16.7858C13.2987 15.6909 11.7249 14.2639 10.2155 12.4176C9.48422 11.4973 8.99279 10.7227 8.63591 9.93638C9.11565 9.49955 9.56028 9.04525 9.99321 8.60842C10.157 8.44534 10.3208 8.27643 10.4846 8.11335C11.7132 6.89023 11.7132 5.306 10.4846 4.08289L8.88748 2.49283C8.70612 2.31228 8.5189 2.1259 8.34339 1.93952C7.99236 1.57841 7.62379 1.20565 7.24351 0.856183C6.67602 0.297043 5.99737 0 5.28361 0C4.56986 0 3.87951 0.297043 3.29447 0.856183C3.28862 0.862007 3.28862 0.862007 3.28277 0.867832L1.29362 2.86559C0.544762 3.61111 0.117681 4.51971 0.0240737 5.57393C-0.116337 7.27464 0.386801 8.85887 0.772929 9.89561C1.7207 12.4409 3.1365 14.7997 5.24851 17.3275C7.811 20.3737 10.8942 22.7791 14.4161 24.474C15.7617 25.1089 17.5578 25.8602 19.5645 25.9884C19.6874 25.9942 19.8161 26 19.9331 26C21.2845 26 22.4195 25.5166 23.3088 24.5556C23.3146 24.5439 23.3264 24.5381 23.3322 24.5264C23.6364 24.1595 23.9874 23.8275 24.356 23.4722C24.6076 23.2334 24.865 22.983 25.1166 22.7209C25.6958 22.121 26 21.422 26 20.7056C26 19.9834 25.6899 19.2903 25.099 18.7079L21.8871 15.4987ZM23.9816 21.6317C23.9757 21.6317 23.9757 21.6375 23.9816 21.6317C23.7534 21.8763 23.5194 22.0977 23.2678 22.3423C22.8876 22.7034 22.5014 23.082 22.1387 23.5072C21.5478 24.1362 20.8516 24.4332 19.9389 24.4332C19.8512 24.4332 19.7576 24.4332 19.6698 24.4274C17.9323 24.3168 16.3175 23.6411 15.1065 23.0645C11.7951 21.4686 8.88748 19.203 6.47125 16.3315C4.47625 13.9377 3.14235 11.7245 2.25894 9.34812C1.71485 7.89785 1.51593 6.76792 1.60369 5.70206C1.6622 5.02061 1.92546 4.45565 2.41105 3.97222L4.40605 1.98611C4.69272 1.71819 4.99694 1.57258 5.29531 1.57258C5.66389 1.57258 5.96226 1.79391 6.14948 1.98029C6.15533 1.98611 6.16118 1.99194 6.16703 1.99776C6.52391 2.32975 6.86323 2.67339 7.22011 3.04032C7.40147 3.2267 7.58868 3.41308 7.7759 3.60529L9.37307 5.19534C9.99321 5.81272 9.99321 6.38351 9.37307 7.0009C9.2034 7.1698 9.03959 7.33871 8.86993 7.50179C8.37849 8.00269 7.91046 8.46864 7.40147 8.92294C7.38977 8.93459 7.37807 8.94041 7.37222 8.95206C6.86908 9.45296 6.96269 9.9422 7.068 10.2742C7.07385 10.2917 7.0797 10.3091 7.08555 10.3266C7.50093 11.3284 8.08597 12.272 8.97524 13.3961L8.98109 13.4019C10.5958 15.3822 12.2983 16.9256 14.1763 18.108C14.4161 18.2594 14.6619 18.3817 14.8959 18.4982C15.1065 18.603 15.3054 18.7021 15.4751 18.8069C15.4985 18.8185 15.5219 18.836 15.5453 18.8477C15.7442 18.9467 15.9314 18.9933 16.1245 18.9933C16.6101 18.9933 16.9143 18.6904 17.0137 18.5914L19.0146 16.5995C19.2135 16.4014 19.5294 16.1626 19.898 16.1626C20.2607 16.1626 20.5591 16.3898 20.7405 16.5878C20.7463 16.5936 20.7463 16.5936 20.7522 16.5995L23.9757 19.8087C24.5783 20.4028 24.5783 21.0143 23.9816 21.6317Z" fill="#64544A"/>
</svg>
