<svg width="29" height="28" viewBox="0 0 29 28" fill="none" xmlns="http://www.w3.org/2000/svg">
<path d="M10.5454 20.186H23.7272C24.0074 20.186 24.2568 20.0112 24.3494 19.7501L28.9631 6.72684C29.0336 6.52758 29.0019 6.30684 28.8784 6.13493C28.7548 5.96302 28.5544 5.86047 28.3409 5.86047H24.0235C23.6917 2.57437 20.8777 0 17.4659 0C14.0541 0 11.2401 2.57437 10.9083 5.86047H6.96131L5.5469 1.9473C5.26613 1.17209 4.51806 0.651163 3.68464 0.651163H0.65909C0.295272 0.651163 0 0.942884 0 1.30233C0 1.66177 0.295272 1.95349 0.65909 1.95349H3.68464C3.96245 1.95349 4.21192 2.12702 4.30551 2.38553L10.2742 18.8974C8.94748 19.0322 7.90908 20.1427 7.90908 21.4884C7.90908 22.9245 9.09182 24.093 10.5454 24.093H11.2316C11.0061 24.4766 10.875 24.9207 10.875 25.3953C10.875 26.8315 12.0577 28 13.5113 28C14.965 28 16.1477 26.8315 16.1477 25.3953C16.1477 24.9207 16.0165 24.4766 15.7911 24.093H19.8001C19.5743 24.4766 19.4432 24.9207 19.4432 25.3953C19.4432 26.8315 20.6259 28 22.0795 28C23.5331 28 24.7159 26.8315 24.7159 25.3953C24.7159 23.9592 23.5331 22.7907 22.0795 22.7907H10.5454C9.81847 22.7907 9.22726 22.2066 9.22726 21.4884C9.22726 20.7701 9.81847 20.186 10.5454 20.186ZM17.4659 1.30233C20.3731 1.30233 22.7386 3.63935 22.7386 6.51163C22.7386 9.38391 20.3731 11.7209 17.4659 11.7209C14.5586 11.7209 12.1932 9.38391 12.1932 6.51163C12.1932 3.63935 14.5586 1.30233 17.4659 1.30233ZM10.9083 7.16279C11.2401 10.4489 14.0541 13.0233 17.4659 13.0233C20.8777 13.0233 23.6917 10.4489 24.0235 7.16279H27.4119L23.2596 18.8837H11.6689L7.4319 7.16279H10.9083ZM14.8295 25.3953C14.8295 26.1136 14.2383 26.6977 13.5113 26.6977C12.7844 26.6977 12.1932 26.1136 12.1932 25.3953C12.1932 24.6771 12.7844 24.093 13.5113 24.093C14.2383 24.093 14.8295 24.6771 14.8295 25.3953ZM23.3977 25.3953C23.3977 26.1136 22.8065 26.6977 22.0795 26.6977C21.3525 26.6977 20.7613 26.1136 20.7613 25.3953C20.7613 24.6771 21.3525 24.093 22.0795 24.093C22.8065 24.093 23.3977 24.6771 23.3977 25.3953ZM14.8295 6.51163C14.8295 6.15219 15.1248 5.86047 15.4886 5.86047H16.8068V4.55814C16.8068 4.1987 17.1021 3.90698 17.4659 3.90698C17.8297 3.90698 18.125 4.1987 18.125 4.55814V5.86047H19.4432C19.807 5.86047 20.1022 6.15219 20.1022 6.51163C20.1022 6.87107 19.807 7.16279 19.4432 7.16279H18.125V8.46512C18.125 8.82456 17.8297 9.11628 17.4659 9.11628C17.1021 9.11628 16.8068 8.82456 16.8068 8.46512V7.16279H15.4886C15.1248 7.16279 14.8295 6.87107 14.8295 6.51163Z" fill="black"/>
</svg>
