<svg width="10" height="10" viewBox="0 0 10 10" fill="none" xmlns="http://www.w3.org/2000/svg">
<path d="M5.55221 5.001L9.88535 0.667837C10.0379 0.515278 10.0379 0.267935 9.88535 0.115395C9.73279 -0.0371436 9.48545 -0.0371631 9.33291 0.115395L4.99975 4.44856L0.666615 0.115395C0.514057 -0.0371631 0.266713 -0.0371631 0.114175 0.115395C-0.0383642 0.267954 -0.0383837 0.515298 0.114175 0.667837L4.44731 5.00098L0.114175 9.33414C-0.0383837 9.4867 -0.0383837 9.73405 0.114175 9.88659C0.190444 9.96285 0.290424 10.001 0.390405 10.001C0.490385 10.001 0.590346 9.96285 0.666635 9.88659L4.99975 5.55344L9.33289 9.88659C9.40916 9.96285 9.50914 10.001 9.60912 10.001C9.7091 10.001 9.80906 9.96285 9.88535 9.88659C10.0379 9.73403 10.0379 9.48668 9.88535 9.33414L5.55221 5.001Z" fill="white"/>
</svg>
