<svg width="28" height="22" viewBox="0 0 28 22" fill="none" xmlns="http://www.w3.org/2000/svg">
<path d="M24.6452 18.629C24.5059 18.629 24.367 18.5741 24.263 18.4654L17.5199 11.3955C17.3187 11.1843 17.3267 10.8501 17.5373 10.6489C17.7485 10.4478 18.0822 10.4557 18.2838 10.6663L25.0275 17.7363C25.2286 17.9474 25.2207 18.2816 25.0101 18.4828C24.9076 18.5805 24.7762 18.629 24.6452 18.629Z" fill="#64544A" stroke="#64544A" stroke-width="0.5"/>
<path d="M3.75142 18.6291C3.62048 18.6291 3.48902 18.5805 3.38712 18.4834C3.17647 18.2823 3.16802 17.9481 3.3697 17.7369L10.1133 10.6669C10.3145 10.4563 10.6487 10.4484 10.8599 10.6495C11.0705 10.8507 11.079 11.1849 10.8773 11.3961L4.13366 18.4655C4.03018 18.5742 3.8908 18.6291 3.75142 18.6291Z" fill="#64544A" stroke="#64544A" stroke-width="0.5"/>
<path d="M14.1991 12.9487C12.9716 12.9487 11.7441 12.5723 10.6966 11.8194C10.4596 11.6494 10.4057 11.3194 10.5757 11.0824C10.7463 10.8458 11.0757 10.792 11.3128 10.9615C13.0397 12.2027 15.3596 12.2022 17.086 10.9615C17.3231 10.792 17.6525 10.8458 17.8231 11.0824C17.9931 11.3189 17.9392 11.6489 17.7022 11.8194C16.6542 12.5723 15.4266 12.9487 14.1991 12.9487Z" fill="#64544A" stroke="#64544A" stroke-width="0.5"/>
<path d="M17.3937 11.9188C17.2279 11.9188 17.0648 11.8412 16.9618 11.6955C16.7939 11.4573 16.8504 11.1279 17.0885 10.9595L26.5649 4.26441C26.803 4.09652 27.1325 4.15354 27.3009 4.39112C27.4688 4.62923 27.4123 4.95868 27.1742 5.12709L17.6978 11.8222C17.6054 11.8876 17.4988 11.9188 17.3937 11.9188Z" fill="#64544A" stroke="#64544A" stroke-width="0.5"/>
<path d="M11.0038 11.9188C10.8987 11.9188 10.7921 11.8871 10.6997 11.8222L1.2233 5.12709C0.985185 4.95868 0.928694 4.62923 1.09659 4.39112C1.26448 4.15354 1.59392 4.09652 1.83256 4.26441L11.3089 10.9595C11.547 11.1279 11.6035 11.4573 11.4356 11.6955C11.3327 11.8412 11.1695 11.9188 11.0038 11.9188Z" fill="#64544A" stroke="#64544A" stroke-width="0.5"/>
<path d="M24.7577 21.0625H3.63929C3.34785 21.0625 3.11133 20.826 3.11133 20.5346C3.11133 20.2431 3.34785 20.0066 3.63929 20.0066H24.7577C25.0491 20.0066 25.2857 20.2431 25.2857 20.5346C25.2857 20.826 25.0491 21.0625 24.7577 21.0625Z" fill="#64544A" stroke="#64544A" stroke-width="0.5"/>
<path d="M24.7577 2.05592H3.63929C3.34785 2.05592 3.11133 1.81939 3.11133 1.52796C3.11133 1.23653 3.34785 1 3.63929 1H24.7577C25.0491 1 25.2857 1.23653 25.2857 1.52796C25.2857 1.81939 25.0491 2.05592 24.7577 2.05592Z" fill="#64544A" stroke="#64544A" stroke-width="0.5"/>
<path d="M1.52796 18.9508C1.23653 18.9508 1 18.7142 1 18.4228V3.6399C1 3.34846 1.23653 3.11194 1.52796 3.11194C1.81939 3.11194 2.05592 3.34846 2.05592 3.6399V18.4228C2.05592 18.7142 1.81939 18.9508 1.52796 18.9508Z" fill="#64544A" stroke="#64544A" stroke-width="0.5"/>
<path d="M26.8688 18.9508C26.5773 18.9508 26.3408 18.7142 26.3408 18.4228V3.6399C26.3408 3.34846 26.5773 3.11194 26.8688 3.11194C27.1602 3.11194 27.3967 3.34846 27.3967 3.6399V18.4228C27.3967 18.7142 27.1602 18.9508 26.8688 18.9508Z" fill="#64544A" stroke="#64544A" stroke-width="0.5"/>
<path d="M24.7582 2.05592H21.5905C21.299 2.05592 21.0625 1.81939 21.0625 1.52796C21.0625 1.23653 21.299 1 21.5905 1H24.7582C25.0497 1 25.2862 1.23653 25.2862 1.52796C25.2862 1.81939 25.0497 2.05592 24.7582 2.05592Z" fill="#64544A" stroke="#64544A" stroke-width="0.5"/>
<path d="M6.80705 2.05592H3.63929C3.34785 2.05592 3.11133 1.81939 3.11133 1.52796C3.11133 1.23653 3.34785 1 3.63929 1H6.80705C7.09849 1 7.33501 1.23653 7.33501 1.52796C7.33501 1.81939 7.09849 2.05592 6.80705 2.05592Z" fill="#64544A" stroke="#64544A" stroke-width="0.5"/>
<path d="M24.7575 21.0625C24.466 21.0625 24.2295 20.826 24.2295 20.5346C24.2295 20.2431 24.466 20.0066 24.7575 20.0066C25.6307 20.0066 26.3413 19.296 26.3413 18.4227C26.3413 18.1313 26.5779 17.8948 26.8693 17.8948C27.1607 17.8948 27.3973 18.1313 27.3973 18.4227C27.3973 19.8783 26.213 21.0625 24.7575 21.0625Z" fill="#64544A" stroke="#64544A" stroke-width="0.5"/>
<path d="M3.6398 21.0624C2.18422 21.0624 1 19.8782 1 18.4226C1 18.1312 1.23653 17.8947 1.52796 17.8947C1.81939 17.8947 2.05592 18.1312 2.05592 18.4226C2.05592 19.2959 2.76656 20.0065 3.6398 20.0065C3.93124 20.0065 4.16776 20.243 4.16776 20.5345C4.16776 20.8259 3.93124 21.0624 3.6398 21.0624Z" fill="#64544A" stroke="#64544A" stroke-width="0.5"/>
<path d="M1.52796 4.16776C1.23653 4.16776 1 3.93124 1 3.6398C1 2.18422 2.18422 1 3.6398 1C3.93124 1 4.16776 1.23653 4.16776 1.52796C4.16776 1.81939 3.93124 2.05592 3.6398 2.05592C2.76656 2.05592 2.05592 2.76656 2.05592 3.6398C2.05592 3.93124 1.81939 4.16776 1.52796 4.16776Z" fill="#64544A" stroke="#64544A" stroke-width="0.5"/>
<path d="M26.8693 4.16776C26.5779 4.16776 26.3413 3.93124 26.3413 3.6398C26.3413 2.76656 25.6307 2.05592 24.7575 2.05592C24.466 2.05592 24.2295 1.81939 24.2295 1.52796C24.2295 1.23653 24.466 1 24.7575 1C26.213 1 27.3973 2.18422 27.3973 3.6398C27.3973 3.93124 27.1607 4.16776 26.8693 4.16776Z" fill="#64544A" stroke="#64544A" stroke-width="0.5"/>
</svg>
