<svg width="23" height="20" viewBox="0 0 23 20" fill="none" xmlns="http://www.w3.org/2000/svg">
<path d="M0 9.43379C0 9.92045 0.367472 10.3322 0.970504 10.3322C1.2626 10.3322 1.517 10.1825 1.74314 9.98596L2.82671 9.08751V17.8007C2.82671 19.1858 3.6653 20 5.0975 20H17.846C19.2782 20 20.1168 19.1858 20.1168 17.8007V9.03135L21.2663 9.98596C21.4924 10.1825 21.7468 10.3322 22.0389 10.3322C22.5854 10.3322 23 9.99532 23 9.46186C23 9.14366 22.8775 8.89097 22.6325 8.69443L20.1168 6.58868V2.61114C20.1168 2.18999 19.8435 1.91858 19.4195 1.91858H18.1475C17.7329 1.91858 17.4502 2.18999 17.4502 2.61114V4.36125L12.8333 0.505381C12.0229 -0.16846 11.0053 -0.16846 10.1856 0.505381L0.367472 8.69443C0.122491 8.90033 0 9.17174 0 9.43379ZM14.2089 12.0262C14.2089 11.5863 13.9263 11.3056 13.4834 11.3056H9.51659C9.08316 11.3056 8.78165 11.5863 8.78165 12.0262V18.1657H5.58746C4.99385 18.1657 4.67349 17.8381 4.67349 17.2485V7.54329L11.109 2.18999C11.3634 1.96537 11.6555 1.96537 11.9099 2.18999L18.27 7.48713V17.2485C18.27 17.8381 17.9496 18.1657 17.356 18.1657H14.2089V12.0262Z" fill="#F5F5DC"/>
</svg>
