<svg width="18" height="18" viewBox="0 0 18 18" fill="none" xmlns="http://www.w3.org/2000/svg">
<path d="M0.428572 2.57143H11.1086V3.00001C11.1086 3.341 11.2441 3.66803 11.4852 3.90915C11.7263 4.15026 12.0533 4.28572 12.3943 4.28572H14.1086C14.4496 4.28572 14.7766 4.15026 15.0177 3.90915C15.2589 3.66803 15.3943 3.341 15.3943 3.00001V2.57143H17.3915C17.5051 2.57143 17.6141 2.52628 17.6945 2.44591C17.7749 2.36553 17.82 2.25653 17.82 2.14286C17.82 2.0292 17.7749 1.92019 17.6945 1.83982C17.6141 1.75944 17.5051 1.71429 17.3915 1.71429H15.3943V1.28572C15.3943 0.944724 15.2589 0.617696 15.0177 0.376578C14.7766 0.135459 14.4496 0 14.1086 0H12.3943C12.0533 0 11.7263 0.135459 11.4852 0.376578C11.2441 0.617696 11.1086 0.944724 11.1086 1.28572V1.71429H0.428572C0.314908 1.71429 0.205899 1.75944 0.125526 1.83982C0.0451531 1.92019 0 2.0292 0 2.14286C0 2.25653 0.0451531 2.36553 0.125526 2.44591C0.205899 2.52628 0.314908 2.57143 0.428572 2.57143ZM11.9657 1.28572C11.9657 1.17205 12.0109 1.06304 12.0913 0.982671C12.1716 0.902298 12.2806 0.857145 12.3943 0.857145H14.1086C14.2223 0.857145 14.3313 0.902298 14.4116 0.982671C14.492 1.06304 14.5372 1.17205 14.5372 1.28572V3.00001C14.5372 3.11367 14.492 3.22268 14.4116 3.30305C14.3313 3.38343 14.2223 3.42858 14.1086 3.42858H12.3943C12.2806 3.42858 12.1716 3.38343 12.0913 3.30305C12.0109 3.22268 11.9657 3.11367 11.9657 3.00001V1.28572Z" fill="black"/>
<path d="M17.4515 15.4286H13.6801V15.0001C13.6801 14.6591 13.5446 14.3321 13.3035 14.0909C13.0624 13.8498 12.7353 13.7144 12.3943 13.7144H10.6801C10.3391 13.7144 10.012 13.8498 9.77092 14.0909C9.5298 14.3321 9.39434 14.6591 9.39434 15.0001V15.4286H0.437178C0.323514 15.4286 0.214505 15.4738 0.134132 15.5542C0.0537591 15.6345 0.00860596 15.7436 0.00860596 15.8572C0.00860596 15.9709 0.0537591 16.0799 0.134132 16.1603C0.214505 16.2406 0.323514 16.2858 0.437178 16.2858H9.39434V16.7144C9.39434 17.0554 9.5298 17.3824 9.77092 17.6235C10.012 17.8646 10.3391 18.0001 10.6801 18.0001H12.3943C12.7353 18.0001 13.0624 17.8646 13.3035 17.6235C13.5446 17.3824 13.6801 17.0554 13.6801 16.7144V16.2858H17.4515C17.5652 16.2858 17.6742 16.2406 17.7545 16.1603C17.8349 16.0799 17.8801 15.9709 17.8801 15.8572C17.8801 15.7436 17.8349 15.6345 17.7545 15.5542C17.6742 15.4738 17.5652 15.4286 17.4515 15.4286ZM12.8229 16.7144C12.8229 16.828 12.7778 16.937 12.6974 17.0174C12.617 17.0978 12.508 17.1429 12.3943 17.1429H10.6801C10.5664 17.1429 10.4574 17.0978 10.377 17.0174C10.2966 16.937 10.2515 16.828 10.2515 16.7144V15.0001C10.2515 14.8864 10.2966 14.7774 10.377 14.697C10.4574 14.6167 10.5664 14.5715 10.6801 14.5715H12.3943C12.508 14.5715 12.617 14.6167 12.6974 14.697C12.7778 14.7774 12.8229 14.8864 12.8229 15.0001V16.7144Z" fill="black"/>
<path d="M5.53706 11.1429H7.25134C7.59234 11.1429 7.91937 11.0074 8.16048 10.7663C8.4016 10.5252 8.53706 10.1982 8.53706 9.85718V9.42861H17.4942C17.6079 9.42861 17.7169 9.38346 17.7973 9.30309C17.8776 9.22271 17.9228 9.1137 17.9228 9.00004C17.9228 8.88637 17.8776 8.77737 17.7973 8.69699C17.7169 8.61662 17.6079 8.57147 17.4942 8.57147H8.53706V8.14289C8.53706 7.8019 8.4016 7.47487 8.16048 7.23376C7.91937 6.99264 7.59234 6.85718 7.25134 6.85718H5.53706C5.19606 6.85718 4.86904 6.99264 4.62792 7.23376C4.3868 7.47487 4.25134 7.8019 4.25134 8.14289V8.57147H0.479903C0.366238 8.57147 0.257229 8.61662 0.176857 8.69699C0.0964837 8.77737 0.0513306 8.88637 0.0513306 9.00004C0.0513306 9.1137 0.0964837 9.22271 0.176857 9.30309C0.257229 9.38346 0.366238 9.42861 0.479903 9.42861H4.25134V9.85718C4.25134 10.1982 4.3868 10.5252 4.62792 10.7663C4.86904 11.0074 5.19606 11.1429 5.53706 11.1429ZM5.10848 8.14289C5.10848 8.02923 5.15364 7.92022 5.23401 7.83985C5.31438 7.75947 5.42339 7.71432 5.53706 7.71432H7.25134C7.36501 7.71432 7.47402 7.75947 7.55439 7.83985C7.63476 7.92022 7.67992 8.02923 7.67992 8.14289V9.85718C7.67992 9.97085 7.63476 10.0799 7.55439 10.1602C7.47402 10.2406 7.36501 10.2858 7.25134 10.2858H5.53706C5.42339 10.2858 5.31438 10.2406 5.23401 10.1602C5.15364 10.0799 5.10848 9.97085 5.10848 9.85718V8.14289Z" fill="black"/>
</svg>
