<svg width="24" height="19" viewBox="0 0 24 19" fill="none" xmlns="http://www.w3.org/2000/svg">
<path d="M16.7672 3.03594C16.7649 2.98672 16.7524 2.93854 16.7305 2.89447C16.7086 2.85041 16.6779 2.81143 16.6402 2.78005C15.4617 1.79605 14.018 1.18954 12.4948 1.03842C12.2424 1.01313 11.9857 1.00049 11.7292 1.00027C11.7273 1.00027 11.7255 1 11.7236 1C11.7217 1 11.7199 1.00027 11.718 1.00027C11.4614 1.00027 11.2048 1.01313 10.9526 1.03842C9.80796 1.15159 8.70311 1.52199 7.71941 2.12234C6.73571 2.72269 5.89821 3.5377 5.2686 4.50735L5.26593 4.51128C4.36097 5.90102 3.92139 7.54611 4.01155 9.20572C4.1017 10.8653 4.71686 12.4523 5.76695 13.7342C5.79808 13.7722 5.83675 13.8033 5.88048 13.8253C5.92421 13.8474 5.97204 13.8601 6.02091 13.8624C6.02648 13.8627 6.03201 13.8628 6.03758 13.8628C6.13067 13.8628 6.21995 13.8255 6.28579 13.7592L16.6649 3.30279C16.6995 3.26794 16.7264 3.2262 16.744 3.18025C16.7617 3.13429 16.7695 3.08514 16.7672 3.03594ZM10.5851 8.42736H8.42983C8.45962 7.52458 8.60596 6.62954 8.86516 5.76483C9.69685 5.87348 10.534 5.93477 11.3725 5.94839V7.63405L10.5851 8.42736ZM4.71189 8.42736C4.76777 7.25727 5.11287 6.11978 5.71587 5.11816C6.52071 5.34586 7.33768 5.52751 8.16288 5.66226C7.90263 6.56179 7.75632 7.49085 7.72742 8.42736H4.71189ZM11.1534 1.73084C11.2262 1.72492 11.2992 1.71975 11.3725 1.71612V5.24102C10.6115 5.2283 9.85163 5.17506 9.09616 5.08151C9.56173 3.84178 10.2602 2.70412 11.1534 1.73084ZM9.88296 9.13473L8.5599 10.4676C8.48848 10.0265 8.44512 9.58135 8.43009 9.13473H9.88296ZM12.0747 5.94843C12.4111 5.94304 12.7479 5.92988 13.0849 5.90895L12.0747 6.92668V5.94843ZM13.8509 5.13722C13.2633 5.19628 12.6679 5.23112 12.0747 5.24093V1.71621C12.148 1.71983 12.2211 1.72505 12.2941 1.73093C13.1084 2.61949 13.7618 3.64494 14.2247 4.76076L13.8509 5.13722ZM10.0867 1.90057C9.35797 2.8282 8.78281 3.86836 8.38344 4.98084C7.62563 4.86125 6.87471 4.70089 6.13391 4.50045C7.11193 3.19777 8.50945 2.27858 10.0867 1.90057ZM6.06988 12.9762C5.25326 11.8574 4.78085 10.5216 4.71132 9.13473H7.72742C7.74805 9.78661 7.8253 10.4354 7.9583 11.0737L6.06988 12.9762ZM14.7587 4.2225C14.3893 3.3933 13.9195 2.61329 13.3601 1.90026C14.2733 2.11965 15.1331 2.52266 15.8878 3.0851L14.7587 4.2225Z" fill="#000" stroke="#000" stroke-width="0.1"/>
<path d="M18.9893 4.66949C18.8347 4.43262 18.6674 4.2044 18.4881 3.98587C18.457 3.94788 18.4183 3.91687 18.3746 3.89482C18.3308 3.87277 18.283 3.86017 18.2342 3.85782C18.1853 3.85548 18.1365 3.86344 18.0909 3.88121C18.0453 3.89897 18.0039 3.92614 17.9693 3.96098L7.59013 14.4172C7.55555 14.452 7.52858 14.4938 7.51094 14.5397C7.4933 14.5857 7.48538 14.6348 7.4877 14.6841C7.49002 14.7333 7.50252 14.7815 7.5244 14.8255C7.54627 14.8696 7.57705 14.9086 7.61475 14.9399C8.79326 15.9239 10.2369 16.5305 11.7602 16.6816C12.25 16.7302 12.7433 16.7324 13.2336 16.6882V18.4884C13.2336 18.5596 13.2549 18.6291 13.2948 18.6878C13.3346 18.7466 13.3911 18.7919 13.4568 18.8178C13.5226 18.8437 13.5946 18.849 13.6635 18.833C13.7323 18.8171 13.7947 18.7806 13.8426 18.7283L16.9912 15.292C18.6255 14.1273 19.7472 12.3689 20.12 10.3873C20.4927 8.40576 20.0873 6.35582 18.9893 4.66945V4.66949ZM16.5569 14.7349C16.5364 14.7495 16.5175 14.7661 16.5005 14.7847L13.9358 17.5838V16.2907C13.9358 16.24 13.925 16.1899 13.9041 16.1438C13.8832 16.0977 13.8527 16.0566 13.8147 16.0234C13.7767 15.9902 13.7321 15.9657 13.6838 15.9513C13.6356 15.937 13.5848 15.9333 13.535 15.9405C13.4287 15.9559 13.33 15.968 13.233 15.9776C12.7664 16.0241 12.2964 16.0241 11.8297 15.9776C10.5764 15.8534 9.37983 15.3894 8.36727 14.6349L18.1852 4.74381C18.2608 4.84697 18.3333 4.95172 18.4026 5.05806C19.4039 6.59628 19.7713 8.46692 19.4267 10.2734C19.0822 12.0799 18.0528 13.6801 16.5569 14.7349Z" fill="#000" stroke="#000" stroke-width="0.1"/>
<path d="M12.5317 13.183C12.9195 13.183 13.2339 12.8663 13.2339 12.4757C13.2339 12.085 12.9195 11.7683 12.5317 11.7683C12.144 11.7683 11.8296 12.085 11.8296 12.4757C11.8296 12.8663 12.144 13.183 12.5317 13.183Z" fill="#000" stroke="#000" stroke-width="0.1"/>
<path d="M14.6387 13.183C15.0265 13.183 15.3408 12.8663 15.3408 12.4757C15.3408 12.085 15.0265 11.7683 14.6387 11.7683C14.2509 11.7683 13.9365 12.085 13.9365 12.4757C13.9365 12.8663 14.2509 13.183 14.6387 13.183Z" fill="#000" stroke="#000" stroke-width="0.1"/>
<path d="M16.7446 13.183C17.1324 13.183 17.4468 12.8663 17.4468 12.4757C17.4468 12.085 17.1324 11.7683 16.7446 11.7683C16.3568 11.7683 16.0425 12.085 16.0425 12.4757C16.0425 12.8663 16.3568 13.183 16.7446 13.183Z" fill="#000" stroke="#000" stroke-width="0.1"/>
<path d="M3.80824 13.7165C3.71585 13.7049 3.62266 13.7307 3.54917 13.7883C3.47568 13.8459 3.4279 13.9305 3.41635 14.0236L3.38669 14.2623C2.13438 12.4848 1.54948 10.3169 1.73631 8.14526C1.92313 5.97363 2.86953 3.93945 4.40673 2.40546C4.43968 2.37282 4.46592 2.33395 4.48393 2.29107C4.50194 2.24819 4.51137 2.20215 4.51167 2.15559C4.51198 2.10903 4.50316 2.06287 4.48571 2.01975C4.46827 1.97664 4.44255 1.93742 4.41003 1.90434C4.3775 1.87126 4.33881 1.84498 4.29618 1.827C4.25355 1.80902 4.20782 1.79969 4.1616 1.79956C4.11539 1.79943 4.0696 1.80849 4.02687 1.82623C3.98414 1.84397 3.9453 1.87003 3.91259 1.90292C2.26091 3.55105 1.24245 5.73555 1.03808 8.06852C0.833703 10.4015 1.45664 12.7319 2.79627 14.646L2.49962 14.6018C2.45401 14.595 2.40752 14.5973 2.3628 14.6086C2.31808 14.6199 2.276 14.64 2.23898 14.6676C2.1642 14.7235 2.11453 14.8071 2.10089 14.8999C2.08725 14.9927 2.11075 15.0871 2.16624 15.1625C2.22173 15.2378 2.30464 15.2878 2.39675 15.3016L3.58162 15.4784C3.62789 15.4853 3.67506 15.4828 3.72037 15.4711C3.76567 15.4594 3.80819 15.4387 3.84544 15.4102C3.88268 15.3816 3.91389 15.3459 3.93724 15.3051C3.96059 15.2643 3.9756 15.2191 3.9814 15.1724L4.11305 14.1113C4.11878 14.0652 4.11543 14.0185 4.10321 13.9737C4.09099 13.9289 4.07013 13.887 4.04182 13.8503C4.01352 13.8136 3.97832 13.783 3.93824 13.76C3.89816 13.737 3.85399 13.7223 3.80824 13.7165Z" fill="#000" stroke="#000" stroke-width="0.1"/>
<path d="M21.2447 2.92636C21.3379 2.92636 21.4272 2.8891 21.493 2.82277C21.5588 2.75644 21.5958 2.66648 21.5958 2.57268C21.5958 2.47888 21.5588 2.38891 21.493 2.32259C21.4272 2.25626 21.3379 2.21899 21.2447 2.21899H20.1915C20.0984 2.21899 20.0091 2.25626 19.9433 2.32259C19.8774 2.38891 19.8405 2.47888 19.8405 2.57268V3.63373C19.8405 3.72753 19.8774 3.81749 19.9433 3.88382C20.0091 3.95015 20.0984 3.98741 20.1915 3.98741C20.2846 3.98741 20.3739 3.95015 20.4398 3.88382C20.5056 3.81749 20.5426 3.72753 20.5426 3.63373V3.5171C21.8217 5.28232 22.4349 7.44878 22.2723 9.62814C22.1097 11.8075 21.182 13.8573 19.6554 15.4101C19.5898 15.4767 19.5533 15.5669 19.5537 15.6607C19.5542 15.7545 19.5916 15.8443 19.6577 15.9103C19.7239 15.9763 19.8134 16.0131 19.9065 16.0127C19.9996 16.0122 20.0887 15.9745 20.1542 15.9079C21.8243 14.2091 22.828 11.9591 22.9799 9.57303C23.1318 7.18701 22.4218 4.82617 20.9809 2.92636H21.2447Z" fill="#000" stroke="#000" stroke-width="0.1"/>
</svg>
