<svg width="18" height="18" viewBox="0 0 18 18" fill="none" xmlns="http://www.w3.org/2000/svg">
<path d="M9.59095 11.9942C9.28568 11.7257 8.78914 11.7661 8.52064 12.0714L5.68853 15.264V2.50478C5.68853 2.08548 5.3428 1.73975 4.9235 1.73975C4.5042 1.73975 4.15846 2.08548 4.15846 2.50478V15.264L1.32636 12.0714C1.02108 11.7661 0.561322 11.7257 0.256043 11.9942C-0.0492353 12.2994 -0.0896939 12.7592 0.178804 13.0645L4.34972 17.7319C4.66236 18.1181 5.21407 18.0593 5.4605 17.7319L9.66819 13.0645C9.93669 12.7629 9.89991 12.2627 9.59095 11.9942Z" fill="black"/>
<path d="M17.782 4.9544L13.6479 0.286948C13.2801 -0.0845357 12.8203 -0.106604 12.5003 0.286948L8.29263 4.9544C8.02414 5.25968 8.0646 5.75622 8.36987 6.02472C8.84066 6.39988 9.31513 6.14241 9.44019 5.94748L12.2723 2.75492V15.4773C12.2723 15.8966 12.618 16.2424 13.0373 16.2424C13.4566 16.2424 13.8024 15.9371 13.8024 15.5141V2.7586L16.6345 5.95115C16.9397 6.25643 17.3995 6.29689 17.7048 6.02839C18.0101 5.71944 18.0505 5.25968 17.782 4.9544Z" fill="black"/>
</svg>
