<svg width="74" height="97" viewBox="0 0 74 97" fill="none" xmlns="http://www.w3.org/2000/svg">
<path d="M51.3736 3.98733L51.8203 3.51516L51.3736 3.98734L69.4529 21.0913L69.8996 20.6191L69.4529 21.0913C71.3729 22.9076 72.475 25.4674 72.475 28.1105V86.3813C72.475 91.7087 68.1398 96.0438 62.8125 96.0438H10.3125C4.98517 96.0438 0.65 91.7087 0.65 86.3813V11.0063C0.65 5.67902 4.98517 1.34385 10.3125 1.34385H44.7332C47.2141 1.34385 49.5713 2.28221 51.3736 3.98733ZM64.4362 23.8438H66.0691L64.883 22.7217L49.9467 8.59111L48.85 7.55356V9.06329V22.2563C48.85 23.1323 49.5616 23.8438 50.4375 23.8438H64.4362ZM44.525 6.31885V5.66885H43.875H10.3125C7.36883 5.66885 4.975 8.06268 4.975 11.0063V86.3813C4.975 89.325 7.36883 91.7188 10.3125 91.7188H62.8125C65.7562 91.7188 68.15 89.325 68.15 86.3813V28.8188V28.1688H67.5H50.4375C47.1779 28.1688 44.525 25.5159 44.525 22.2563V6.31885Z" fill="black" stroke="#FCCFBD" stroke-width="1.3"/>
<path d="M20.3375 26.0063V25.3563H19.6875H14.0625C12.8682 25.3563 11.9 24.3881 11.9 23.1938C11.9 21.9996 12.8682 21.0313 14.0625 21.0313H19.6875H20.3375V20.3813V14.7563C20.3375 13.5621 21.3057 12.5938 22.5 12.5938C23.6943 12.5938 24.6625 13.5621 24.6625 14.7563V20.3813V21.0313H25.3125H30.9375C32.1318 21.0313 33.1 21.9996 33.1 23.1938C33.1 24.3881 32.1318 25.3563 30.9375 25.3563H25.3125H24.6625V26.0063V31.6313C24.6625 32.8256 23.6943 33.7938 22.5 33.7938C21.3057 33.7938 20.3375 32.8256 20.3375 31.6313V26.0063Z" fill="#E8252C" stroke="#FCCFBD" stroke-width="1.3"/>
<path d="M15.375 44.4688H56.625C57.8193 44.4688 58.7875 45.4371 58.7875 46.6313C58.7875 47.8256 57.8193 48.7938 56.625 48.7938H15.375C14.1807 48.7938 13.2125 47.8256 13.2125 46.6313C13.2125 45.4371 14.1807 44.4688 15.375 44.4688Z" fill="black" stroke="#FCCFBD" stroke-width="1.3"/>
<path d="M15.375 59.4688H56.625C57.8193 59.4688 58.7875 60.4371 58.7875 61.6313C58.7875 62.8256 57.8193 63.7938 56.625 63.7938H15.375C14.1807 63.7938 13.2125 62.8256 13.2125 61.6313C13.2125 60.4371 14.1807 59.4688 15.375 59.4688Z" fill="black" stroke="#FCCFBD" stroke-width="1.3"/>
<path d="M15.375 74.4688H29.01C30.2043 74.4688 31.1725 75.4371 31.1725 76.6313C31.1725 77.8256 30.2043 78.7938 29.01 78.7938H15.375C14.1807 78.7938 13.2125 77.8256 13.2125 76.6313C13.2125 75.4371 14.1807 74.4688 15.375 74.4688Z" fill="black" stroke="#FCCFBD" stroke-width="1.3"/>
</svg>
