<svg width="47" height="47" viewBox="0 0 47 47" fill="none" xmlns="http://www.w3.org/2000/svg">
<g clip-path="url(#clip0_137_896)">
<path d="M38.1426 40.9355L36.3877 35.67C35.7744 33.8317 34.2098 32.4748 32.3025 32.1276L27.2363 31.2058V30.8131C28.118 30.3014 28.8851 29.6169 29.4961 28.8065H31.0267C32.2805 28.8065 33.3009 27.7861 33.3009 26.5323V17.4355C33.3009 12.0017 28.8798 7.58069 23.446 7.58069C18.0122 7.58069 13.5912 12.0017 13.5912 17.4355V22.742C13.5912 24.2035 14.6305 25.4263 16.0086 25.7113C16.4339 27.89 17.7954 29.7336 19.6557 30.8131V31.2058L14.5888 32.1276C12.6823 32.4748 11.1169 33.8317 10.5043 35.67L10.2011 36.5804L7.61914 33.9985C7.3235 33.7028 7.3235 33.2215 7.61914 32.9258L10.6135 29.9322L4.99321 24.3119L1.60921 27.6959C0.607047 28.6981 0.0551758 30.0308 0.0551758 31.4484C0.0551758 32.8659 0.607047 34.1978 1.60921 35.2L11.8545 45.4453C12.8566 46.4474 14.1893 47 15.6069 47C17.0245 47 18.3564 46.4474 19.335 45.468L23.0276 42.0848L21.8761 40.9355H38.1426ZM31.7847 26.5323C31.7847 26.9508 31.4444 27.2904 31.0267 27.2904H30.3891C30.609 26.7893 30.7757 26.2609 30.8834 25.7113C31.2078 25.6439 31.5065 25.515 31.7847 25.3528V26.5323ZM31.0267 24.0474V21.4366C31.4777 21.6996 31.7847 22.1833 31.7847 22.742C31.7847 23.3007 31.4777 23.7843 31.0267 24.0474ZM15.8654 24.0474C15.4143 23.7843 15.1073 23.3007 15.1073 22.742C15.1073 22.1833 15.4143 21.6996 15.8654 21.4366V24.0474ZM15.8654 18.9517V19.8174C15.5955 19.8879 15.3423 19.994 15.1073 20.1312V17.4355C15.1073 12.8379 18.8484 9.09682 23.446 9.09682C28.0437 9.09682 31.7847 12.8379 31.7847 17.4355V20.1312C31.5497 19.994 31.2965 19.8871 31.0267 19.8174V18.9517H30.2686C28.027 18.9517 25.9196 18.0784 24.3337 16.4933L23.446 15.6056L22.5583 16.4933C20.9725 18.0784 18.865 18.9517 16.6234 18.9517H15.8654ZM17.3815 24.2581V20.439C19.658 20.2677 21.7805 19.3284 23.446 17.7448C25.1115 19.3284 27.2341 20.2684 29.5105 20.439V24.2581C29.5105 25.3634 29.2088 26.3974 28.6903 27.2904H23.446V28.8065H27.444C26.3752 29.7473 24.9781 30.3226 23.446 30.3226C20.1022 30.3226 17.3815 27.6019 17.3815 24.2581ZM25.7202 31.4893V31.5249L23.446 33.7991L21.1718 31.5249V31.4893C21.8905 31.7152 22.6538 31.8388 23.446 31.8388C24.2382 31.8388 25.0016 31.7152 25.7202 31.4893ZM11.9416 36.1491C12.379 34.8361 13.4972 33.8666 14.8594 33.6179L20.1583 32.6552L23.446 35.9429L26.733 32.6559L32.0311 33.6187C33.3933 33.8673 34.5115 34.8361 34.9489 36.1499L36.0397 39.4194H20.3599L17.4073 36.4667L14.1264 39.4346C13.8406 39.7219 13.341 39.7219 13.0545 39.4346L11.3989 37.7789L11.9416 36.1491ZM4.99245 26.4557L8.46893 29.9322L7.64568 30.7555L4.16919 27.279L4.99245 26.4557ZM18.2851 44.3749C17.5695 45.089 16.6174 45.4839 15.6054 45.4839C14.5933 45.4839 13.6412 45.089 12.9248 44.3733L2.6796 34.1289C1.96398 33.4133 1.56979 32.4611 1.56979 31.4491C1.56979 30.4363 1.96398 29.4842 2.6796 28.7686L3.09653 28.3517L6.57301 31.8281L6.54572 31.8554C5.65955 32.7424 5.65955 34.185 6.54572 35.0719L11.9818 40.508C12.4116 40.937 12.9825 41.1743 13.5904 41.1743C14.1984 41.1743 14.7692 40.9378 15.171 40.5345L15.2278 40.4837L18.7202 43.9761L18.2851 44.3749ZM19.8391 42.9497L16.3543 39.4649L17.3557 38.5598L20.8345 42.0385L19.8391 42.9497Z" fill="white"/>
<path d="M44.6718 0H34.0589C32.805 0 31.7847 1.02035 31.7847 2.27419V8.33871C31.7847 9.59255 32.805 10.6129 34.0589 10.6129H36.0837L35.2998 15.1848L42.6151 10.6129H44.6718C45.9256 10.6129 46.946 9.59255 46.946 8.33871V2.27419C46.946 1.02035 45.9256 0 44.6718 0ZM45.4298 8.33871C45.4298 8.7564 45.0895 9.09678 44.6718 9.09678H42.18L37.3655 12.1055L37.8818 9.09678H34.0589C33.6412 9.09678 33.3008 8.7564 33.3008 8.33871V2.27419C33.3008 1.8565 33.6412 1.51613 34.0589 1.51613H44.6718C45.0895 1.51613 45.4298 1.8565 45.4298 2.27419V8.33871Z" fill="white"/>
<path d="M43.9137 3.03223H34.8169V4.54836H43.9137V3.03223Z" fill="white"/>
<path d="M40.8814 6.06458H34.8169V7.5807H40.8814V6.06458Z" fill="white"/>
<path d="M43.9136 6.06458H42.3975V7.5807H43.9136V6.06458Z" fill="white"/>
<path d="M23.4458 2.27417C13.5409 2.27417 5.00891 9.12556 2.79081 18.6825L1.35428 16.2878L0.0541992 17.0678L2.7188 21.5078L7.15878 18.8432L6.37873 17.5431L4.32438 18.7757C6.47273 10.033 14.3346 3.7903 23.4458 3.7903C25.4372 3.7903 27.4021 4.08594 29.2859 4.66965L29.7347 3.22175C27.7054 2.59256 25.5896 2.27417 23.4458 2.27417Z" fill="white"/>
<path d="M46.5772 16.785L42.1372 14.1204L39.4734 18.5611L40.7735 19.3412L42.1001 17.1299C42.7982 19.1729 43.1553 21.3098 43.1553 23.4999C43.1553 28.0081 41.5937 32.4155 38.7593 35.9094L39.9366 36.8646C42.99 33.1016 44.6714 28.3545 44.6714 23.4999C44.6714 21.181 44.2977 18.9166 43.5692 16.7486L45.7972 18.085L46.5772 16.785Z" fill="white"/>
</g>
<defs>
<clipPath id="clip0_137_896">
<rect width="47" height="47" fill="white"/>
</clipPath>
</defs>
</svg>
