<svg width="86" height="96" viewBox="0 0 86 96" fill="none" xmlns="http://www.w3.org/2000/svg">
<path d="M68.2011 46.9346H74.8673C76.3743 46.9346 77.6004 45.7085 77.6004 44.2015V37.5354C77.6004 36.0283 76.3743 34.8022 74.8673 34.8022H68.2011C66.6941 34.8022 65.468 36.0283 65.468 37.5354V44.2015C65.468 45.7085 66.6941 46.9346 68.2011 46.9346ZM68.2678 37.602H74.8006V44.1349H68.2678V37.602ZM68.2011 64.6667H74.8673C76.3743 64.6667 77.6004 63.4406 77.6004 61.9335V55.2674C77.6004 53.7604 76.3743 52.5342 74.8673 52.5342H68.2011C66.6941 52.5342 65.468 53.7604 65.468 55.2674V61.9335C65.468 63.4406 66.6941 64.6667 68.2011 64.6667ZM68.2678 55.334H74.8006V61.8669H68.2678V55.334ZM49.1782 46.9346H55.8443C57.3514 46.9346 58.5775 45.7085 58.5775 44.2015V37.5354C58.5775 36.0283 57.3514 34.8022 55.8443 34.8022H49.1782C47.6712 34.8022 46.4451 36.0283 46.4451 37.5354V44.2015C46.4451 45.7085 47.6712 46.9346 49.1782 46.9346ZM49.2449 37.602H55.7777V44.1349H49.2449V37.602ZM17.7985 69.4349H11.1324C9.62532 69.4349 8.3992 70.661 8.3992 72.1681V78.8342C8.3992 80.3412 9.62532 81.5674 11.1324 81.5674H17.7985C19.3055 81.5674 20.5316 80.3412 20.5316 78.8342V72.1681C20.5316 70.661 19.3055 69.4349 17.7985 69.4349ZM17.7318 78.7676H11.199V72.2347H17.7318V78.7676ZM17.7985 34.8022H11.1324C9.62532 34.8022 8.3992 36.0283 8.3992 37.5354V44.2015C8.3992 45.7085 9.62532 46.9346 11.1324 46.9346H17.7985C19.3055 46.9346 20.5316 45.7085 20.5316 44.2015V37.5354C20.5316 36.0281 19.3055 34.8022 17.7985 34.8022ZM17.7318 44.1349H11.199V37.602H17.7318V44.1349ZM49.1782 64.251H55.8443C57.3514 64.251 58.5775 63.0249 58.5775 61.5179V54.8517C58.5775 53.3447 57.3514 52.1186 55.8443 52.1186H49.1782C47.6712 52.1186 46.4451 53.3447 46.4451 54.8517V61.5179C46.4451 63.0249 47.6712 64.251 49.1782 64.251ZM49.2449 54.9184H55.7777V61.4512H49.2449V54.9184ZM78.9908 6.39735H73.0056V4.257C73.0056 1.90965 71.0959 0 68.7486 0H68.1058C65.7586 0 63.849 1.90965 63.849 4.257V6.39735H22.1507V4.257C22.1507 1.90965 20.241 0 17.8937 0H17.2508C14.9035 0 12.9938 1.90965 12.9938 4.257V6.39735H7.00882C3.14417 6.39735 0 9.54152 0 13.4062V88.5669C0 92.4265 3.13988 95.5663 6.99949 95.5663H79.0005C82.8601 95.5663 86 92.4265 86 88.5669V13.4062C85.9998 9.54152 82.8556 6.39735 78.9908 6.39735ZM66.6488 4.257C66.6488 3.45345 67.3024 2.7998 68.1059 2.7998H68.7488C69.5523 2.7998 70.206 3.45345 70.206 4.257V6.39735H66.6488V4.257ZM15.7938 4.257C15.7938 3.45345 16.4475 2.7998 17.251 2.7998H17.8939C18.6974 2.7998 19.3511 3.45345 19.3511 4.257V6.39735H15.794L15.7938 4.257ZM83.2 88.5669C83.2 90.8827 81.3161 92.7665 79.0003 92.7665H6.9993C4.6835 92.7665 2.79961 90.8827 2.79961 88.5669V88.5581C3.97254 89.4419 5.43048 89.9668 7.00882 89.9668H63.7668C65.639 89.9668 67.3991 89.2377 68.7228 87.9138L83.2 73.4366V88.5669ZM67.2944 85.3827C67.4041 84.9297 67.4639 84.4573 67.4639 83.9711V74.6265C67.4639 72.8645 68.8975 71.4308 70.6597 71.4308H80.0042C80.4904 71.4308 80.9628 71.3711 81.4158 71.2613L67.2944 85.3827ZM83.2 26.4028H23.5506C22.7775 26.4028 22.1507 27.0296 22.1507 27.8027C22.1507 28.5758 22.7775 29.2026 23.5506 29.2026H83.2V65.4353C83.2 67.1975 81.7663 68.6312 80.0042 68.6312H70.6597C67.3537 68.6312 64.6641 71.3209 64.6641 74.6267V83.9713C64.6641 85.7335 63.2304 87.1671 61.4684 87.1671H7.00882C4.68798 87.1671 2.79979 85.279 2.79979 82.9579V29.2026H17.951C18.7241 29.2026 19.3509 28.5758 19.3509 27.8027C19.3509 27.0296 18.7241 26.4028 17.951 26.4028H2.79961V13.4062C2.79961 11.0853 4.68779 9.19714 7.00863 9.19714H12.9938V13.3132C12.9938 15.6606 14.9035 17.5702 17.2508 17.5702C18.024 17.5702 18.6507 16.9434 18.6507 16.1703C18.6507 15.3972 18.024 14.7704 17.2508 14.7704C16.4473 14.7704 15.7936 14.1168 15.7936 13.3132V9.19714H63.849V13.3132C63.849 15.6606 65.7586 17.5702 68.1059 17.5702C68.8791 17.5702 69.5058 16.9434 69.5058 16.1703C69.5058 15.3972 68.8791 14.7704 68.1059 14.7704C67.3024 14.7704 66.6488 14.1168 66.6488 13.3132V9.19714H78.991C81.3118 9.19714 83.2 11.0853 83.2 13.4062V26.4028ZM17.7985 52.1186H11.1324C9.62532 52.1186 8.3992 53.3447 8.3992 54.8517V61.5179C8.3992 63.0249 9.62532 64.251 11.1324 64.251H17.7985C19.3055 64.251 20.5316 63.0249 20.5316 61.5179V54.8517C20.5316 53.3445 19.3055 52.1186 17.7985 52.1186ZM17.7318 61.4512H11.199V54.9184H17.7318V61.4512ZM30.1553 46.9346H36.8214C38.3285 46.9346 39.5546 45.7085 39.5546 44.2015V37.5354C39.5546 36.0283 38.3285 34.8022 36.8214 34.8022H30.1553C28.6483 34.8022 27.4221 36.0283 27.4221 37.5354V44.2015C27.4221 45.7085 28.6483 46.9346 30.1553 46.9346ZM30.2219 37.602H36.7548V44.1349H30.2219V37.602ZM49.2432 78.7676C49.2085 78.0253 48.5957 77.4343 47.8448 77.4343C47.0716 77.4343 46.4449 78.0611 46.4449 78.8342C46.4449 80.3412 47.671 81.5674 49.178 81.5674H55.8442C57.3512 81.5674 58.5773 80.3412 58.5773 78.8342V72.1681C58.5773 70.661 57.3512 69.4349 55.8442 69.4349H49.178C47.671 69.4349 46.4449 70.661 46.4449 72.1681V74.0906C46.4449 74.8637 47.0716 75.4905 47.8448 75.4905C48.6179 75.4905 49.2447 74.8637 49.2447 74.0906V72.2347H55.7775V78.7676H49.2432ZM30.1553 64.251H36.8214C38.3285 64.251 39.5546 63.0249 39.5546 61.5179V54.8517C39.5546 53.3447 38.3285 52.1186 36.8214 52.1186H30.1553C28.6483 52.1186 27.4221 53.3447 27.4221 54.8517V61.5179C27.4221 63.0249 28.6483 64.251 30.1553 64.251ZM30.2219 54.9184H36.7548V61.4512H30.2219V54.9184ZM30.1553 81.5674H36.8214C38.3285 81.5674 39.5546 80.3412 39.5546 78.8342V72.1681C39.5546 70.661 38.3285 69.4349 36.8214 69.4349H30.1553C28.6483 69.4349 27.4221 70.661 27.4221 72.1681V78.8342C27.4221 80.3412 28.6483 81.5674 30.1553 81.5674ZM30.2219 72.2347H36.7548V78.7676H30.2219V72.2347Z" fill="black"/>
<path d="M68.2011 46.9347H74.8672C76.3743 46.9347 77.6004 45.7086 77.6004 44.2015V37.5354C77.6004 36.0284 76.3743 34.8022 74.8672 34.8022H68.2011C66.6941 34.8022 65.468 36.0284 65.468 37.5354V44.2015C65.468 45.7086 66.6941 46.9347 68.2011 46.9347ZM68.2677 37.602H74.8006V44.1349H68.2677V37.602ZM68.2011 64.6667H74.8672C76.3743 64.6667 77.6004 63.4406 77.6004 61.9336V55.2674C77.6004 53.7604 76.3743 52.5343 74.8672 52.5343H68.2011C66.6941 52.5343 65.468 53.7604 65.468 55.2674V61.9336C65.468 63.4406 66.6941 64.6667 68.2011 64.6667ZM68.2677 55.3341H74.8006V61.8669H68.2677V55.3341ZM49.1782 46.9347H55.8443C57.3514 46.9347 58.5775 45.7086 58.5775 44.2015V37.5354C58.5775 36.0284 57.3514 34.8022 55.8443 34.8022H49.1782C47.6712 34.8022 46.445 36.0284 46.445 37.5354V44.2015C46.445 45.7086 47.6712 46.9347 49.1782 46.9347ZM49.2448 37.602H55.7777V44.1349H49.2448V37.602ZM17.7985 69.435H11.1323C9.62529 69.435 8.39917 70.6611 8.39917 72.1681V78.8343C8.39917 80.3413 9.62529 81.5674 11.1323 81.5674H17.7985C19.3055 81.5674 20.5316 80.3413 20.5316 78.8343V72.1681C20.5316 70.6611 19.3055 69.435 17.7985 69.435ZM17.7318 78.7676H11.199V72.2348H17.7318V78.7676ZM17.7985 34.8022H11.1323C9.62529 34.8022 8.39917 36.0284 8.39917 37.5354V44.2015C8.39917 45.7086 9.62529 46.9347 11.1323 46.9347H17.7985C19.3055 46.9347 20.5316 45.7086 20.5316 44.2015V37.5354C20.5316 36.0282 19.3055 34.8022 17.7985 34.8022ZM17.7318 44.1349H11.199V37.602H17.7318V44.1349ZM49.1782 64.2511H55.8443C57.3514 64.2511 58.5775 63.0249 58.5775 61.5179V54.8518C58.5775 53.3447 57.3514 52.1186 55.8443 52.1186H49.1782C47.6712 52.1186 46.445 53.3447 46.445 54.8518V61.5179C46.445 63.0249 47.6712 64.2511 49.1782 64.2511ZM49.2448 54.9184H55.7777V61.4513H49.2448V54.9184ZM17.7985 52.1186H11.1323C9.62529 52.1186 8.39917 53.3447 8.39917 54.8518V61.5179C8.39917 63.0249 9.62529 64.2511 11.1323 64.2511H17.7985C19.3055 64.2511 20.5316 63.0249 20.5316 61.5179V54.8518C20.5316 53.3445 19.3055 52.1186 17.7985 52.1186ZM17.7318 61.4513H11.199V54.9184H17.7318V61.4513ZM30.1553 46.9347H36.8214C38.3284 46.9347 39.5546 45.7086 39.5546 44.2015V37.5354C39.5546 36.0284 38.3284 34.8022 36.8214 34.8022H30.1553C28.6482 34.8022 27.4221 36.0284 27.4221 37.5354V44.2015C27.4221 45.7086 28.6482 46.9347 30.1553 46.9347ZM30.2219 37.602H36.7548V44.1349H30.2219V37.602ZM49.2431 78.7676C49.2084 78.0253 48.5956 77.4344 47.8447 77.4344C47.0716 77.4344 46.4448 78.0611 46.4448 78.8343C46.4448 80.3413 47.671 81.5674 49.178 81.5674H55.8441C57.3512 81.5674 58.5773 80.3413 58.5773 78.8343V72.1681C58.5773 70.6611 57.3512 69.435 55.8441 69.435H49.178C47.671 69.435 46.4448 70.6611 46.4448 72.1681V74.0907C46.4448 74.8638 47.0716 75.4906 47.8447 75.4906C48.6179 75.4906 49.2446 74.8638 49.2446 74.0907V72.2348H55.7775V78.7676H49.2431ZM30.1553 64.2511H36.8214C38.3284 64.2511 39.5546 63.0249 39.5546 61.5179V54.8518C39.5546 53.3447 38.3284 52.1186 36.8214 52.1186H30.1553C28.6482 52.1186 27.4221 53.3447 27.4221 54.8518V61.5179C27.4221 63.0249 28.6482 64.2511 30.1553 64.2511ZM30.2219 54.9184H36.7548V61.4513H30.2219V54.9184ZM30.1553 81.5674H36.8214C38.3284 81.5674 39.5546 80.3413 39.5546 78.8343V72.1681C39.5546 70.6611 38.3284 69.435 36.8214 69.435H30.1553C28.6482 69.435 27.4221 70.6611 27.4221 72.1681V78.8343C27.4221 80.3413 28.6482 81.5674 30.1553 81.5674ZM30.2219 72.2348H36.7548V78.7676H30.2219V72.2348Z" fill="#E8252C"/>
</svg>
