<svg width="98" height="98" viewBox="0 0 98 98" fill="none" xmlns="http://www.w3.org/2000/svg">
<path d="M88.4297 7.65625H56.6563C51.3791 7.65625 47.0852 11.9494 47.0852 17.2266V34.8359C47.0852 40.1131 51.3791 44.407 56.6563 44.407H73.5V49.9795C73.5 50.7533 73.9658 51.4509 74.6799 51.7477C74.9169 51.8457 75.1666 51.8935 75.4133 51.8935C75.9105 51.8935 76.3988 51.7006 76.7651 51.3358L83.7201 44.407H88.4297C93.7068 44.407 98 40.1131 98 34.8359V17.2266C98 11.9494 93.7068 7.65625 88.4297 7.65625ZM94.1719 34.8359C94.1719 38.0024 91.5961 40.5789 88.4297 40.5789H82.929C82.4228 40.5789 81.9368 40.7793 81.578 41.1366L77.3281 45.3708V42.4929C77.3281 41.4357 76.4713 40.5789 75.4141 40.5789H56.6563C53.4898 40.5789 50.9141 38.0024 50.9141 34.8359V17.2266C50.9141 14.0601 53.4898 11.4844 56.6563 11.4844H88.4297C91.5961 11.4844 94.1719 14.0601 94.1719 17.2266V34.8359Z" fill="white"/>
<path d="M86.3257 60.7332C80.8938 55.3006 72.0547 55.3006 66.6228 60.7332L61.511 65.8444C59.5296 67.8265 56.414 67.9655 54.263 66.1711C46.1484 59.3994 38.6006 51.8516 31.8288 43.737C30.0337 41.5859 30.1742 38.4696 32.1556 36.489L37.2675 31.3771C42.6993 25.9452 42.6993 17.1062 37.2675 11.6743L29.6733 4.08009C27.0422 1.449 23.5431 0 19.8219 0C16.1007 0 12.6023 1.449 9.97043 4.08009C4.29555 9.75572 0.797158 17.2856 0.120508 25.2835C-0.555394 33.2807 1.62783 41.2913 6.26942 47.8395C18.3504 64.8829 33.1171 79.6495 50.1604 91.7305C55.928 95.8188 62.8291 98.0006 69.8573 97.9998C70.8083 97.9998 71.7631 97.9602 72.7164 97.8794C80.7143 97.2028 88.2442 93.7051 93.9191 88.0295C96.5509 85.3984 97.9999 81.8993 97.9999 78.1781C97.9999 74.4569 96.5509 70.9585 93.9191 68.3267L86.3257 60.7332ZM52.3743 88.6075C35.6846 76.7769 21.223 62.3161 9.39248 45.6256C0.847253 33.57 2.22896 17.2362 12.6778 6.78743C14.5859 4.87935 17.1235 3.82812 19.8219 3.82812C22.521 3.82812 25.0579 4.87935 26.9667 6.78743L34.5601 14.3816C36.4689 16.2897 37.5194 18.8273 37.5194 21.5257C37.5194 24.2241 36.4689 26.7617 34.5601 28.6698L34.2446 28.986L21.7696 16.511C21.0226 15.7641 19.8106 15.7641 19.063 16.511C18.3153 17.2587 18.3153 18.4707 19.063 19.2183L31.5372 31.6926L29.4482 33.7816C26.0575 37.1731 25.8167 42.5078 28.8897 46.1901C35.808 54.4804 43.5196 62.192 51.8098 69.1102C55.4921 72.1824 60.8268 71.9432 64.2183 68.5517L66.3073 66.4627L87.9773 88.1327C77.6003 95.9459 63.2478 96.3145 52.3743 88.6075ZM91.2125 85.3222C91.1048 85.4298 90.9957 85.5352 90.8873 85.6407C90.8506 85.5973 90.8132 85.5547 90.7721 85.5136L69.0139 63.7561L69.3302 63.4398C71.2383 61.5318 73.7759 60.4805 76.4743 60.4805C79.1726 60.4805 81.7103 61.5318 83.6183 63.4398L91.2125 71.034C93.1213 72.9421 94.1718 75.4797 94.1718 78.1781C94.1718 80.8772 93.1213 83.4141 91.2125 85.3222Z" fill="white"/>
<path d="M15.1794 10.7148C14.6763 10.7148 14.1828 10.9182 13.8269 11.2756C13.471 11.6315 13.2654 12.1257 13.2654 12.6289C13.2654 13.1321 13.4702 13.6263 13.8269 13.9822C14.1828 14.3381 14.6763 14.543 15.1794 14.543C15.6834 14.543 16.1768 14.3381 16.5327 13.9822C16.8894 13.6263 17.0935 13.1321 17.0935 12.6289C17.0935 12.1257 16.8894 11.6315 16.5327 11.2756C16.1768 10.9175 15.6834 10.7148 15.1794 10.7148Z" fill="white"/>
<path d="M41.7856 70.4208C37.8648 66.9321 34.0591 63.2206 30.4755 59.3895C29.7532 58.6171 28.542 58.5768 27.7704 59.299C26.998 60.0205 26.9576 61.2325 27.6799 62.0041C31.3435 65.9212 35.233 69.715 39.2405 73.2807C39.6054 73.6052 40.06 73.7652 40.5123 73.7652C41.0402 73.7652 41.5651 73.5483 41.9434 73.1229C42.6462 72.3333 42.5752 71.1236 41.7856 70.4208Z" fill="white"/>
<path d="M25.4976 53.8322C24.8068 53.0321 23.6037 52.9491 22.803 53.6407C22.003 54.3316 21.92 55.5458 22.6108 56.3466L22.634 56.3735C23.0116 56.8087 23.5394 57.0307 24.0725 57.0307C24.5167 57.0307 24.9645 56.876 25.3286 56.5612C26.1279 55.8688 26.2087 54.6531 25.5171 53.8546L25.4976 53.8322Z" fill="white"/>
<path d="M81.8262 24.1172C81.323 24.1172 80.8288 24.3221 80.4729 24.6779C80.117 25.0346 79.9121 25.5281 79.9121 26.0312C79.9121 26.5352 80.117 27.0287 80.4729 27.3845C80.8288 27.7404 81.323 27.9453 81.8262 27.9453C82.3294 27.9453 82.8236 27.7404 83.1795 27.3845C83.5354 27.0287 83.7402 26.5352 83.7402 26.0312C83.7402 25.5281 83.5354 25.0346 83.1795 24.6779C82.8236 24.3221 82.3294 24.1172 81.8262 24.1172Z" fill="white"/>
<path d="M72.5542 24.1172C72.051 24.1172 71.5568 24.3221 71.2009 24.6779C70.845 25.0346 70.6401 25.5281 70.6401 26.0312C70.6401 26.5352 70.845 27.0287 71.2009 27.3845C71.559 27.7404 72.051 27.9453 72.5542 27.9453C73.0574 27.9453 73.5516 27.7404 73.9075 27.3845C74.2656 27.0287 74.4683 26.5352 74.4683 26.0312C74.4683 25.5281 74.2656 25.0346 73.9075 24.6779C73.5516 24.3221 73.0596 24.1172 72.5542 24.1172Z" fill="white"/>
<path d="M63.2844 24.1172C62.779 24.1172 62.287 24.3221 61.9311 24.6779C61.573 25.0346 61.3704 25.5281 61.3704 26.0312C61.3704 26.5352 61.573 27.0287 61.9311 27.3845C62.287 27.7404 62.7812 27.9453 63.2844 27.9453C63.7876 27.9453 64.2818 27.7404 64.6377 27.3845C64.9936 27.0287 65.1985 26.5352 65.1985 26.0312C65.1985 25.5281 64.9936 25.0346 64.6377 24.6779C64.2818 24.3221 63.7876 24.1172 63.2844 24.1172Z" fill="white"/>
</svg>
