<svg width="86" height="96" viewBox="0 0 86 96" fill="none" xmlns="http://www.w3.org/2000/svg">
<mask id="path-1-inside-1_63_2097" fill="white">
<path d="M80.8144 86.4925H73.7629C81.3414 78.2966 85.556 67.5478 85.5682 56.3852C85.5797 50.1062 84.2451 43.8977 81.6542 38.1782C82.2404 36.663 82.4855 35.0373 82.3723 33.4167C82.2591 31.796 81.7902 30.2202 80.999 28.8013C80.2079 27.3824 79.1139 26.1551 77.7948 25.2069C76.4756 24.2586 74.9638 23.6125 73.3668 23.3146L74.6028 18.751C74.7028 18.3439 74.6463 17.9141 74.4443 17.5467C74.231 17.1824 73.8844 16.9153 73.4777 16.802L68.8824 15.5818L69.7064 12.5236C69.7064 12.5236 73.034 13.3951 73.1766 13.3951C73.4557 13.3927 73.7292 13.3161 73.9689 13.1732C74.3323 12.9663 74.5997 12.6248 74.7137 12.2225L76.3458 6.09009C76.3998 5.88927 76.4134 5.67975 76.386 5.47362C76.3586 5.26749 76.2906 5.06883 76.186 4.88911C76.0814 4.70938 75.9423 4.55215 75.7766 4.42647C75.6109 4.3008 75.422 4.20917 75.2208 4.15688L59.9136 0.0527792C59.7148 -0.00018793 59.5075 -0.0134561 59.3036 0.0137335C59.0996 0.040923 58.9031 0.108037 58.7251 0.211239C58.5433 0.31514 58.3838 0.454064 58.256 0.619977C58.1281 0.78589 58.0345 0.9755 57.9804 1.17784L56.3324 7.29438C56.226 7.6999 56.2847 8.13104 56.4956 8.49338C56.7065 8.85572 57.0523 9.11973 57.4574 9.22759L60.5157 10.0516L59.7076 13.1098L55.1122 11.8739C54.7051 11.7738 54.2753 11.8304 53.9079 12.0323C53.5436 12.2456 53.2765 12.5923 53.1632 12.9989L44.955 43.6133C44.8512 44.0208 44.9107 44.4526 45.1209 44.8168C45.3311 45.1809 45.6753 45.4485 46.08 45.5624L47.6171 45.9744L46.3811 50.5539C46.2811 50.961 46.3376 51.3908 46.5396 51.7582C46.7529 52.1225 47.0995 52.3896 47.5062 52.5029L49.0432 52.9149L47.8072 57.5102C47.7533 57.7111 47.7396 57.9206 47.7671 58.1267C47.7945 58.3328 47.8624 58.5315 47.967 58.7112C48.0716 58.8909 48.2108 59.0482 48.3765 59.1739C48.5421 59.2995 48.731 59.3912 48.9323 59.4434C48.9323 59.4434 55.3182 61.139 55.4608 61.139C55.7376 61.1345 56.0093 61.0639 56.2531 60.933C56.6175 60.7197 56.8846 60.373 56.9979 59.9664L58.218 55.371C58.218 55.371 60.0245 55.8306 60.1671 55.8306C60.5147 55.831 60.8526 55.7162 61.1279 55.504C61.4032 55.2918 61.6003 54.9942 61.6883 54.658L62.9243 50.0785C62.9243 50.0785 64.7149 50.538 64.8575 50.538C65.2072 50.5396 65.5476 50.4254 65.8256 50.2133C66.1036 50.0012 66.3036 49.7031 66.3946 49.3654L67.6464 44.6592C68.6713 45.0204 69.7453 45.2234 70.8314 45.2613C73.0241 51.017 73.4782 57.29 72.1373 63.3015C70.7964 69.313 67.7196 74.7983 63.2887 79.0766C62.2994 77.4691 60.915 76.1417 59.2674 75.2208C57.6197 74.2999 55.7638 73.8162 53.8762 73.8157C53.3456 73.8179 52.8159 73.8603 52.2917 73.9425V72.2311H63.3838C63.8041 72.2311 64.2071 72.0642 64.5043 71.767C64.8015 71.4698 64.9684 71.0668 64.9684 70.6465V65.8928C64.9684 65.4725 64.8015 65.0694 64.5043 64.7723C64.2071 64.4751 63.8041 64.3082 63.3838 64.3082H31.6919C31.2716 64.3082 30.8686 64.4751 30.5714 64.7723C30.2743 65.0694 30.1073 65.4725 30.1073 65.8928V70.6465C30.1073 71.0668 30.2743 71.4698 30.5714 71.767C30.8686 72.0642 31.2716 72.2311 31.6919 72.2311H42.7841V86.4925H26.9381C25.6785 86.4963 24.4715 86.9983 23.5808 87.889C22.6901 88.7797 22.1881 89.9867 22.1843 91.2463V94.4155C22.1843 94.8357 22.3513 95.2388 22.6484 95.536C22.9456 95.8331 23.3487 96.0001 23.7689 96.0001H83.9836C84.4038 96.0001 84.8069 95.8331 85.1041 95.536C85.4012 95.2388 85.5682 94.8357 85.5682 94.4155V91.2463C85.5644 89.9867 85.0624 88.7797 84.1717 87.889C83.281 86.9983 82.074 86.4963 80.8144 86.4925ZM59.8185 6.58132L60.6266 3.52304L72.8756 6.80316L72.0516 9.86143L59.8185 6.58132ZM66.6481 11.6996L65.8241 14.7578L62.7658 13.9338L63.5898 10.8756L66.6481 11.6996ZM54.3358 57.6212L51.2775 56.7972L52.1015 53.7389L55.1598 54.547L54.3358 57.6212ZM59.042 52.3128L49.8514 49.8566L50.6754 46.7825L59.866 49.2545L59.042 52.3128ZM63.7324 47.0044L48.4252 42.9003L55.8253 15.3441L71.1167 19.4641L70.1184 23.172C67.8928 23.4083 65.7912 24.3135 64.0905 25.7683C62.3897 27.223 61.1698 29.159 60.5916 31.3211C60.0133 33.4831 60.1039 35.7696 60.8513 37.8792C61.5987 39.9887 62.9678 41.8222 64.7783 43.1379L63.7324 47.0044ZM71.3068 42.1238C69.7398 42.1238 68.208 41.6591 66.905 40.7885C65.6021 39.918 64.5866 38.6806 63.9869 37.2328C63.3873 35.7851 63.2304 34.192 63.5361 32.6551C63.8418 31.1182 64.5964 29.7065 65.7044 28.5984C66.8125 27.4904 68.2242 26.7358 69.7611 26.4301C71.298 26.1244 72.8911 26.2813 74.3388 26.8809C75.7865 27.4806 77.0239 28.4961 77.8945 29.7991C78.7651 31.102 79.2298 32.6338 79.2298 34.2008C79.2298 36.3021 78.395 38.3174 76.9092 39.8032C75.4234 41.2891 73.4081 42.1238 71.3068 42.1238ZM76.0606 56.3852C76.0508 52.482 75.3811 48.6085 74.0798 44.9285C76.2256 44.3682 78.1561 43.1823 79.6259 41.5217C81.4718 46.2591 82.4124 51.3008 82.399 56.3852C82.3913 62.0332 81.2243 67.6196 78.9702 72.7984C76.716 77.9771 73.4228 82.6381 69.2944 86.4925H64.9684V84.9079C64.9658 83.9885 64.8487 83.0729 64.6198 82.1824C68.2204 78.918 71.0983 74.9366 73.0686 70.4938C75.0389 66.051 76.0581 61.2452 76.0606 56.3852ZM53.8762 76.9849C55.9776 76.9849 57.9928 77.8197 59.4786 79.3055C60.9645 80.7914 61.7992 82.8066 61.7992 84.9079V86.4925H45.9533V84.9079C45.9533 82.8066 46.788 80.7914 48.2739 79.3055C49.7597 77.8197 51.7749 76.9849 53.8762 76.9849ZM45.9533 77.1592V72.2311H49.1225V74.9091C47.9374 75.4591 46.8632 76.2217 45.9533 77.1592ZM33.2765 69.0619V67.4773H61.7992V69.0619H33.2765ZM82.399 92.8309H25.3535V91.2463C25.3535 90.826 25.5205 90.423 25.8176 90.1258C26.1148 89.8286 26.5179 89.6617 26.9381 89.6617H80.8144C81.2346 89.6617 81.6377 89.8286 81.9349 90.1258C82.232 90.423 82.399 90.826 82.399 91.2463V92.8309Z"/>
</mask>
<path d="M80.8144 86.4925H73.7629C81.3414 78.2966 85.556 67.5478 85.5682 56.3852C85.5797 50.1062 84.2451 43.8977 81.6542 38.1782C82.2404 36.663 82.4855 35.0373 82.3723 33.4167C82.2591 31.796 81.7902 30.2202 80.999 28.8013C80.2079 27.3824 79.1139 26.1551 77.7948 25.2069C76.4756 24.2586 74.9638 23.6125 73.3668 23.3146L74.6028 18.751C74.7028 18.3439 74.6463 17.9141 74.4443 17.5467C74.231 17.1824 73.8844 16.9153 73.4777 16.802L68.8824 15.5818L69.7064 12.5236C69.7064 12.5236 73.034 13.3951 73.1766 13.3951C73.4557 13.3927 73.7292 13.3161 73.9689 13.1732C74.3323 12.9663 74.5997 12.6248 74.7137 12.2225L76.3458 6.09009C76.3998 5.88927 76.4134 5.67975 76.386 5.47362C76.3586 5.26749 76.2906 5.06883 76.186 4.88911C76.0814 4.70938 75.9423 4.55215 75.7766 4.42647C75.6109 4.3008 75.422 4.20917 75.2208 4.15688L59.9136 0.0527792C59.7148 -0.00018793 59.5075 -0.0134561 59.3036 0.0137335C59.0996 0.040923 58.9031 0.108037 58.7251 0.211239C58.5433 0.31514 58.3838 0.454064 58.256 0.619977C58.1281 0.78589 58.0345 0.9755 57.9804 1.17784L56.3324 7.29438C56.226 7.6999 56.2847 8.13104 56.4956 8.49338C56.7065 8.85572 57.0523 9.11973 57.4574 9.22759L60.5157 10.0516L59.7076 13.1098L55.1122 11.8739C54.7051 11.7738 54.2753 11.8304 53.9079 12.0323C53.5436 12.2456 53.2765 12.5923 53.1632 12.9989L44.955 43.6133C44.8512 44.0208 44.9107 44.4526 45.1209 44.8168C45.3311 45.1809 45.6753 45.4485 46.08 45.5624L47.6171 45.9744L46.3811 50.5539C46.2811 50.961 46.3376 51.3908 46.5396 51.7582C46.7529 52.1225 47.0995 52.3896 47.5062 52.5029L49.0432 52.9149L47.8072 57.5102C47.7533 57.7111 47.7396 57.9206 47.7671 58.1267C47.7945 58.3328 47.8624 58.5315 47.967 58.7112C48.0716 58.8909 48.2108 59.0482 48.3765 59.1739C48.5421 59.2995 48.731 59.3912 48.9323 59.4434C48.9323 59.4434 55.3182 61.139 55.4608 61.139C55.7376 61.1345 56.0093 61.0639 56.2531 60.933C56.6175 60.7197 56.8846 60.373 56.9979 59.9664L58.218 55.371C58.218 55.371 60.0245 55.8306 60.1671 55.8306C60.5147 55.831 60.8526 55.7162 61.1279 55.504C61.4032 55.2918 61.6003 54.9942 61.6883 54.658L62.9243 50.0785C62.9243 50.0785 64.7149 50.538 64.8575 50.538C65.2072 50.5396 65.5476 50.4254 65.8256 50.2133C66.1036 50.0012 66.3036 49.7031 66.3946 49.3654L67.6464 44.6592C68.6713 45.0204 69.7453 45.2234 70.8314 45.2613C73.0241 51.017 73.4782 57.29 72.1373 63.3015C70.7964 69.313 67.7196 74.7983 63.2887 79.0766C62.2994 77.4691 60.915 76.1417 59.2674 75.2208C57.6197 74.2999 55.7638 73.8162 53.8762 73.8157C53.3456 73.8179 52.8159 73.8603 52.2917 73.9425V72.2311H63.3838C63.8041 72.2311 64.2071 72.0642 64.5043 71.767C64.8015 71.4698 64.9684 71.0668 64.9684 70.6465V65.8928C64.9684 65.4725 64.8015 65.0694 64.5043 64.7723C64.2071 64.4751 63.8041 64.3082 63.3838 64.3082H31.6919C31.2716 64.3082 30.8686 64.4751 30.5714 64.7723C30.2743 65.0694 30.1073 65.4725 30.1073 65.8928V70.6465C30.1073 71.0668 30.2743 71.4698 30.5714 71.767C30.8686 72.0642 31.2716 72.2311 31.6919 72.2311H42.7841V86.4925H26.9381C25.6785 86.4963 24.4715 86.9983 23.5808 87.889C22.6901 88.7797 22.1881 89.9867 22.1843 91.2463V94.4155C22.1843 94.8357 22.3513 95.2388 22.6484 95.536C22.9456 95.8331 23.3487 96.0001 23.7689 96.0001H83.9836C84.4038 96.0001 84.8069 95.8331 85.1041 95.536C85.4012 95.2388 85.5682 94.8357 85.5682 94.4155V91.2463C85.5644 89.9867 85.0624 88.7797 84.1717 87.889C83.281 86.9983 82.074 86.4963 80.8144 86.4925ZM59.8185 6.58132L60.6266 3.52304L72.8756 6.80316L72.0516 9.86143L59.8185 6.58132ZM66.6481 11.6996L65.8241 14.7578L62.7658 13.9338L63.5898 10.8756L66.6481 11.6996ZM54.3358 57.6212L51.2775 56.7972L52.1015 53.7389L55.1598 54.547L54.3358 57.6212ZM59.042 52.3128L49.8514 49.8566L50.6754 46.7825L59.866 49.2545L59.042 52.3128ZM63.7324 47.0044L48.4252 42.9003L55.8253 15.3441L71.1167 19.4641L70.1184 23.172C67.8928 23.4083 65.7912 24.3135 64.0905 25.7683C62.3897 27.223 61.1698 29.159 60.5916 31.3211C60.0133 33.4831 60.1039 35.7696 60.8513 37.8792C61.5987 39.9887 62.9678 41.8222 64.7783 43.1379L63.7324 47.0044ZM71.3068 42.1238C69.7398 42.1238 68.208 41.6591 66.905 40.7885C65.6021 39.918 64.5866 38.6806 63.9869 37.2328C63.3873 35.7851 63.2304 34.192 63.5361 32.6551C63.8418 31.1182 64.5964 29.7065 65.7044 28.5984C66.8125 27.4904 68.2242 26.7358 69.7611 26.4301C71.298 26.1244 72.8911 26.2813 74.3388 26.8809C75.7865 27.4806 77.0239 28.4961 77.8945 29.7991C78.7651 31.102 79.2298 32.6338 79.2298 34.2008C79.2298 36.3021 78.395 38.3174 76.9092 39.8032C75.4234 41.2891 73.4081 42.1238 71.3068 42.1238ZM76.0606 56.3852C76.0508 52.482 75.3811 48.6085 74.0798 44.9285C76.2256 44.3682 78.1561 43.1823 79.6259 41.5217C81.4718 46.2591 82.4124 51.3008 82.399 56.3852C82.3913 62.0332 81.2243 67.6196 78.9702 72.7984C76.716 77.9771 73.4228 82.6381 69.2944 86.4925H64.9684V84.9079C64.9658 83.9885 64.8487 83.0729 64.6198 82.1824C68.2204 78.918 71.0983 74.9366 73.0686 70.4938C75.0389 66.051 76.0581 61.2452 76.0606 56.3852ZM53.8762 76.9849C55.9776 76.9849 57.9928 77.8197 59.4786 79.3055C60.9645 80.7914 61.7992 82.8066 61.7992 84.9079V86.4925H45.9533V84.9079C45.9533 82.8066 46.788 80.7914 48.2739 79.3055C49.7597 77.8197 51.7749 76.9849 53.8762 76.9849ZM45.9533 77.1592V72.2311H49.1225V74.9091C47.9374 75.4591 46.8632 76.2217 45.9533 77.1592ZM33.2765 69.0619V67.4773H61.7992V69.0619H33.2765ZM82.399 92.8309H25.3535V91.2463C25.3535 90.826 25.5205 90.423 25.8176 90.1258C26.1148 89.8286 26.5179 89.6617 26.9381 89.6617H80.8144C81.2346 89.6617 81.6377 89.8286 81.9349 90.1258C82.232 90.423 82.399 90.826 82.399 91.2463V92.8309Z" fill="black" stroke="#FCCFBD" stroke-width="0.6" mask="url(#path-1-inside-1_63_2097)"/>
<path d="M3.31919 64.3081V64.1581H3.16919H1.5846C1.20412 64.1581 0.839222 64.007 0.570184 63.738C0.301145 63.4689 0.15 63.104 0.15 62.7235V56.3852C0.15 56.0047 0.301145 55.6398 0.570184 55.3707C0.839223 55.1017 1.20412 54.9506 1.5846 54.9506H20.5997C20.9802 54.9506 21.3451 55.1017 21.6142 55.3707C21.8832 55.6398 22.0343 56.0047 22.0343 56.3852V62.7235C22.0343 63.104 21.8832 63.4689 21.6142 63.738C21.3451 64.007 20.9802 64.1581 20.5997 64.1581H19.0152H18.8652V64.3081V88.0771C18.8652 90.1386 18.0462 92.1157 16.5885 93.5734C15.1308 95.0311 13.1537 95.8501 11.0922 95.8501C9.03065 95.8501 7.05356 95.0311 5.59585 93.5734C4.13813 92.1157 3.31919 90.1386 3.31919 88.0771V64.3081ZM6.33838 86.3425H6.18838V86.4925V88.0771C6.18838 89.3777 6.70503 90.6249 7.62467 91.5446C8.54431 92.4642 9.79161 92.9809 11.0922 92.9809C12.3927 92.9809 13.64 92.4642 14.5597 91.5446C15.4793 90.6249 15.996 89.3777 15.996 88.0771V73.8157V73.6657H15.846H6.33838H6.18838V73.8157V76.9849V77.1349H6.33838H9.50758C9.88805 77.1349 10.2529 77.2861 10.522 77.5551C10.791 77.8241 10.9422 78.189 10.9422 78.5695C10.9422 78.95 10.791 79.3149 10.522 79.5839C10.2529 79.853 9.88805 80.0041 9.50758 80.0041H6.33838H6.18838V80.1541V83.3233V83.4733H6.33838H9.50758C9.88805 83.4733 10.2529 83.6244 10.522 83.8935C10.791 84.1625 10.9422 84.5274 10.9422 84.9079C10.9422 85.2884 10.791 85.6533 10.522 85.9223C10.2529 86.1913 9.88805 86.3425 9.50758 86.3425H6.33838ZM15.846 70.7965H15.996V70.6465V64.3081V64.1581H15.846H6.33838H6.18838V64.3081V70.6465V70.7965H6.33838H15.846ZM19.0152 61.289H19.1652V61.139V57.9698V57.8198H19.0152H3.16919H3.01919V57.9698V61.139V61.289H3.16919H19.0152Z" fill="#E8252C" stroke="#FCCFBD" stroke-width="0.3"/>
<path d="M67.4789 36.7585C66.973 36.0014 66.703 35.1114 66.703 34.2008C66.703 32.9798 67.188 31.8088 68.0514 30.9454C68.9148 30.0821 70.0858 29.597 71.3068 29.597C72.2173 29.597 73.1074 29.867 73.8645 30.3729C74.6216 30.8788 75.2117 31.5978 75.5601 32.439C75.9086 33.2802 75.9997 34.2059 75.8221 35.099C75.6445 35.992 75.206 36.8123 74.5621 37.4562C73.9183 38.1 73.098 38.5385 72.2049 38.7161C71.3119 38.8938 70.3862 38.8026 69.545 38.4542C68.7037 38.1057 67.9847 37.5156 67.4789 36.7585ZM72.749 35.1645C72.9396 34.8792 73.0414 34.5439 73.0414 34.2008C73.0414 33.7408 72.8586 33.2996 72.5333 32.9743C72.208 32.649 71.7668 32.4662 71.3068 32.4662C70.9637 32.4662 70.6283 32.5679 70.3431 32.7585C70.0578 32.9491 69.8355 33.2201 69.7042 33.537C69.5729 33.854 69.5386 34.2027 69.6055 34.5392C69.6724 34.8757 69.8376 35.1848 70.0802 35.4274C70.3228 35.6699 70.6319 35.8351 70.9684 35.9021C71.3048 35.969 71.6536 35.9347 71.9706 35.8034C72.2875 35.6721 72.5584 35.4498 72.749 35.1645Z" fill="black" stroke="#FCCFBD" stroke-width="0.3"/>
</svg>
