<svg width="20" height="29" viewBox="0 0 20 29" fill="none" xmlns="http://www.w3.org/2000/svg">
<path d="M9.30661 28.0733C9.46117 28.3052 9.72139 28.4444 10 28.4444C10.2786 28.4444 10.5388 28.3052 10.6934 28.0733C12.6656 25.1152 15.5704 21.4618 17.5946 17.7462C19.2132 14.7753 20 12.2414 20 10C20 4.486 15.514 0 10 0C4.486 0 0 4.486 0 10C0 12.2414 0.786833 14.7753 2.40539 17.7462C4.42811 21.4589 7.3385 25.1213 9.30661 28.0733ZM10 1.66667C14.595 1.66667 18.3333 5.405 18.3333 10C18.3333 11.9558 17.6129 14.2288 16.1311 16.9488C14.3862 20.1516 11.8963 23.4004 10 26.1316C8.10394 23.4008 5.61389 20.1517 3.86894 16.9488C2.38706 14.2288 1.66667 11.9558 1.66667 10C1.66667 5.405 5.405 1.66667 10 1.66667Z" fill="#E8252C"/>
<path d="M10 15C12.757 15 15 12.757 15 10C15 7.243 12.757 5 10 5C7.243 5 5 7.243 5 10C5 12.757 7.243 15 10 15ZM10 6.66667C11.838 6.66667 13.3333 8.162 13.3333 10C13.3333 11.838 11.838 13.3333 10 13.3333C8.162 13.3333 6.66667 11.838 6.66667 10C6.66667 8.162 8.162 6.66667 10 6.66667Z" fill="#E8252C"/>
</svg>
