<svg width="15" height="15" viewBox="0 0 15 15" fill="none" xmlns="http://www.w3.org/2000/svg">
<path d="M0.972147 15.0119C0.723371 15.0119 0.474418 14.9167 0.285078 14.7272C-0.0950259 14.3473 -0.0950259 13.733 0.285078 13.3531L13.3408 0.297151C13.7207 -0.0827743 14.335 -0.0827743 14.715 0.297151C15.0951 0.677076 15.0951 1.29136 14.715 1.67129L1.65922 14.7272C1.46863 14.9176 1.22092 15.0119 0.972147 15.0119Z" fill="#F44336"/>
<path d="M14.0279 15.0119C13.7791 15.0119 13.5303 14.9167 13.3408 14.7272L0.285078 1.67129C-0.0950259 1.29136 -0.0950259 0.677076 0.285078 0.297151C0.665003 -0.0827743 1.27911 -0.0827743 1.65922 0.297151L14.715 13.3531C15.0951 13.733 15.0951 14.3473 14.715 14.7272C14.5254 14.9176 14.2767 15.0119 14.0279 15.0119Z" fill="#F44336"/>
</svg>
