<svg width="97" height="97" viewBox="0 0 97 97" fill="none" xmlns="http://www.w3.org/2000/svg">
<path d="M48.4938 58.4423C46.5264 58.4423 44.6032 57.8589 42.9674 56.7658C41.3316 55.6728 40.0566 54.1193 39.3037 52.3016C38.5508 50.484 38.3538 48.4839 38.7376 46.5543C39.1215 44.6247 40.0689 42.8523 41.46 41.4611C42.8512 40.07 44.6236 39.1226 46.5532 38.7387C48.4828 38.3549 50.4829 38.5519 52.3005 39.3048C54.1182 40.0577 55.6717 41.3327 56.7647 42.9685C57.8578 44.6043 58.4412 46.5275 58.4412 48.4949C58.4382 51.1322 57.3892 53.6606 55.5243 55.5254C53.6595 57.3903 51.1311 58.4393 48.4938 58.4423ZM48.4938 41.3897C47.0886 41.3897 45.7148 41.8064 44.5464 42.5872C43.3779 43.3679 42.4672 44.4776 41.9295 45.7759C41.3917 47.0742 41.251 48.5028 41.5251 49.8811C41.7993 51.2594 42.476 52.5254 43.4697 53.5191C44.4634 54.5128 45.7294 55.1895 47.1077 55.4637C48.486 55.7378 49.9146 55.5971 51.2129 55.0593C52.5112 54.5215 53.6209 53.6109 54.4016 52.4424C55.1824 51.274 55.5991 49.9002 55.5991 48.4949C55.5971 46.6111 54.8478 44.8051 53.5158 43.473C52.1837 42.1409 50.3777 41.3917 48.4938 41.3897Z" fill="#E8252C"/>
<path d="M48.4937 12.7793C47.5568 12.7793 46.641 12.5015 45.862 11.981C45.0831 11.4605 44.4759 10.7207 44.1174 9.85519C43.7589 8.98965 43.6651 8.03723 43.8479 7.11838C44.0306 6.19953 44.4818 5.35551 45.1442 4.69305C45.8067 4.03059 46.6507 3.57945 47.5696 3.39668C48.4884 3.21391 49.4408 3.30772 50.3064 3.66624C51.1719 4.02475 51.9117 4.63188 52.4322 5.41085C52.9527 6.18982 53.2305 7.10563 53.2305 8.04249C53.2305 8.66454 53.108 9.28049 52.8699 9.85519C52.6319 10.4299 52.283 10.9521 51.8431 11.3919C51.4032 11.8318 50.8811 12.1807 50.3064 12.4187C49.7317 12.6568 49.1157 12.7793 48.4937 12.7793ZM48.4937 6.14776C48.1189 6.14776 47.7526 6.25888 47.441 6.46708C47.1294 6.67527 46.8866 6.97119 46.7432 7.31741C46.5998 7.66362 46.5622 8.04459 46.6353 8.41213C46.7084 8.77967 46.8889 9.11728 47.1539 9.38227C47.4189 9.64725 47.7565 9.8277 48.124 9.90081C48.4916 9.97392 48.8725 9.9364 49.2187 9.79299C49.565 9.64958 49.8609 9.40673 50.0691 9.09514C50.2773 8.78356 50.3884 8.41723 50.3884 8.04249C50.3884 7.53998 50.1888 7.05804 49.8334 6.70271C49.4781 6.34738 48.9962 6.14776 48.4937 6.14776Z" fill="#E8252C"/>
<path d="M93.1507 50.672C93.6313 49.7406 93.7893 48.6762 93.6002 47.6454C93.4111 46.6145 92.8854 45.6756 92.1056 44.9754C91.3257 44.2753 90.3357 43.8536 89.2905 43.7762C88.2454 43.6989 87.2041 43.9704 86.3297 44.5482C84.1286 42.9708 81.8364 41.5246 79.4651 40.2169C80.7284 38.1175 81.882 35.9539 82.9211 33.735C87.2998 24.3068 87.6162 17.0159 83.8097 13.2056C80.0032 9.3953 72.7123 9.70793 63.2728 14.0791C61.056 15.1153 58.8943 16.2657 56.7966 17.5256C56.3797 16.7778 55.9559 16.0445 55.5252 15.3258C55.4321 15.1602 55.3068 15.015 55.1566 14.8986C55.0064 14.7823 54.8344 14.6973 54.6508 14.6486C54.4672 14.5999 54.2757 14.5885 54.0876 14.615C53.8995 14.6416 53.7187 14.7056 53.5557 14.8033C53.3928 14.901 53.2511 15.0303 53.1391 15.1837C53.027 15.3371 52.9468 15.5114 52.9032 15.6963C52.8597 15.8812 52.8537 16.073 52.8855 16.2602C52.9173 16.4475 52.9864 16.6265 53.0886 16.7866C53.5244 17.5142 53.9545 18.2601 54.3789 19.0243C50.366 21.6234 46.5285 24.4837 42.8912 27.5866C39.8912 27.0409 36.9367 26.6171 34.0276 26.3152C33.6548 26.2805 33.2833 26.3943 32.9939 26.6319C32.7045 26.8695 32.5206 27.2118 32.4822 27.5842C32.4437 27.9567 32.5538 28.3293 32.7886 28.621C33.0233 28.9128 33.3638 29.1 33.7358 29.1422C35.839 29.3594 37.9705 29.6436 40.1305 29.9948C38.376 31.5687 36.6417 33.2108 34.9276 34.9211C33.2135 36.6314 31.5664 38.3708 29.9862 40.1392C26.5984 19.3957 29.9255 4.72669 36.3259 3.02143C37.5007 2.7069 38.8004 2.80922 40.1893 3.32459C40.5428 3.45574 40.9339 3.44109 41.2766 3.28386C41.6194 3.12662 41.8856 2.83969 42.0167 2.48617C42.1479 2.13265 42.1332 1.74151 41.976 1.39879C41.8188 1.05608 41.5318 0.789858 41.1783 0.658702C39.2267 -0.0650849 37.3472 -0.193926 35.5908 0.279756C30.3897 1.67049 27.0133 8.13909 26.0811 18.4938C25.4426 25.599 25.9769 34.0173 27.5874 42.8979C24.4843 46.53 21.6228 50.3618 19.0214 54.3686C16.7516 53.1207 14.5569 51.7409 12.4485 50.2362C12.668 49.682 12.7799 49.091 12.7782 48.4949C12.778 47.6808 12.5679 46.8804 12.1683 46.1711C11.7687 45.4618 11.1929 44.8674 10.4967 44.4454C9.80046 44.0234 9.00719 43.788 8.19346 43.7618C7.37972 43.7357 6.57298 43.9197 5.85109 44.2962C3.981 42.0529 2.27385 39.0743 3.02037 36.291C4.14015 32.1226 10.7547 29.3013 20.7171 28.7481C21.094 28.7272 21.4472 28.5575 21.6989 28.2763C21.9507 27.995 22.0804 27.6253 22.0596 27.2484C22.0387 26.8715 21.869 26.5183 21.5877 26.2666C21.3065 26.0148 20.9368 25.8851 20.5599 25.906C8.9755 26.5521 1.77174 29.9777 0.274906 35.5539C-0.602354 38.8261 0.62922 42.5303 3.837 46.3179C3.35648 47.2493 3.19842 48.3137 3.38754 49.3445C3.57667 50.3753 4.10231 51.3143 4.88216 52.0144C5.66201 52.7146 6.65203 53.1363 7.69719 53.2136C8.74236 53.2909 9.78365 53.0194 10.658 52.4417C12.8592 54.019 15.1513 55.4653 17.5226 56.773C16.2593 58.8724 15.1058 61.0359 14.0666 63.2549C9.68792 72.683 9.3715 79.974 13.178 83.7843C14.9439 85.552 17.4222 86.4369 20.5675 86.4369C20.9464 86.4369 21.35 86.4217 21.7536 86.3952C22.2454 87.3311 23.0362 88.0755 24 88.51C24.9638 88.9445 26.0453 89.044 27.0723 88.7928C28.0992 88.5416 29.0126 87.954 29.667 87.1236C30.3214 86.2932 30.6792 85.2678 30.6834 84.2106C33.9742 82.8965 37.1505 81.3121 40.1798 79.4738C41.3655 81.616 42.6613 83.6954 44.0621 85.7036C49.2518 93.0722 54.5703 97 59.2938 97C60.0065 97.0005 60.7161 96.9075 61.4046 96.7234C66.6056 95.3326 69.982 88.864 70.9142 78.5093C71.1245 76.0711 71.2087 73.6236 71.1662 71.1767C71.5811 71.1767 71.998 71.1881 72.4072 71.1881C74.5237 71.1881 76.5605 71.1028 78.4969 70.9304C88.8535 70.0077 95.324 66.637 96.7204 61.4359C97.5901 58.1581 96.3585 54.4595 93.1507 50.672ZM8.0414 50.3897C7.66666 50.3897 7.30033 50.2785 6.98875 50.0703C6.67716 49.8621 6.43431 49.5662 6.2909 49.22C6.14749 48.8738 6.10997 48.4928 6.18308 48.1253C6.25619 47.7578 6.43664 47.4201 6.70162 47.1552C6.96661 46.8902 7.30422 46.7097 7.67176 46.6366C8.0393 46.5635 8.42027 46.601 8.76648 46.7444C9.1127 46.8878 9.40862 47.1307 9.61681 47.4423C9.82501 47.7539 9.93613 48.1202 9.93613 48.4949C9.93613 48.9974 9.73651 49.4794 9.38118 49.8347C9.02585 50.19 8.54391 50.3897 8.0414 50.3897ZM88.9463 46.6002C89.3211 46.6002 89.6874 46.7113 89.999 46.9195C90.3106 47.1277 90.5534 47.4236 90.6968 47.7699C90.8402 48.1161 90.8778 48.497 90.8047 48.8646C90.7316 49.2321 90.5511 49.5697 90.2861 49.8347C90.0211 50.0997 89.6835 50.2801 89.316 50.3533C88.9484 50.4264 88.5675 50.3888 88.2213 50.2454C87.875 50.102 87.5791 49.8592 87.3709 49.5476C87.1627 49.236 87.0516 48.8697 87.0516 48.4949C87.0516 47.9924 87.2512 47.5105 87.6066 47.1552C87.9619 46.7998 88.4438 46.6002 88.9463 46.6002ZM64.4759 16.6635C72.6232 12.8854 78.9403 12.3605 81.7994 15.2216C85.316 18.7401 83.6676 27.7268 76.9773 38.8905C72.7162 36.7141 68.3189 34.8154 63.8128 33.2064C62.2188 28.6956 60.3295 24.2947 58.157 20.0323C60.2029 18.7995 62.3121 17.675 64.4759 16.6635ZM67.0262 43.5421C66.401 41.2078 65.7226 38.9152 64.9951 36.6794C68.5677 38.0264 72.0643 39.5672 75.4691 41.295C73.3851 44.4936 71.1244 47.5735 68.6974 50.5204C68.2111 48.2139 67.654 45.8859 67.0262 43.5364V43.5421ZM55.7261 21.5405C57.4581 24.9428 59.0009 28.4382 60.3473 32.0108C58.0976 31.2731 55.8037 30.5904 53.4656 29.9626C51.1275 29.3348 48.8027 28.7765 46.4911 28.2876C49.4426 25.87 52.5256 23.6175 55.7261 21.5405ZM36.936 36.9371C39.1566 34.7184 41.4227 32.6095 43.704 30.6314C46.6812 31.2074 49.6869 31.9022 52.721 32.7156C55.7526 33.5285 58.7084 34.4398 61.5732 35.4346C62.5565 38.288 63.4679 41.2419 64.2713 44.2754C65.1012 47.3751 65.7871 50.3878 66.3555 53.2943C64.4191 55.5244 62.314 57.7791 60.0517 60.0528C59.4662 60.6383 58.8675 61.2237 58.2745 61.7959C58.1286 61.9221 58.01 62.0767 57.9258 62.2502C57.8416 62.4237 57.7936 62.6126 57.7847 62.8053C57.7758 62.9979 57.8063 63.1904 57.8742 63.3709C57.9421 63.5514 58.046 63.7162 58.1797 63.8553C58.3133 63.9944 58.4739 64.1048 58.6516 64.1798C58.8293 64.2548 59.0204 64.2928 59.2132 64.2916C59.4061 64.2904 59.5967 64.2499 59.7734 64.1727C59.9502 64.0954 60.1093 63.983 60.2412 63.8422C60.8456 63.2606 61.4557 62.6618 62.0544 62.0631C63.7698 60.3439 65.4189 58.6065 67.0016 56.8507C67.6261 60.6212 68.041 64.4234 68.2445 68.2399C60.838 67.861 52.6149 66.5195 44.2592 64.278C41.2276 63.4652 38.2661 62.5519 35.3994 61.5553C34.4388 58.7606 33.535 55.8124 32.7089 52.7183C31.8828 49.6242 31.1931 46.6059 30.6247 43.6994C32.5781 41.4655 34.6737 39.2108 36.936 36.9371ZM28.2828 46.4638C28.7691 48.7754 29.3262 51.1059 29.9539 53.4553C30.5817 55.8048 31.2594 58.093 31.987 60.3199C28.4166 58.9685 24.922 57.4245 21.5186 55.6949C23.6024 52.4937 25.8631 49.4112 28.2904 46.4619L28.2828 46.4638ZM25.9466 86.1053C25.5719 86.1053 25.2055 85.9942 24.8939 85.786C24.5823 85.5778 24.3395 85.2819 24.1961 84.9357C24.0527 84.5894 24.0152 84.2085 24.0883 83.8409C24.1614 83.4734 24.3418 83.1358 24.6068 82.8708C24.8718 82.6058 25.2094 82.4254 25.577 82.3523C25.9445 82.2791 26.3255 82.3167 26.6717 82.4601C27.0179 82.6035 27.3138 82.8463 27.522 83.1579C27.7302 83.4695 27.8413 83.8358 27.8413 84.2106C27.8413 84.7131 27.6417 85.195 27.2864 85.5504C26.931 85.9057 26.4491 86.1053 25.9466 86.1053ZM29.8194 81.4879C29.2711 80.7098 28.5012 80.115 27.6099 79.7809C26.7186 79.4469 25.7474 79.3891 24.8228 79.6151C23.8982 79.841 23.0631 80.3403 22.4264 81.0479C21.7897 81.7554 21.3809 82.6383 21.2533 83.5815C18.5534 83.7085 16.5165 83.1041 15.1902 81.774C11.6736 78.2554 13.322 69.2687 20.0123 58.105C24.2738 60.2819 28.6719 62.1806 33.1788 63.7892C34.7729 68.2962 36.661 72.6939 38.8308 76.9538C35.9554 78.7078 32.9416 80.2242 29.8194 81.4879ZM60.6618 93.9779C60.2212 94.0956 59.7669 94.1542 59.3109 94.1522C54.6044 94.1522 48.3215 88.3165 42.5785 77.975C44.5579 76.7043 46.5612 75.3098 48.5886 73.7915C48.8901 73.5653 49.0894 73.2287 49.1427 72.8556C49.196 72.4825 49.0989 72.1035 48.8728 71.802C48.6467 71.5005 48.31 71.3012 47.9369 71.2479C47.5639 71.1946 47.1849 71.2917 46.8834 71.5178C44.9886 72.9426 43.1065 74.2563 41.2371 75.4588C39.5074 72.0537 37.9684 68.5551 36.6272 64.9791C38.88 65.7161 41.1745 66.4039 43.5221 67.0311C52.1526 69.3483 60.6637 70.7277 68.3431 71.0953C68.542 84.0855 65.4669 92.6933 60.6618 93.9779ZM93.9674 60.6989C92.9196 64.6058 87.1861 67.3039 78.2411 68.0997C75.8577 68.3042 73.4651 68.3827 71.0734 68.3346C70.8291 63.5601 70.2715 58.8067 69.4041 54.1052C72.5074 50.4719 75.3689 46.6388 77.9702 42.6307C80.24 43.8786 82.4347 45.2584 84.543 46.7631C84.3234 47.3142 84.2102 47.9018 84.2095 48.4949C84.2097 49.3091 84.4198 50.1094 84.8194 50.8188C85.2191 51.5281 85.7948 52.1224 86.491 52.5444C87.1873 52.9665 87.9805 53.2019 88.7943 53.228C89.608 53.2542 90.4148 53.0701 91.1367 52.6937C93.0067 54.9465 94.7139 57.9155 93.9674 60.6989Z" fill="black"/>
<path d="M89.0369 53.1737C88.1 53.1737 87.1842 52.8959 86.4052 52.3754C85.6263 51.8549 85.0191 51.1151 84.6606 50.2495C84.3021 49.384 84.2083 48.4316 84.3911 47.5127C84.5738 46.5939 85.025 45.7499 85.6874 45.0874C86.3499 44.4249 87.1939 43.9738 88.1128 43.791C89.0316 43.6083 89.984 43.7021 90.8496 44.0606C91.7151 44.4191 92.4549 45.0262 92.9754 45.8052C93.4959 46.5842 93.7737 47.5 93.7737 48.4368C93.7737 49.0589 93.6512 49.6748 93.4131 50.2495C93.1751 50.8242 92.8262 51.3464 92.3863 51.7863C91.9465 52.2261 91.4243 52.575 90.8496 52.8131C90.2749 53.0511 89.6589 53.1737 89.0369 53.1737ZM89.0369 46.5421C88.6621 46.5421 88.2958 46.6532 87.9842 46.8614C87.6726 47.0696 87.4298 47.3655 87.2864 47.7118C87.143 48.058 87.1054 48.4389 87.1786 48.8065C87.2517 49.174 87.4321 49.5116 87.6971 49.7766C87.9621 50.0416 88.2997 50.2221 88.6672 50.2952C89.0348 50.3683 89.4157 50.3307 89.762 50.1873C90.1082 50.0439 90.4041 49.8011 90.6123 49.4895C90.8205 49.1779 90.9316 48.8116 90.9316 48.4368C90.9316 47.9343 90.732 47.4524 90.3767 47.0971C90.0213 46.7417 89.5394 46.5421 89.0369 46.5421Z" fill="#E8252C"/>
<path d="M8.13673 53.1736C7.19987 53.1736 6.28406 52.8958 5.50509 52.3753C4.72612 51.8548 4.11899 51.115 3.76048 50.2495C3.40196 49.3839 3.30815 48.4315 3.49092 47.5127C3.67369 46.5938 4.12483 45.7498 4.78729 45.0873C5.44974 44.4249 6.29377 43.9737 7.21262 43.791C8.13147 43.6082 9.08389 43.702 9.94943 44.0605C10.815 44.419 11.5548 45.0262 12.0753 45.8051C12.5957 46.5841 12.8736 47.4999 12.8736 48.4368C12.8736 49.0588 12.751 49.6748 12.513 50.2495C12.2749 50.8242 11.926 51.3464 11.4862 51.7862C11.0463 52.2261 10.5241 52.575 9.94943 52.813C9.37473 53.0511 8.75878 53.1736 8.13673 53.1736ZM8.13673 46.542C7.76199 46.542 7.39566 46.6532 7.08407 46.8614C6.77249 47.0696 6.52963 47.3655 6.38623 47.7117C6.24282 48.0579 6.2053 48.4389 6.27841 48.8064C6.35152 49.174 6.53197 49.5116 6.79695 49.7766C7.06193 50.0415 7.39954 50.222 7.76709 50.2951C8.13463 50.3682 8.5156 50.3307 8.86181 50.1873C9.20803 50.0439 9.50394 49.801 9.71214 49.4894C9.92033 49.1778 10.0315 48.8115 10.0315 48.4368C10.0315 47.9343 9.83184 47.4523 9.47651 47.097C9.12118 46.7417 8.63924 46.542 8.13673 46.542Z" fill="#E8252C"/>
<path d="M25.9868 88.9736C25.05 88.9736 24.1342 88.6958 23.3552 88.1753C22.5762 87.6549 21.9691 86.9151 21.6106 86.0495C21.2521 85.184 21.1582 84.2316 21.341 83.3127C21.5238 82.3939 21.9749 81.5498 22.6374 80.8874C23.2998 80.2249 24.1439 79.7738 25.0627 79.591C25.9816 79.4082 26.934 79.5021 27.7995 79.8606C28.6651 80.2191 29.4049 80.8262 29.9254 81.6052C30.4458 82.3842 30.7236 83.3 30.7236 84.2368C30.7236 84.8589 30.6011 85.4748 30.3631 86.0495C30.125 86.6242 29.7761 87.1464 29.3363 87.5863C28.8964 88.0261 28.3742 88.375 27.7995 88.6131C27.2248 88.8511 26.6089 88.9736 25.9868 88.9736ZM25.9868 82.3421C25.6121 82.3421 25.2458 82.4532 24.9342 82.6614C24.6226 82.8696 24.3797 83.1655 24.2363 83.5117C24.0929 83.858 24.0554 84.2389 24.1285 84.6065C24.2016 84.974 24.3821 85.3116 24.647 85.5766C24.912 85.8416 25.2496 86.022 25.6172 86.0951C25.9847 86.1683 26.3657 86.1307 26.7119 85.9873C27.0581 85.8439 27.354 85.6011 27.5622 85.2895C27.7704 84.9779 27.8816 84.6116 27.8816 84.2368C27.8816 83.7343 27.6819 83.2524 27.3266 82.897C26.9713 82.5417 26.4893 82.3421 25.9868 82.3421Z" fill="#E8252C"/>
</svg>
