<svg width="17" height="17" viewBox="0 0 17 17" fill="none" xmlns="http://www.w3.org/2000/svg">
<path d="M8.08846 12.8214V6.90214H9.08719V12.8214H8.08846ZM8.6 5.68417C8.40513 5.68417 8.2387 5.62327 8.10064 5.50148C7.97074 5.37968 7.90576 5.22541 7.90576 5.03865C7.90576 4.84377 7.97074 4.6895 8.10064 4.57582C8.2387 4.45403 8.40513 4.39313 8.6 4.39313C8.79488 4.39313 8.9573 4.45403 9.08719 4.57582C9.22525 4.6895 9.29424 4.84377 9.29424 5.03865C9.29424 5.22541 9.22525 5.37968 9.08719 5.50148C8.9573 5.62327 8.79488 5.68417 8.6 5.68417Z" fill="#E8252C"/>
<path d="M8.52273 16.0455C12.6774 16.0455 16.0455 12.6774 16.0455 8.52273C16.0455 4.36804 12.6774 1 8.52273 1C4.36804 1 1 4.36804 1 8.52273C1 12.6774 4.36804 16.0455 8.52273 16.0455Z" stroke="#E8252C"/>
</svg>
