<svg width="13" height="13" viewBox="0 0 13 13" fill="none" xmlns="http://www.w3.org/2000/svg">
<path d="M10.9436 7.74933C10.6598 7.4552 10.3176 7.29794 9.95485 7.29794C9.59505 7.29794 9.24987 7.45229 8.95442 7.74642L8.03006 8.66375C7.954 8.62298 7.87794 8.58513 7.80481 8.54727C7.69951 8.49485 7.60005 8.44534 7.51522 8.39292C6.64935 7.84543 5.86247 7.13194 5.10776 6.20878C4.74211 5.74866 4.49639 5.36133 4.31796 4.96819C4.55782 4.74978 4.78014 4.52263 4.99661 4.30421C5.07851 4.22267 5.16042 4.13822 5.24232 4.05668C5.85662 3.44512 5.85662 2.653 5.24232 2.04144L4.44374 1.24642C4.35306 1.15614 4.25945 1.06295 4.17169 0.969758C3.99618 0.789203 3.81189 0.602823 3.62175 0.428091C3.33801 0.148521 2.99868 0 2.64181 0C2.28493 0 1.93975 0.148521 1.64723 0.428091C1.64431 0.431004 1.64431 0.431004 1.64138 0.433916L0.646809 1.4328C0.272381 1.80556 0.0588403 2.25986 0.0120368 2.78696C-0.0581684 3.63732 0.1934 4.42944 0.386465 4.9478C0.86035 6.22043 1.56825 7.39987 2.62426 8.66375C3.9055 10.1868 5.44709 11.3896 7.20807 12.237C7.88087 12.5544 8.77891 12.9301 9.78226 12.9942C9.84369 12.9971 9.90804 13 9.96655 13C10.6423 13 11.2098 12.7583 11.6544 12.2778C11.6573 12.272 11.6632 12.269 11.6661 12.2632C11.8182 12.0798 11.9937 11.9138 12.178 11.7361C12.3038 11.6167 12.4325 11.4915 12.5583 11.3604C12.8479 11.0605 13 10.711 13 10.3528C13 9.99171 12.845 9.64516 12.5495 9.35394L10.9436 7.74933ZM11.9908 10.8159C11.9879 10.8159 11.9879 10.8188 11.9908 10.8159C11.8767 10.9382 11.7597 11.0488 11.6339 11.1711C11.4438 11.3517 11.2507 11.541 11.0694 11.7536C10.7739 12.0681 10.4258 12.2166 9.96947 12.2166C9.9256 12.2166 9.87879 12.2166 9.83492 12.2137C8.96613 12.1584 8.15877 11.8206 7.55325 11.5323C5.89757 10.7343 4.44374 9.60148 3.23563 8.16577C2.23813 6.96886 1.57118 5.86223 1.12947 4.67406C0.857425 3.94892 0.757967 3.38396 0.801845 2.85103C0.831098 2.5103 0.962732 2.22782 1.20553 1.98611L2.20302 0.993056C2.34636 0.859095 2.49847 0.78629 2.64766 0.78629C2.83195 0.78629 2.98113 0.896953 3.07474 0.990143C3.07766 0.993056 3.08059 0.995968 3.08351 0.99888C3.26195 1.16487 3.43162 1.33669 3.61005 1.52016C3.70074 1.61335 3.79434 1.70654 3.88795 1.80264L4.68653 2.59767C4.99661 2.90636 4.99661 3.19176 4.68653 3.50045C4.6017 3.5849 4.5198 3.66935 4.43496 3.7509C4.18925 4.00134 3.95523 4.23432 3.70074 4.46147C3.69488 4.46729 3.68903 4.47021 3.68611 4.47603C3.43454 4.72648 3.48134 4.9711 3.534 5.1371C3.53692 5.14583 3.53985 5.15457 3.54277 5.16331C3.75046 5.6642 4.04299 6.13598 4.48762 6.69803L4.49054 6.70094C5.2979 7.69108 6.14914 8.46281 7.08814 9.05399C7.20807 9.1297 7.33093 9.19086 7.44794 9.2491C7.55325 9.30152 7.6527 9.35103 7.73753 9.40345C7.74923 9.40927 7.76094 9.41801 7.77264 9.42384C7.87209 9.47334 7.9657 9.49664 8.06223 9.49664C8.30503 9.49664 8.45714 9.34521 8.50687 9.2957L9.50729 8.29973C9.60675 8.20072 9.76471 8.08132 9.949 8.08132C10.1304 8.08132 10.2795 8.19489 10.3702 8.29391C10.3732 8.29682 10.3732 8.29682 10.3761 8.29973L11.9879 9.90435C12.2892 10.2014 12.2892 10.5072 11.9908 10.8159Z" fill="black"/>
</svg>
