<svg width="85" height="96" viewBox="0 0 85 96" fill="none" xmlns="http://www.w3.org/2000/svg">
<path d="M20.3445 43.5946C20.3445 56.148 30.5206 66.3241 43.074 66.3241C55.6273 66.3241 65.8035 56.148 65.8035 43.5946C65.8035 31.0413 55.6273 20.8651 43.074 20.8651C30.5268 20.8789 20.359 31.0474 20.3445 43.5946ZM43.074 24C53.8961 24 62.6686 32.7725 62.6686 43.5946C62.6686 54.4167 53.8961 63.1892 43.074 63.1892C32.2519 63.1892 23.4794 54.4167 23.4794 43.5946C23.4916 32.7779 32.2572 24.0123 43.074 24Z" fill="#E8252C"/>
<path d="M47.4945 36.8023V37.4266H52V39.8503H47.3199C47.1103 41.5395 46.6446 42.8616 45.9228 43.8164C45.2243 44.7712 44.1998 45.4567 42.8493 45.8729C41.5221 46.2891 39.7525 46.4972 37.5404 46.4972V49.3983C37.5404 52.7034 38.9142 54.3559 41.6618 54.3559C44.3627 54.3559 45.7132 52.7646 45.7132 49.5819H48.6471C48.6238 52.0301 48.0067 53.8785 46.796 55.1271C45.5852 56.3757 43.8621 57 41.6268 57C39.3217 57 37.5637 56.3267 36.3529 54.9802C35.1654 53.6337 34.5717 51.7486 34.5717 49.3249V44.1469C37.2261 44.1469 39.182 44.0612 40.4393 43.8898C41.72 43.694 42.6513 43.3023 43.2335 42.7147C43.8156 42.1026 44.1881 41.1478 44.3511 39.8503H33V37.4266H44.4908V36.7655V33.4605H33V31H52V33.4605H47.4945V36.8023Z" fill="#ED1C24"/>
<path d="M73.5305 70.1884L61.2519 75.9898C59.5567 72.8365 56.3047 70.8298 52.7259 70.7287L41.391 70.4172C39.5962 70.366 37.8352 69.9113 36.2394 69.0871L35.086 68.4893C29.1805 65.4111 22.1416 65.4187 16.2422 68.5092L16.3141 65.8963C16.3379 65.0307 15.6559 64.3097 14.7903 64.286L2.36096 63.9439C1.49534 63.9201 0.77514 64.6021 0.751414 65.4677L0.000600793 92.7434C-0.0231251 93.609 0.658806 94.33 1.52442 94.3537L13.9538 94.6958H13.9966C14.8462 94.6958 15.5411 94.02 15.5641 93.1712L15.6001 91.8663L18.8291 90.1374C20.0965 89.4554 21.5783 89.2932 22.9628 89.6851L42.2451 95.0969C42.2788 95.1068 42.3125 95.1145 42.3469 95.1221C43.7406 95.4137 45.1611 95.5599 46.5847 95.5592C49.6002 95.5607 52.5805 94.9109 55.3212 93.6527C55.3886 93.622 55.4536 93.5861 55.5156 93.5455L83.4733 75.4617C84.1697 75.0109 84.3948 74.0963 83.9868 73.3738C81.9112 69.6909 77.3076 68.288 73.5305 70.1884ZM3.17759 91.2632L3.84192 67.1209L13.1372 67.3765L12.4728 91.5196L3.17759 91.2632ZM53.9091 90.853C50.5041 92.3898 46.701 92.8138 43.0411 92.0661L23.8108 86.668C21.6464 86.0565 19.3296 86.3098 17.3497 87.3744L15.6996 88.2584L16.1412 72.2066C21.3701 68.7289 28.0761 68.3714 33.6448 71.2729L34.7982 71.8706C36.8142 72.9115 39.0375 73.4855 41.3053 73.5514L52.6409 73.8629C55.8248 73.9547 58.5288 76.2217 59.1748 79.3413L42.2903 78.8752C41.4247 78.8515 40.7045 79.5341 40.68 80.399C40.6563 81.2646 41.339 81.9856 42.2038 82.0093L60.8371 82.5221H60.8808C61.7295 82.5213 62.4237 81.8455 62.4467 80.9975C62.4658 80.3163 62.4153 79.6344 62.2951 78.964L74.889 73.0133C74.9013 73.008 74.9135 73.0018 74.9258 72.9957C76.7121 72.0918 78.8719 72.3942 80.3414 73.7542L53.9091 90.853Z" fill="black"/>
<path d="M44.6415 16.4582V1.56745C44.6415 0.70183 43.9397 0 43.074 0C42.2084 0 41.5066 0.70183 41.5066 1.56745V16.4582C41.5066 17.3238 42.2084 18.0256 43.074 18.0256C43.9397 18.0256 44.6415 17.3238 44.6415 16.4582Z" fill="black"/>
<path d="M56.3973 16.4582V9.4047C56.3973 8.53908 55.6955 7.83725 54.8299 7.83725C53.9643 7.83725 53.2625 8.53908 53.2625 9.4047V16.4582C53.2625 17.3238 53.9643 18.0257 54.8299 18.0257C55.6955 18.0257 56.3973 17.3238 56.3973 16.4582Z" fill="black"/>
<path d="M32.8856 16.4582V9.4047C32.8856 8.53908 32.1838 7.83725 31.3182 7.83725C30.4526 7.83725 29.7507 8.53908 29.7507 9.4047V16.4582C29.7507 17.3238 30.4526 18.0257 31.3182 18.0257C32.1838 18.0257 32.8856 17.3238 32.8856 16.4582Z" fill="black"/>
</svg>
