<svg width="129" height="98" viewBox="0 0 129 98" fill="none" xmlns="http://www.w3.org/2000/svg">
<path d="M105.748 43.4521C106.654 43.4521 107.388 44.1856 107.388 45.0917C107.388 45.9969 106.653 46.7314 105.748 46.7314H41.0082C40.1021 46.7314 39.3685 45.997 39.3685 45.0917C39.3685 44.1856 40.102 43.4521 41.0082 43.4521H105.748Z" fill="black" stroke="#FCCFBD" stroke-width="0.5"/>
<path d="M32.2154 46.7314H22.6953C21.7901 46.7314 21.0557 45.997 21.0557 45.0918C21.0557 44.1857 21.7901 43.4521 22.6953 43.4521H32.2154C33.1216 43.4521 33.855 44.1856 33.855 45.0918C33.855 45.9971 33.1215 46.7314 32.2154 46.7314Z" fill="black" stroke="#FCCFBD" stroke-width="0.5"/>
<path d="M78.3779 54.2142C79.2832 54.2142 80.0176 54.9478 80.0176 55.8539C80.0176 56.7591 79.2831 57.4935 78.3779 57.4935H22.6953C21.7901 57.4935 21.0557 56.7591 21.0557 55.8539C21.0557 54.9478 21.7901 54.2142 22.6953 54.2142H78.3779Z" fill="black" stroke="#FCCFBD" stroke-width="0.5"/>
<path d="M21.0557 66.616C21.0557 65.7099 21.7901 64.9763 22.6953 64.9763H75.947C76.8531 64.9763 77.5866 65.7098 77.5866 66.616C77.5866 67.5212 76.8531 68.2556 75.947 68.2556H22.6953C21.7901 68.2556 21.0557 67.5211 21.0557 66.616Z" fill="black" stroke="#FCCFBD" stroke-width="0.5"/>
<path d="M10.6923 82.3218V82.5718H10.9423H80.9587C81.8639 82.5718 82.5983 83.3053 82.5983 84.2114C82.5983 85.1166 81.8638 85.8511 80.9587 85.8511H10.774C8.92101 85.8511 7.41296 84.343 7.41296 82.4901V11.4678C7.41296 9.61486 8.92101 8.10681 10.774 8.10681H118.226C120.079 8.10681 121.587 9.61486 121.587 11.4678V82.4901C121.587 84.3429 120.079 85.8501 118.226 85.8501H114.862C113.956 85.8501 113.222 85.1166 113.222 84.2104C113.222 83.3243 113.925 82.602 114.805 82.5718H114.862H118.058H118.308V82.3218V11.6361V11.3861H118.058H10.9423H10.6923V11.6361V82.3218Z" fill="black" stroke="#FCCFBD" stroke-width="0.5"/>
<path d="M3.5293 89.4719L3.52926 89.7219L3.77926 89.7219L80.9576 89.7337C81.8637 89.7337 82.5973 90.4681 82.5973 91.3734C82.5973 92.2795 81.8638 93.013 80.9577 93.013H3.79111C1.83875 93.013 0.25 91.4242 0.25 89.4719V4.48495C0.25 2.5326 1.83875 0.943848 3.79111 0.943848H124.959H125.209C127.161 0.943848 128.75 2.5326 128.75 4.48495V89.4729C128.75 91.4242 127.161 93.013 125.209 93.013H114.862C113.956 93.013 113.222 92.2795 113.222 91.3734C113.222 90.4681 113.956 89.7337 114.862 89.7337H125.209H125.459L125.459 89.4837L125.471 4.48499L125.471 4.23498L125.221 4.23495L3.79113 4.22314L3.54114 4.22312L3.54111 4.47311L3.5293 89.4719Z" fill="black" stroke="#FCCFBD" stroke-width="0.5"/>
<path d="M90.5328 70.4337C90.5328 66.3664 93.8429 63.0572 97.9103 63.0572C101.978 63.0572 105.287 66.3663 105.287 70.4337C105.287 74.5011 101.978 77.8102 97.9103 77.8102C93.8419 77.8102 90.5328 74.5011 90.5328 70.4337ZM93.8121 70.4337C93.8121 72.6938 95.6504 74.5309 97.9103 74.5309C100.169 74.5309 102.008 72.6937 102.008 70.4337C102.008 68.1737 100.169 66.3365 97.9103 66.3365C95.6504 66.3365 93.8121 68.1746 93.8121 70.4337Z" fill="#E8252C" stroke="#FCCFBD" stroke-width="0.5"/>
<path d="M112.666 71.2195L112.665 71.2193C112.317 70.7245 112.317 70.0612 112.665 69.5665L112.666 69.5662C113.531 68.3403 113.76 66.8201 113.297 65.3932C112.833 63.9662 111.754 62.8718 110.334 62.3884L110.334 62.3883C109.76 62.1928 109.371 61.6555 109.362 61.0501C109.341 59.5502 108.633 58.1859 107.419 57.3041L107.419 57.304C106.205 56.4213 104.689 56.1702 103.256 56.6143L103.255 56.6143C102.677 56.7932 102.046 56.5872 101.684 56.1028C100.784 54.9014 99.41 54.2142 97.9102 54.2142C96.4093 54.2142 95.0348 54.9025 94.1362 56.1031L94.1362 56.1031C93.7738 56.5871 93.1426 56.7933 92.564 56.6143L92.5639 56.6143C91.1306 56.1702 89.6141 56.4222 88.4003 57.3041C87.1866 58.1858 86.4797 59.55 86.4582 61.0509L112.666 71.2195ZM112.666 71.2195C113.531 72.4454 113.76 73.9656 113.297 75.3915C112.834 76.8185 111.755 77.9128 110.335 78.3973L112.666 71.2195ZM85.4869 62.3883L85.4866 62.3884C84.0662 62.8718 82.9867 63.9662 82.5229 65.3932C82.0591 66.8201 82.2889 68.3403 83.1538 69.5662C83.5031 70.061 83.5031 70.7246 83.1539 71.2194C82.2899 72.4453 82.0601 73.9655 82.5229 75.3925L85.4869 62.3883ZM85.4869 62.3883C86.059 62.1928 86.4497 61.6559 86.4582 61.051L85.4869 62.3883ZM85.4866 78.3973L85.4869 78.3974C86.0589 78.5928 86.4498 79.1288 86.4582 79.7348C86.4769 81.0739 87.0438 82.3027 88.0279 83.1793L88.1116 83.2539V83.366V95.0562C88.1116 95.9879 88.6316 96.8179 89.4697 97.2249C89.4697 97.2249 89.4697 97.2249 89.4698 97.2249L89.3605 97.4498C89.7336 97.6299 90.1312 97.7185 90.5248 97.7185C91.1085 97.7185 91.6862 97.5236 92.1675 97.1437L92.0126 96.9474L97.7553 92.4152L97.9102 92.293L98.0651 92.4152L103.807 96.9474C104.539 97.5249 105.512 97.6308 106.351 97.2239L106.351 97.2238C107.19 96.8177 107.71 95.9879 107.71 95.0562V83.365V83.2529L107.794 83.1783C108.777 82.3027 109.344 81.074 109.362 79.7348C109.362 79.7348 109.362 79.7348 109.362 79.7348L109.612 79.7383L85.4866 78.3973ZM85.4866 78.3973C84.0663 77.9139 82.9868 76.8195 82.523 75.3927L85.4866 78.3973ZM104.43 93.2611L104.025 92.9416L99.4019 89.2932C98.5234 88.6002 97.2963 88.6001 96.4166 89.2932L104.43 93.2611ZM104.43 93.2611V92.7453V84.61V84.3831L104.204 84.3612C103.885 84.3303 103.568 84.2685 103.256 84.1714L103.255 84.1714C102.677 83.9926 102.046 84.1973 101.683 84.6816L101.683 84.6817C100.785 85.8833 99.4101 86.5715 97.9092 86.5715C96.4095 86.5715 95.0349 85.8833 94.1353 84.6818C93.7736 84.1972 93.142 83.9926 92.564 84.1714L92.5638 84.1714C92.2512 84.2685 91.9334 84.3303 91.6157 84.3612L91.3899 84.3832V84.61V92.7453V93.2612L91.7948 92.9416L96.4164 89.2933L104.43 93.2611ZM109.277 75.2931L109.277 75.2931C107.394 75.9342 106.111 77.701 106.083 79.6886C106.075 80.3138 105.705 80.6737 105.492 80.8284L105.491 80.829C105.45 80.8582 105.403 80.8874 105.357 80.914L105.35 80.9179L105.343 80.9214C105.313 80.9366 105.289 80.9486 105.266 80.9616L105.258 80.9663L105.25 80.9703C105.004 81.086 104.649 81.1696 104.225 81.0381C102.326 80.4512 100.249 81.1262 99.0582 82.7176L99.0581 82.7177C98.6835 83.2175 98.1729 83.2922 97.9092 83.2922C97.6453 83.2922 97.1358 83.2174 96.7614 82.7177L96.7613 82.7176C95.8569 81.5086 94.4418 80.8288 92.9814 80.8288C92.519 80.8288 92.0519 80.8969 91.5951 81.0379L109.277 75.2931ZM109.277 75.2931C109.867 75.0918 110.096 74.6311 110.178 74.3793C110.26 74.1278 110.346 73.6197 109.986 73.1094C108.84 71.4842 108.84 69.3005 109.986 67.6764L109.986 67.6762C110.346 67.1646 110.259 66.6566 110.178 66.4064L110.178 66.4054C110.096 66.1554 109.868 65.6933 109.277 65.4916L109.277 65.4916C107.393 64.8505 106.11 63.0838 106.083 61.0962L106.083 61.0958C106.073 60.4712 105.705 60.1113 105.492 59.9564L105.491 59.956M109.277 75.2931L105.491 59.956M90.5616 80.9664L90.5532 80.9616C90.5372 80.9526 90.5232 80.9455 90.5043 80.9359C90.4948 80.9311 90.484 80.9256 90.4712 80.919L90.464 80.9153L90.464 80.9152C90.4137 80.8871 90.3673 80.8574 90.3278 80.829L90.3269 80.8284C90.1132 80.6734 89.7451 80.3136 89.7355 79.6889L89.7355 79.6886C89.7075 77.7009 88.425 75.9342 86.543 75.2931C85.9506 75.0917 85.7217 74.63 85.6405 74.3783C85.5599 74.1281 85.4724 73.6201 85.8325 73.1085L85.8326 73.1083C86.9783 71.4842 86.9783 69.3005 85.8326 67.6764L85.8325 67.6762C85.4724 67.1646 85.5599 66.6566 85.6405 66.4064C85.7217 66.1547 85.9506 65.693 86.543 65.4916C88.4241 64.8505 89.7075 63.0837 89.7355 61.0961L89.7355 61.0958C89.7451 60.4712 90.1132 60.1113 90.3269 59.9564C90.54 59.8018 90.9952 59.5619 91.5936 59.7466L91.5938 59.7467C93.4926 60.3345 95.5697 59.6596 96.7612 58.0682L90.5616 80.9664ZM90.5616 80.9664L90.5703 80.9705M90.5616 80.9664L90.5703 80.9705M90.5703 80.9705C90.8166 81.0859 91.1708 81.1697 91.5946 81.0381L90.5703 80.9705ZM105.491 59.956C105.278 59.802 104.821 59.5618 104.225 59.7467L105.491 59.956ZM97.9092 57.4925C97.6452 57.4925 97.1357 57.5674 96.7613 58.0681L104.225 59.7467C102.326 60.3335 100.249 59.6594 99.0571 58.0681C98.6828 57.5674 98.1732 57.4925 97.9092 57.4925Z" fill="#E8252C" stroke="#FCCFBD" stroke-width="0.5"/>
<path d="M69.948 22.1583L70.0063 22.278L70.1381 22.2964L74.8315 22.9538C75.6946 23.0754 76.3963 23.6638 76.6659 24.4921C76.9355 25.3213 76.7135 26.2097 76.0863 26.8156L72.6762 30.1056L72.5804 30.198L72.6036 30.329L73.4283 34.9961L73.4283 34.9961C73.58 35.8537 73.2376 36.7031 72.5325 37.2158C72.1355 37.5044 71.6722 37.6502 71.2072 37.6502C70.8456 37.6502 70.4815 37.5619 70.1447 37.3824L70.1445 37.3823L65.9597 35.1561L65.8423 35.0936L65.7249 35.1561L61.542 37.3823L61.5419 37.3824C60.7731 37.792 59.8592 37.7284 59.1541 37.2158L59.154 37.2156C58.4491 36.7041 58.1066 35.8547 58.2573 34.9969C58.2573 34.9969 58.2573 34.9969 58.2573 34.9968L59.083 30.3291L59.1062 30.198L59.0104 30.1056L55.5992 26.8145L55.5992 26.8145C54.9722 26.2096 54.7501 25.3214 55.0197 24.4922C55.2893 23.6639 55.991 23.0754 56.8541 22.9538L61.5475 22.2964L61.6793 22.278L61.7376 22.1583L63.8133 17.8978L63.8133 17.8977C64.1945 17.1149 64.9713 16.6298 65.8424 16.6289C66.7 16.629 67.465 17.0991 67.8536 17.8592L67.8724 17.8978L69.948 22.1583ZM69.9114 28.2165L71.931 26.2668L72.2999 25.9106L71.792 25.8394L69.0127 25.4497C69.0127 25.4497 69.0127 25.4497 69.0127 25.4497C68.2673 25.3451 67.626 24.8791 67.2963 24.203C67.2963 24.203 67.2963 24.2029 67.2963 24.2029L66.0671 21.6795L65.8423 21.2181L65.6176 21.6795L64.3884 24.2029C64.3883 24.2029 64.3883 24.203 64.3883 24.203C64.0587 24.879 63.4164 25.3451 62.672 25.4497C62.6719 25.4497 62.6719 25.4497 62.6719 25.4497L59.8926 25.8394L59.3845 25.9106L59.7537 26.2669L61.7732 28.2155C61.7733 28.2155 61.7733 28.2156 61.7733 28.2156C62.3147 28.7385 62.5592 29.4923 62.429 30.2322C62.429 30.2323 62.429 30.2323 62.429 30.2324L61.9408 32.9968L61.8517 33.5019L62.3044 33.261L64.7817 31.9432L64.7819 31.943C65.114 31.7659 65.478 31.6782 65.8423 31.6782C66.2075 31.6782 66.5707 31.7659 66.9031 31.9422C66.9031 31.9423 66.9032 31.9423 66.9032 31.9423L69.3811 33.261L69.834 33.502L69.7448 32.9968L69.2566 30.2332L69.2566 30.233C69.1255 29.4932 69.3699 28.7394 69.9114 28.2165Z" fill="black" stroke="#FCCFBD" stroke-width="0.5"/>
</svg>
