<svg width="53" height="53" viewBox="0 0 53 53" fill="none" xmlns="http://www.w3.org/2000/svg">
<path d="M1.34684 40.3359C1.38149 40.3693 1.41926 40.399 1.45945 40.4257C2.43866 41.4315 3.79242 42.0003 5.20718 42H36.2295C37.6425 42.0003 38.9952 41.4332 39.9744 40.4294C40.0839 40.3581 40.1733 40.2604 40.2336 40.1454C41.0122 39.2259 41.4387 38.0661 41.4374 36.8683V33.2079H42.6962C43.6064 33.2065 44.411 32.6257 44.6868 31.7715H46.9342C48.6639 31.7694 50.0655 30.388 50.0676 28.6839V27.7798H50.2696C51.7772 27.7781 52.999 26.5746 53 25.0894V22.5205C52.999 21.0349 51.7772 19.8314 50.2696 19.8297H50.0676V16.7923C50.0697 13.0649 47.6851 9.74216 44.1179 8.50141C40.551 7.261 36.5781 8.37269 34.2056 11.2755H5.20718C2.59077 11.2793 0.381844 13.1937 0.0440086 15.7506C0.00312185 15.8671 -0.00900553 15.9917 0.00901228 16.1136C0.00346836 16.2105 3.3753e-06 16.3082 3.3753e-06 16.4065V36.869C-0.00138262 38.0654 0.424117 39.2245 1.20201 40.144C1.23943 40.2154 1.28828 40.2802 1.34684 40.3359ZM43.2326 31.1511C43.2322 31.4427 42.9924 31.6793 42.6958 31.6793H40.6432C40.3473 31.6793 40.1068 31.4427 40.1068 31.1511V30.8636C40.1068 30.5717 40.3473 30.3351 40.6432 30.3347H42.6958C42.9917 30.3351 43.2322 30.5717 43.2326 30.8636V31.1511ZM51.4487 22.5205V25.0894C51.4477 25.7306 50.9203 26.2509 50.2692 26.2513H48.7637V21.3582H50.2692C50.9203 21.3586 51.4477 21.8789 51.4487 22.5205ZM41.1449 9.52877C45.2138 9.53321 48.5118 12.7826 48.516 16.7923V19.8297H47.9879C47.5596 19.8297 47.2124 20.1718 47.2124 20.5941V27.0157C47.2124 27.4377 47.5596 27.7798 47.9879 27.7798H48.516V28.6839C48.5146 29.5447 47.807 30.2419 46.9339 30.2429H44.6858C44.4107 29.3883 43.6057 28.8075 42.6958 28.8062H40.6432C39.4911 28.8075 38.5573 29.728 38.5559 30.8636V31.1511C38.5573 31.9978 39.0846 32.7575 39.8854 33.0658V36.869C39.8857 37.472 39.7322 38.0654 39.4374 38.5942L30.1166 29.2493C29.9229 29.051 29.636 28.9704 29.3657 29.0383C29.0951 29.1059 28.8827 29.3122 28.8089 29.5775C28.7354 29.8428 28.8124 30.1265 29.0102 30.3208L38.4183 39.7527C37.7867 40.2201 37.0185 40.4725 36.2291 40.4718H5.20683C4.41543 40.4721 3.64482 40.2188 3.01315 39.7493L12.3696 30.3194C12.669 30.0176 12.6635 29.5334 12.3568 29.2384C12.0505 28.9438 11.5599 28.9489 11.2601 29.2507L1.99549 38.5888C1.70304 38.0613 1.55024 37.4699 1.55128 36.869V17.651L17.6451 31.0794C19.4205 32.5691 22.031 32.568 23.8051 31.0767L29.5643 26.2639C30.0216 27.1905 30.9752 27.7788 32.0206 27.7798H34.3016C34.7298 27.7798 35.077 27.4377 35.077 27.0157V20.5941C35.077 20.1718 34.7298 19.8297 34.3016 19.8297H33.7735V16.7923C33.778 12.7822 37.0756 9.53321 41.1449 9.52877ZM33.5261 21.3582V26.2513H32.0206C31.3695 26.2509 30.8418 25.7306 30.8411 25.0894V22.5205C30.8418 21.8789 31.3695 21.3586 32.0206 21.3582H33.5261ZM5.20718 12.8041H33.1976C32.5556 14.038 32.2215 15.4054 32.2222 16.7923V19.8297H32.0206C30.513 19.831 29.2916 21.0349 29.2898 22.5205V24.4891L22.802 29.9114C21.6052 30.9169 19.8446 30.9176 18.6471 29.9131L1.62127 15.7069C1.96222 14.0209 3.4629 12.8065 5.20718 12.8041Z" fill="white"/>
</svg>
