<svg width="14" height="14" viewBox="0 0 14 14" fill="none" xmlns="http://www.w3.org/2000/svg">
<g clip-path="url(#clip0_63_1905)">
<path d="M13.5984 8.52149C13.3957 8.52149 13.2315 8.68575 13.2315 8.88843V12.1466C13.2308 12.7542 12.7384 13.2467 12.1307 13.2474H1.8347C1.22695 13.2467 0.734596 12.7542 0.733879 12.1466V2.58452C0.734596 1.97677 1.22695 1.48441 1.8347 1.4837H5.09272C5.2954 1.4837 5.45966 1.31943 5.45966 1.11676C5.45966 0.91408 5.2954 0.749817 5.09272 0.749817H1.8347C0.821887 0.750964 0.00114669 1.5717 0 2.58452V12.1466C0.00114669 13.1594 0.821887 13.9801 1.8347 13.9813H12.1307C13.1435 13.9801 13.9642 13.1594 13.9653 12.1466V8.88857C13.9653 8.68589 13.8011 8.52149 13.5984 8.52149Z" fill="black"/>
<path d="M5.7373 6.59062L11.0951 1.23273L12.823 2.96064L7.46522 8.31853L5.7373 6.59062Z" fill="black"/>
<path d="M4.86328 9.19271L6.7728 8.66381L5.39219 7.2832L4.86328 9.19271Z" fill="black"/>
<path d="M13.3017 0.324553C12.9433 -0.0330704 12.3629 -0.0330704 12.0044 0.324553L11.6152 0.71371L13.3432 2.44163L13.7323 2.05247C14.0901 1.69399 14.0901 1.11362 13.7323 0.755134L13.3017 0.324553Z" fill="black"/>
</g>
<defs>
<clipPath id="clip0_63_1905">
<rect width="14" height="14" fill="white"/>
</clipPath>
</defs>
</svg>
