<svg width="56" height="56" viewBox="0 0 56 56" fill="none" xmlns="http://www.w3.org/2000/svg">
<path d="M45.6562 6.5625V7.0625H46.1562H48.9375V16.6028V16.7929L49.0638 16.935L55.5 24.1757V55.5H0.5V24.1757L6.9362 16.935L7.0625 16.7929V16.6028V7.0625H9.84375H10.3438V6.5625V0.5H45.6562V6.5625ZM16.438 39.8235L16.8659 39.4471L16.437 39.0718L3.6105 27.8486L2.78125 27.123V28.2249V50.7311V51.8368L3.61149 51.1065L16.438 39.8235ZM28.3302 32.9815L28 32.691L27.6698 32.9815L5.65935 52.3433L4.66418 53.2188H5.98959H50.0104H51.3358L50.3406 52.3433L28.3302 32.9815ZM39.563 39.0718L39.1341 39.4471L39.562 39.8235L52.3885 51.1065L53.2188 51.8368V50.7311V28.2249V27.123L52.3895 27.8486L39.563 39.0718ZM13.125 2.78125H12.625V3.28125V6.5625V7.0625H13.125H42.875H43.375V6.5625V3.28125V2.78125H42.875H13.125ZM46.6562 9.84375V9.34375H46.1562H9.84375H9.34375V9.84375V29.6072V29.834L9.5145 29.9834L18.2633 37.6385L18.5934 37.9274L18.9228 37.6376L28 29.6527L37.0772 37.6377L37.4066 37.9275L37.7367 37.6386L46.4855 29.9834L46.6562 29.834V29.6072V9.84375ZM6.23325 27.1124L7.0625 27.838V26.7361V21.5417V20.2266L6.18879 21.2096L3.59168 24.1314L3.25691 24.508L3.63614 24.8399L6.23325 27.1124ZM52.3639 24.8399L52.7431 24.508L52.4083 24.1314L49.8112 21.2096L48.9375 20.2266V21.5417V26.7361V27.838L49.7668 27.1124L52.3639 24.8399Z" fill="#444444" stroke="#444"/>
<path d="M13 13H43V15H13V13Z" fill="#444444"/>
<path d="M13 19H43V21H13V19Z" fill="#444444"/>
<path d="M13 25H23V27H13V25Z" fill="#444444"/>
</svg>
