<svg width="18" height="13" viewBox="0 0 18 13" fill="none" xmlns="http://www.w3.org/2000/svg">
<path d="M8.55276 7.74257C7.75736 7.74257 6.96197 7.49865 6.28323 7.01081C6.12963 6.90065 6.09473 6.68684 6.20489 6.53323C6.31539 6.37997 6.52886 6.34507 6.68247 6.45489C7.8015 7.25918 9.30471 7.25884 10.4234 6.45489C10.577 6.34507 10.7905 6.37997 10.901 6.53323C11.0111 6.6865 10.9762 6.90031 10.8226 7.01081C10.1435 7.49865 9.34815 7.74257 8.55276 7.74257Z" fill="black"/>
<path d="M10.6232 7.07507C10.5158 7.07507 10.4101 7.02478 10.3433 6.93036C10.2346 6.77607 10.2712 6.56259 10.4255 6.45346L16.5659 2.11522C16.7202 2.00644 16.9337 2.04338 17.0428 2.19733C17.1516 2.35162 17.115 2.56509 16.9607 2.67422L10.8202 7.01246C10.7604 7.05488 10.6913 7.07507 10.6232 7.07507Z" fill="black"/>
<path d="M6.48219 7.07507C6.41411 7.07507 6.34501 7.05454 6.28514 7.01246L0.14469 2.67422C-0.00959953 2.56509 -0.0462047 2.35162 0.0625848 2.19733C0.171374 2.04338 0.384848 2.00644 0.539479 2.11522L6.67993 6.45346C6.83422 6.56259 6.87082 6.77607 6.76203 6.93036C6.69532 7.02478 6.58961 7.07507 6.48219 7.07507Z" fill="black"/>
<path d="M15.395 13.0001H1.71076C1.52192 13.0001 1.36865 12.8468 1.36865 12.658C1.36865 12.4691 1.52192 12.3159 1.71076 12.3159H15.395C15.5838 12.3159 15.7371 12.4691 15.7371 12.658C15.7371 12.8468 15.5838 13.0001 15.395 13.0001Z" fill="black"/>
<path d="M0.342105 11.6316C0.153263 11.6316 0 11.4784 0 11.2895V1.71057C0 1.52173 0.153263 1.36847 0.342105 1.36847C0.530947 1.36847 0.684211 1.52173 0.684211 1.71057V11.2895C0.684211 11.4784 0.530947 11.6316 0.342105 11.6316Z" fill="black"/>
<path d="M16.763 11.6316C16.5742 11.6316 16.4209 11.4784 16.4209 11.2895V1.71057C16.4209 1.52173 16.5742 1.36847 16.763 1.36847C16.9518 1.36847 17.1051 1.52173 17.1051 1.71057V11.2895C17.1051 11.4784 16.9518 11.6316 16.763 11.6316Z" fill="black"/>
<path d="M15.3947 0.684211H13.3421C13.1533 0.684211 13 0.530947 13 0.342105C13 0.153263 13.1533 0 13.3421 0H15.3947C15.5836 0 15.7368 0.153263 15.7368 0.342105C15.7368 0.530947 15.5836 0.684211 15.3947 0.684211Z" fill="black"/>
<path d="M13.348 0.684211H1.71076C1.52192 0.684211 1.36865 0.530947 1.36865 0.342105C1.36865 0.153263 1.52192 0 1.71076 0H13.348C13.5368 0 13.6901 0.153263 13.6901 0.342105C13.6901 0.530947 13.5368 0.684211 13.348 0.684211Z" fill="black"/>
<path d="M15.3948 13C15.206 13 15.0527 12.8468 15.0527 12.6579C15.0527 12.4691 15.206 12.3158 15.3948 12.3158C15.9607 12.3158 16.4212 11.8553 16.4212 11.2895C16.4212 11.1007 16.5744 10.9474 16.7633 10.9474C16.9521 10.9474 17.1054 11.1007 17.1054 11.2895C17.1054 12.2327 16.338 13 15.3948 13Z" fill="black"/>
<path d="M1.71053 13C0.767342 13 0 12.2327 0 11.2895C0 11.1007 0.153263 10.9474 0.342105 10.9474C0.530947 10.9474 0.68421 11.1007 0.68421 11.2895C0.68421 11.8553 1.14468 12.3158 1.71053 12.3158C1.89937 12.3158 2.05263 12.4691 2.05263 12.6579C2.05263 12.8468 1.89937 13 1.71053 13Z" fill="black"/>
<path d="M0.342105 2.05263C0.153263 2.05263 0 1.89937 0 1.71053C0 0.767342 0.767342 0 1.71053 0C1.89937 0 2.05263 0.153263 2.05263 0.342105C2.05263 0.530947 1.89937 0.68421 1.71053 0.68421C1.14468 0.68421 0.68421 1.14468 0.68421 1.71053C0.68421 1.89937 0.530947 2.05263 0.342105 2.05263Z" fill="black"/>
<path d="M16.7633 2.05263C16.5744 2.05263 16.4212 1.89937 16.4212 1.71053C16.4212 1.14468 15.9607 0.68421 15.3948 0.68421C15.206 0.68421 15.0527 0.530947 15.0527 0.342105C15.0527 0.153263 15.206 0 15.3948 0C16.338 0 17.1054 0.767342 17.1054 1.71053C17.1054 1.89937 16.9521 2.05263 16.7633 2.05263Z" fill="black"/>
</svg>
