<svg width="31" height="28" viewBox="0 0 31 28" fill="none" xmlns="http://www.w3.org/2000/svg">
<path d="M26.9072 4.40858H18.1718L15.4324 1.14987C15.3519 1.05437 15.2333 0.999481 15.1083 1H4.0252C2.35524 1.00192 1.00192 2.35524 1 4.0252V23.9748C1.00192 25.6448 2.35524 26.9981 4.0252 27H26.9072C28.5772 26.9981 29.9305 25.6448 29.9324 23.9748V7.43378C29.9305 5.76382 28.5772 4.4105 26.9072 4.40858ZM29.089 23.9748C29.0871 25.179 28.1114 26.1546 26.9072 26.1566H4.0252C2.82105 26.1546 1.84535 25.179 1.84343 23.9748V4.0252C1.84535 2.82105 2.82105 1.84535 4.0252 1.84344H14.9027L17.6421 5.10215C17.7226 5.19764 17.8413 5.25254 17.9662 5.25201H26.9072C28.1114 5.25393 29.0871 6.22963 29.089 7.43378V23.9748Z" fill="#E8252C" stroke="#E8252C"/>
</svg>
