<svg width="19" height="16" viewBox="0 0 19 16" fill="none" xmlns="http://www.w3.org/2000/svg">
<path d="M6.43542 14.4001C6.43542 15.2823 7.15319 16.0001 8.03543 16.0001C8.91767 16.0001 9.63543 15.2823 9.63543 14.4001C9.63543 13.5178 8.91767 12.8 8.03543 12.8C7.15319 12.8 6.43542 13.5178 6.43542 14.4001ZM8.03543 13.8667C8.32951 13.8667 8.56876 14.106 8.56876 14.4001C8.56876 14.6941 8.32951 14.9334 8.03543 14.9334C7.74135 14.9334 7.50209 14.6941 7.50209 14.4001C7.50209 14.106 7.74135 13.8667 8.03543 13.8667Z" fill="#F5F5DC"/>
<path d="M11.8045 14.4001C11.8045 15.2823 12.5222 16.0001 13.4045 16.0001C14.2867 16.0001 15.0045 15.2823 15.0045 14.4001C15.0045 13.5178 14.2867 12.8 13.4045 12.8C12.5222 12.8 11.8045 13.5178 11.8045 14.4001ZM13.4045 13.8667C13.6986 13.8667 13.9378 14.106 13.9378 14.4001C13.9378 14.6941 13.6986 14.9334 13.4045 14.9334C13.1104 14.9334 12.8711 14.6941 12.8711 14.4001C12.8711 14.106 13.1104 13.8667 13.4045 13.8667Z" fill="#F5F5DC"/>
<path d="M17.6711 2.13334H4.17128C3.98867 1.49408 3.8185 0.898455 3.67233 0.386845C3.60694 0.157867 3.39762 0 3.15951 0H0.533334C0.238792 0 0 0.238792 0 0.533334C0 0.827877 0.238792 1.06667 0.533334 1.06667H2.7572C3.35361 3.15435 4.74789 8.03447 5.33242 10.0804L5.13036 10.4845C4.59791 11.5495 5.37334 12.8 6.56147 12.8H15.5378C15.8324 12.8 16.0711 12.5612 16.0711 12.2667C16.0711 11.9721 15.8324 11.7334 15.5378 11.7334H6.56147C6.16481 11.7334 5.90721 11.316 6.08442 10.9615L6.23184 10.6667H15.5378C15.7759 10.6667 15.9852 10.5089 16.0506 10.2799L18.184 2.8132C18.2811 2.47311 18.0256 2.13334 17.6711 2.13334ZM15.1355 9.60002H6.30455C6.01395 8.58288 5.20065 5.73637 4.47603 3.20001H16.9641L15.1355 9.60002Z" fill="#F5F5DC"/>
</svg>
