<svg width="28" height="28" viewBox="0 0 28 28" fill="none" xmlns="http://www.w3.org/2000/svg">
<path d="M19.8271 17.8881L19.6892 18.0626L19.8465 18.2199L27.4284 25.8011C27.6371 26.018 27.7526 26.3081 27.75 26.6091C27.7473 26.9109 27.6263 27.1995 27.4129 27.4129C27.1996 27.6263 26.9109 27.7473 26.6092 27.75C26.3081 27.7526 26.018 27.6371 25.8012 27.4284L18.2195 19.8468L18.0622 19.6896L17.8877 19.8275C15.9845 21.3316 13.632 22.1542 11.2062 22.1638C9.03933 22.1637 6.92115 21.5211 5.11947 20.3172C3.31766 19.1132 1.91332 17.402 1.08403 15.3999C0.254747 13.3978 0.0377689 11.1947 0.460534 9.06931C0.8833 6.94388 1.92682 4.99155 3.45914 3.4592C4.99145 1.92685 6.94374 0.883312 9.06913 0.460538C11.1945 0.0377649 13.3975 0.254747 15.3996 1.08405C17.4017 1.91335 19.1129 3.31772 20.3168 5.11957C21.5206 6.92128 22.1632 9.0395 22.1633 11.2064C22.1538 13.6322 21.3312 15.9848 19.8271 17.8881ZM2.55167 11.2069L2.55167 11.2072C2.55419 13.5018 3.46683 15.7017 5.08936 17.3243C6.71189 18.9469 8.91179 19.8595 11.2064 19.862H11.2067C12.9185 19.862 14.5918 19.3544 16.0151 18.4034C17.4384 17.4523 18.5478 16.1006 19.2028 14.5191C19.8579 12.9376 20.0293 11.1973 19.6954 9.51835C19.3614 7.83941 18.5371 6.29721 17.3267 5.08677C16.1163 3.87632 14.5741 3.05199 12.8952 2.71803C11.2163 2.38407 9.47603 2.55547 7.89454 3.21056C6.31305 3.86565 4.96132 4.975 4.0103 6.39834C3.05928 7.82167 2.55167 9.49506 2.55167 11.2069Z" fill="#E8252C" stroke="white" stroke-width="0.5"/>
</svg>
