<svg width="119" height="120" viewBox="0 0 119 120" fill="none" xmlns="http://www.w3.org/2000/svg">
<path d="M2.92034 74.4303C3.57194 74.883 4.26003 75.2808 4.97751 75.6195C5.83367 76.0574 7.27051 76.7907 7.37158 77.304C7.49627 77.9816 7.4148 78.6809 7.13772 79.3116C6.84243 79.9458 6.53326 80.4908 6.26571 80.9605C5.54035 82.2428 4.32548 84.3911 6.15671 85.8874C6.58479 86.2838 7.32402 86.8565 7.99785 87.3738C7.5018 88.2411 7.27742 89.2374 7.35375 90.2336C7.45891 91.0182 7.88437 91.7242 8.52898 92.1838C8.96895 92.4929 9.43865 92.7625 9.90042 93.026C11.0737 93.6919 11.5315 94.0031 11.6841 94.6254C11.7942 95.4231 11.7265 96.2352 11.4859 97.0036C11.369 97.5328 11.256 98.0639 11.1886 98.5891C10.9918 100.395 11.215 102.222 11.8407 103.928C12.7321 107.077 15.5803 109.271 18.8524 109.329C19.3986 109.327 19.9432 109.269 20.4776 109.156C26.1393 107.814 31.7183 106.145 37.1865 104.156C41.6517 106.776 44.4718 114.743 45.2071 117.734C45.4266 118.618 46.2205 119.238 47.1315 119.238L96.8759 119.099C97.5064 119.098 98.0986 118.797 98.471 118.288C98.8435 117.78 98.9518 117.124 98.7627 116.523C98.2727 115.18 97.5969 113.913 96.755 112.757C96.2798 112.072 95.8514 111.356 95.4728 110.613C94.5751 108.797 93.8268 106.91 93.2353 104.973C92.1029 101.142 91.3183 97.2174 90.8907 93.246C90.8353 92.7882 90.7857 92.1342 90.7461 91.4425C90.8868 91.4425 91.0196 91.4842 91.1623 91.4842C95.0868 91.4875 98.4231 88.6187 99.0079 84.738C99.5927 80.8573 97.2499 77.1327 93.4987 75.9794C89.7474 74.8261 85.7169 76.5911 84.0204 80.1301C82.324 83.6691 83.4724 87.9166 86.7209 90.1187C86.7586 91.4168 86.8458 92.8199 86.9548 93.7237C87.4134 97.9349 88.2498 102.096 89.4539 106.158C90.106 108.288 90.9285 110.363 91.9134 112.361C92.3655 113.259 92.8787 114.124 93.4493 114.951L93.5821 115.149L48.6298 115.274C47.3141 110.573 44.9262 106.241 41.6536 102.618L43.4373 101.994C44.7651 101.53 45.766 101.181 46.2793 101.017C54.7695 98.3315 59.0147 94.4649 58.8997 89.5221C58.874 88.4276 57.9658 87.5611 56.8713 87.5869C55.7767 87.6126 54.9103 88.5207 54.936 89.6153C54.9836 91.6546 53.3129 94.6294 45.0743 97.2355C44.5372 97.4079 43.5027 97.7686 42.1293 98.2482C40.6568 98.7635 38.7839 99.4175 36.7188 100.119H36.705C31.1276 102.164 25.4368 103.884 19.661 105.272C17.8168 105.622 16.024 104.457 15.5943 102.63C15.1709 101.503 15.0116 100.293 15.1285 99.0945C15.1801 98.6783 15.2752 98.2661 15.3664 97.8519C15.7702 96.4817 15.8294 95.033 15.5388 93.6345C14.9624 91.8139 13.6227 90.334 11.8684 89.5796L11.4582 89.3458C11.6722 88.9137 11.9277 88.5035 12.2212 88.121C12.5536 87.6997 12.7011 87.1616 12.6297 86.6297C12.5584 86.0978 12.2744 85.6176 11.8426 85.2988C11.367 84.95 10.2453 84.1097 9.42478 83.4478C9.51991 83.2753 9.62296 83.0851 9.72206 82.9127C10.0332 82.3677 10.388 81.7335 10.7348 81.0002C11.3619 79.611 11.5467 78.0625 11.2639 76.5648C10.7883 74.1469 8.47151 72.9618 6.78297 72.0977C6.2128 71.8267 5.66593 71.5092 5.14795 71.1484C4.72654 70.8636 4.33126 70.5419 3.96676 70.1872C3.96676 69.886 4.2898 69.1566 5.79997 67.3195C9.34961 62.7498 12.393 57.8085 14.8769 52.5824C15.3413 51.7636 15.6029 50.8455 15.6399 49.9049C15.4352 47.9129 14.3795 46.1064 12.7444 44.9503C11.9516 44.215 11.1886 43.5214 11.0994 42.8753C11.1126 42.4075 11.2176 41.9469 11.4086 41.5197C11.7317 40.6695 12.1042 39.8371 12.4788 39.0028C13.2915 37.3271 13.9406 35.577 14.4171 33.7766L14.6152 32.9324C15.0336 30.951 15.573 28.9972 16.2305 27.0819C17.7927 22.7699 20.2116 18.8187 23.3413 15.4663C27.1326 11.455 33.1 8.61702 41.1066 7.0256C47.2317 5.68102 53.4468 4.78548 59.7024 4.34613C64.5919 4.19274 69.4749 4.81482 74.1699 6.18925C69.7279 9.60861 66.4336 14.3007 64.7263 19.6401C63.9342 22.0783 64.365 24.7489 65.8837 26.8144C67.6435 29.2197 70.6056 30.4321 73.5468 29.9507C76.4879 29.4694 78.9091 27.3761 79.8102 24.5353C81.6314 18.6922 87.5903 15.1857 93.5826 16.4312C99.5748 17.6767 103.643 23.2673 102.985 29.3521C102.327 35.437 97.1574 40.0285 91.0374 39.964C88.9554 39.954 86.9512 40.7543 85.4486 42.1955C84.0323 43.5867 83.2365 45.4899 83.2408 47.4752V63.7462C83.2408 68.1244 86.79 71.6736 91.1682 71.6736C95.5464 71.6736 99.0956 68.1244 99.0956 63.7462V54.6653C109.206 51.6914 116.757 43.243 118.581 32.8632C120.405 22.4835 116.187 11.967 107.696 5.72425C99.2051 -0.518458 87.9092 -1.40806 78.5458 3.42854C72.4428 1.22682 65.9794 0.19542 59.4943 0.388376C53.0455 0.835657 46.6382 1.75506 40.3238 3.13919C31.3877 4.92285 24.8931 8.05616 20.4597 12.7413C16.9626 16.4833 14.2586 20.8942 12.5105 25.7085C11.7968 27.7801 11.2104 29.8934 10.7546 32.0366L10.5564 32.8729C10.1334 34.4273 9.56614 35.9387 8.86193 37.3876C8.46556 38.2913 8.05334 39.195 7.69859 40.1304C7.24245 41.1717 7.06226 42.3129 7.17538 43.4441C7.57415 45.2202 8.59921 46.7933 10.0629 47.8755C11.0321 48.7634 11.6682 49.3896 11.6762 49.9347C11.6053 50.2359 11.4918 50.5255 11.3392 50.7948C8.96594 55.7915 6.05881 60.5166 2.66865 64.8877C1.23181 66.6357 -0.274399 68.675 0.0426976 70.7163C0.463086 72.2911 1.50046 73.63 2.92034 74.4303ZM91.1682 79.601C93.3573 79.601 95.1319 81.3756 95.1319 83.5647C95.1319 85.7538 93.3573 87.5284 91.1682 87.5284C88.9791 87.5284 87.2045 85.7538 87.2045 83.5647C87.2045 81.3756 88.9791 79.601 91.1682 79.601ZM93.8853 4.44126C105.365 5.75345 114.241 15.127 114.925 26.6613C115.609 38.1956 107.904 48.5527 96.6599 51.213C95.7642 51.4237 95.1314 52.2231 95.1319 53.1433V63.7462C95.1319 65.9353 93.3573 67.7099 91.1682 67.7099C88.9791 67.7099 87.2045 65.9353 87.2045 63.7462V47.4752C87.2012 46.5499 87.5713 45.6624 88.2311 45.0137C89.001 44.2765 90.0378 43.8844 91.1028 43.9277H91.1682C99.1085 44.0126 105.858 38.1456 106.878 30.2707C107.515 25.7252 106.15 21.127 103.137 17.6647C100.124 14.2023 95.758 12.2156 91.1682 12.218C84.2168 12.1911 78.0665 16.7158 76.0229 23.36C75.5662 24.7693 74.3585 25.804 72.8959 26.0393C71.4332 26.2746 69.9621 25.6708 69.0864 24.4758C68.3185 23.4301 68.1022 22.0781 68.5057 20.845C72.0029 10.0487 82.6052 3.19598 93.8853 4.44126Z" fill="white"/>
<path d="M22.1346 35.5898L22.3327 34.7079C22.6801 33.0602 23.1215 31.4338 23.6546 29.8365C24.8482 26.5278 26.698 23.4944 29.0928 20.9182C31.6614 18.4964 34.8053 16.7699 38.2272 15.9021C38.9181 15.7074 39.4497 15.1544 39.617 14.4563C39.7842 13.7583 39.5609 13.0244 39.0332 12.5377C38.5056 12.0511 37.756 11.8878 37.0738 12.1109C32.9899 13.1721 29.2487 15.2684 26.2112 18.1971C23.4513 21.164 21.3191 24.6579 19.9426 28.4691C19.348 30.2282 18.8576 32.021 18.4741 33.8379L18.2759 34.696C18.0286 35.7615 18.6911 36.8259 19.7563 37.0743C19.9038 37.1089 20.0548 37.1262 20.2062 37.1258C21.128 37.1245 21.9272 36.488 22.1346 35.5898Z" fill="white"/>
<path d="M17.8398 43.9276C18.9343 43.9276 19.8216 43.0403 19.8216 41.9457C19.8216 40.8512 18.9343 39.9639 17.8398 39.9639C16.7452 39.9639 15.8579 40.8512 15.8579 41.9457C15.8579 43.0403 16.7452 43.9276 17.8398 43.9276Z" fill="white"/>
</svg>
