<svg width="32" height="24" viewBox="0 0 32 24" fill="none" xmlns="http://www.w3.org/2000/svg">
<path d="M0 24V8.62434C0 3.8693 3.8693 0 8.62434 0H22.7973C27.5533 0 31.4237 3.8693 31.4237 8.62434V11.2764C31.4237 16.0314 27.5544 19.9007 22.7993 19.9007H8.82428L0 24ZM8.62434 1.92274C4.92908 1.92274 1.92273 4.92908 1.92273 8.62434V20.9864L8.40057 17.977H22.7993C26.4946 17.977 29.5009 14.9706 29.5009 11.2753V8.6233C29.5009 4.92804 26.4935 1.9217 22.7973 1.9217H8.62434V1.92274ZM9.25834 8.47827C10.2684 8.47827 11.0868 9.29667 11.0868 10.3067C11.0868 11.3168 10.2684 12.1352 9.25834 12.1352C8.24828 12.1352 7.42988 11.3168 7.42988 10.3067C7.42988 9.29667 8.24828 8.47827 9.25834 8.47827ZM22.1643 8.47827C23.1743 8.47827 23.9927 9.29667 23.9927 10.3067C23.9927 11.3168 23.1743 12.1352 22.1643 12.1352C21.1542 12.1352 20.3358 11.3168 20.3358 10.3067C20.3358 9.29667 21.1542 8.47827 22.1643 8.47827ZM15.7103 8.47827C16.7203 8.47827 17.5387 9.29667 17.5387 10.3067C17.5387 11.3168 16.7203 12.1352 15.7103 12.1352C14.7002 12.1352 13.8818 11.3168 13.8818 10.3067C13.8818 9.29667 14.7002 8.47827 15.7103 8.47827Z" fill="#F47C7C"/>
</svg>
