<svg width="26" height="26" viewBox="0 0 26 26" fill="none" xmlns="http://www.w3.org/2000/svg">
<g clip-path="url(#clip0_63_664)">
<path d="M25.9752 7.64407C25.9143 6.26259 25.6909 5.31283 25.3709 4.48986C25.0408 3.61629 24.5328 2.83419 23.8674 2.18402C23.2172 1.52373 22.43 1.01066 21.5665 0.685681C20.7388 0.365657 19.794 0.142255 18.4125 0.0813452C17.0207 0.015277 16.5789 0 13.0489 0C9.51892 0 9.07708 0.015277 7.69044 0.0761867C6.30897 0.137096 5.35921 0.360697 4.53644 0.680522C3.66267 1.01066 2.88057 1.51858 2.2304 2.18402C1.57012 2.83419 1.05725 3.62145 0.732066 4.4849C0.412043 5.31284 0.188641 6.25743 0.127732 7.63891C0.0616637 9.03071 0.0463867 9.47255 0.0463867 13.0025C0.0463867 16.5325 0.0616637 16.9744 0.122573 18.361C0.183483 19.7425 0.407083 20.6922 0.727106 21.5152C1.05725 22.3888 1.57012 23.1709 2.2304 23.8211C2.88057 24.4813 3.66783 24.9944 4.53128 25.3194C5.35921 25.6394 6.30381 25.8628 7.68548 25.9237C9.07192 25.9848 9.51396 25.9999 13.0439 25.9999C16.5739 25.9999 17.0158 25.9848 18.4024 25.9237C19.7839 25.8628 20.7336 25.6394 21.5564 25.3194C23.3037 24.6438 24.6852 23.2624 25.3608 21.5152C25.6806 20.6873 25.9042 19.7425 25.9651 18.361C26.026 16.9744 26.0413 16.5325 26.0413 13.0025C26.0413 9.47255 26.0361 9.03071 25.9752 7.64407ZM23.6339 18.2594C23.5779 19.5292 23.3647 20.2149 23.1869 20.672C22.75 21.8047 21.851 22.7036 20.7184 23.1405C20.2612 23.3183 19.5706 23.5316 18.3058 23.5873C16.9344 23.6484 16.5231 23.6635 13.0541 23.6635C9.58499 23.6635 9.16854 23.6484 7.80215 23.5873C6.53237 23.5316 5.84669 23.3183 5.38957 23.1405C4.82591 22.9322 4.31284 22.6021 3.89639 22.1703C3.46467 21.7487 3.13452 21.2408 2.9262 20.6772C2.74843 20.22 2.53515 19.5292 2.4794 18.2646C2.41829 16.8932 2.40321 16.4817 2.40321 13.0127C2.40321 9.54358 2.41829 9.12713 2.4794 7.76093C2.53515 6.49115 2.74843 5.80547 2.9262 5.34835C3.13452 4.78449 3.46467 4.27162 3.90155 3.85497C4.32296 3.42324 4.83087 3.0931 5.39473 2.88498C5.85185 2.70721 6.54269 2.49393 7.8073 2.43798C9.17866 2.37707 9.59015 2.36179 13.059 2.36179C16.5333 2.36179 16.9445 2.37707 18.3109 2.43798C19.5807 2.49393 20.2664 2.70721 20.7235 2.88498C21.2872 3.0931 21.8002 3.42324 22.2167 3.85497C22.6484 4.27658 22.9786 4.78449 23.1869 5.34835C23.3647 5.80547 23.5779 6.49611 23.6339 7.76093C23.6948 9.13229 23.7101 9.54358 23.7101 13.0127C23.7101 16.4817 23.6948 16.8881 23.6339 18.2594Z" fill="white"/>
<path d="M13.0482 6.32373C9.36086 6.32373 6.36914 9.31525 6.36914 13.0028C6.36914 16.6903 9.36086 19.6818 13.0482 19.6818C16.7357 19.6818 19.7272 16.6903 19.7272 13.0028C19.7272 9.31525 16.7357 6.32373 13.0482 6.32373ZM13.0482 17.3353C10.656 17.3353 8.71565 15.3951 8.71565 13.0028C8.71565 10.6104 10.656 8.67024 13.0482 8.67024C15.4405 8.67024 17.3807 10.6104 17.3807 13.0028C17.3807 15.3951 15.4405 17.3353 13.0482 17.3353Z" fill="white"/>
<path d="M21.5509 6.0595C21.5509 6.92057 20.8527 7.61876 19.9914 7.61876C19.1303 7.61876 18.4321 6.92057 18.4321 6.0595C18.4321 5.19823 19.1303 4.50024 19.9914 4.50024C20.8527 4.50024 21.5509 5.19823 21.5509 6.0595Z" fill="white"/>
</g>
<defs>
<clipPath id="clip0_63_664">
<rect width="26" height="26" fill="white"/>
</clipPath>
</defs>
</svg>
