<svg width="20" height="26" viewBox="0 0 20 26" fill="none" xmlns="http://www.w3.org/2000/svg">
<path d="M9.87287 25.2012L9.87272 25.201C9.69315 25.0128 7.38858 22.5778 5.13381 19.4C4.00635 17.811 2.90255 16.0518 2.08311 14.3069C1.25888 12.5517 0.75 10.8685 0.75 9.41618C0.75 4.68017 4.85704 0.75 10 0.75C15.1429 0.75 19.2499 4.68015 19.25 9.41618C19.25 10.8685 18.7411 12.5517 17.9169 14.3069C17.0975 16.0518 15.9936 17.811 14.8662 19.4C12.6114 22.5778 10.3068 25.0128 10.1273 25.201L10.1271 25.2012C10.1016 25.2279 10.0581 25.25 10 25.25C9.94204 25.25 9.89853 25.2281 9.87287 25.2012ZM4.2188 9.41618C4.2188 12.4845 6.85467 14.9037 10 14.9037C13.1453 14.9037 15.7811 12.4846 15.7811 9.41623C15.7811 6.34787 13.1453 3.92869 10 3.92869C6.85475 3.92869 4.2188 6.3478 4.2188 9.41618Z" stroke="#64544A" stroke-width="1.5"/>
</svg>
