<svg width="100" height="100" viewBox="0 0 100 100" fill="none" xmlns="http://www.w3.org/2000/svg">
<path d="M99.9999 50C99.9999 59.8694 97.0702 69.4672 91.5282 77.7565C90.7752 78.8834 89.5377 79.4922 88.2774 79.4922C87.5312 79.4922 86.7767 79.2793 86.1098 78.833C84.3162 77.6344 83.8348 75.2083 85.0333 73.4146C89.714 66.4146 92.1874 58.3183 92.1874 50C92.1874 46.4256 91.7403 42.8757 90.8584 39.4501C90.3205 37.3611 91.5786 35.231 93.6675 34.6931C95.758 34.156 97.8866 35.4134 98.4244 37.5023C99.4697 41.5642 99.9999 45.7687 99.9999 50ZM71.8231 86.1122C65.2618 90.0864 57.7156 92.1875 50 92.1875C26.738 92.1875 7.81249 73.262 7.81249 50C7.81249 26.738 26.738 7.8125 50 7.8125C58.6128 7.8125 66.8945 10.3897 73.9509 15.2657C75.7255 16.4917 78.1585 16.0469 79.3853 14.2723C80.6113 12.4977 80.1673 10.0647 78.392 8.83789C70.024 3.05634 60.2066 0 50 0C36.6447 0 24.0883 5.20096 14.6446 14.6446C5.20095 24.0883 0 36.6447 0 50C0 63.3553 5.20095 75.9117 14.6446 85.3554C24.0883 94.799 36.6447 100 50 100C59.143 100 68.0892 97.5082 75.8712 92.794C77.7168 91.6763 78.3065 89.2746 77.1888 87.429C76.0703 85.5835 73.6686 84.9945 71.8231 86.1122ZM50.3768 61.3266C49.7581 61.351 49.1806 61.1313 48.7319 60.704L28.2737 41.3063C26.7082 39.8216 24.2355 39.8872 22.7516 41.4528C21.2669 43.0183 21.3325 45.491 22.8981 46.9749L43.3525 66.3696C45.2415 68.1656 47.6852 69.1406 50.2746 69.1406C50.4135 69.1406 50.5523 69.1376 50.6912 69.1322C53.4339 69.0216 55.9532 67.8345 57.7842 65.789C57.8308 65.7379 57.875 65.6853 57.9185 65.6311L99.1378 14.3616C100.49 12.6801 100.223 10.2211 98.5412 8.86993C96.8604 7.51801 94.4007 7.78503 93.0488 9.46655L51.9104 60.6361C51.506 61.058 50.9643 61.3029 50.3768 61.3266Z" fill="black"/>
</svg>
